<?xml version="1.0" encoding="UTF-8"?>
<!DOCTYPE svg PUBLIC "-//W3C//DTD SVG 1.1//EN" "http://www.w3.org/Graphics/SVG/1.1/DTD/svg11.dtd">
<!-- Creator: CorelDRAW 2021 (64-Bit) -->
<svg xmlns="http://www.w3.org/2000/svg" xml:space="preserve" width="200px" height="97px" version="1.1" style="shape-rendering:geometricPrecision; text-rendering:geometricPrecision; image-rendering:optimizeQuality; fill-rule:evenodd; clip-rule:evenodd"
viewBox="0 0 39.97 19.31"
 xmlns:xlink="http://www.w3.org/1999/xlink"
 xmlns:xodm="http://www.corel.com/coreldraw/odm/2003">
 <defs>
  <style type="text/css">
   <![CDATA[
    .fil5 {fill:#008E49;fill-rule:nonzero}
    .fil4 {fill:#00A1E0;fill-rule:nonzero}
    .fil2 {fill:#00B5EC;fill-rule:nonzero}
    .fil1 {fill:#54BD45;fill-rule:nonzero}
    .fil3 {fill:#D08D28;fill-rule:nonzero}
    .fil8 {fill:#F06B31;fill-rule:nonzero}
    .fil7 {fill:#F38233;fill-rule:nonzero}
    .fil10 {fill:#F59645;fill-rule:nonzero}
    .fil9 {fill:#F68D2B;fill-rule:nonzero}
    .fil6 {fill:#F7CEA2;fill-rule:nonzero}
    .fil11 {fill:#FBB815;fill-rule:nonzero}
    .fil0 {fill:white;fill-rule:nonzero}
   ]]>
  </style>
 </defs>
 <g id="Capa_x0020_1">
  <metadata id="CorelCorpID_0Corel-Layer"/>
  <path class="fil0" d="M36 19.3l-32.02 0.01c-2.2,0 -3.98,-1.78 -3.98,-3.97l0 -11.36c0,-2.19 1.78,-3.97 3.97,-3.97l32.03 -0.01c2.19,0 3.97,1.78 3.97,3.97l0 11.36c0,2.19 -1.77,3.97 -3.97,3.97z"/>
  <path class="fil1" d="M3.42 7.47l0 3.1c0,0.14 0.07,0.22 0.21,0.22l0.47 0c0.15,0 0.22,-0.08 0.22,-0.22l0 -1.14 0.93 0c0.15,0 0.22,-0.07 0.22,-0.21l0 -0.41c0,-0.14 -0.07,-0.21 -0.22,-0.21l-0.93 0 0 -0.45 1.29 0c0.15,0 0.22,-0.07 0.22,-0.21l0 -0.47c0,-0.15 -0.07,-0.22 -0.22,-0.22l-1.98 0c-0.14,0 -0.21,0.07 -0.21,0.22z"/>
  <path class="fil1" d="M7.25 8.41l0.33 0.98 -0.63 0 0.3 -0.98zm0.53 1.76l0.15 0.44c0.03,0.12 0.12,0.18 0.24,0.18l0.51 0c0.17,0 0.23,-0.1 0.18,-0.25l-1.09 -3.12c-0.05,-0.11 -0.13,-0.17 -0.25,-0.17l-0.55 0c-0.11,0 -0.2,0.06 -0.24,0.17l-1.09 3.12c-0.06,0.15 0.01,0.25 0.17,0.25l0.52 0c0.12,0 0.21,-0.06 0.25,-0.18l0.15 -0.44 1.05 0z"/>
  <path class="fil1" d="M12.59 7.25l-0.4 0c-0.12,0 -0.2,0.05 -0.26,0.16l-0.92 1.99 -0.92 -1.99c-0.05,-0.11 -0.13,-0.16 -0.25,-0.16l-0.4 0c-0.14,0 -0.21,0.07 -0.21,0.22l0 3.1c0,0.14 0.07,0.22 0.21,0.22l0.47 0c0.15,0 0.22,-0.08 0.22,-0.22l0 -1.23 0.53 1.28c0.05,0.11 0.14,0.17 0.26,0.17l0.19 0c0.12,0 0.2,-0.06 0.25,-0.17l0.54 -1.28 0 1.23c0,0.14 0.07,0.22 0.22,0.22l0.47 0c0.14,0 0.21,-0.08 0.21,-0.22l0 -3.1c0,-0.15 -0.07,-0.22 -0.21,-0.22z"/>
  <path class="fil1" d="M13.31 7.47l0 3.1c0,0.14 0.07,0.22 0.22,0.22l0.47 0c0.14,0 0.21,-0.08 0.21,-0.22l0 -3.1c0,-0.15 -0.07,-0.22 -0.21,-0.22l-0.47 0c-0.15,0 -0.22,0.07 -0.22,0.22z"/>
  <path class="fil1" d="M15.4 7.25l-0.47 0c-0.15,0 -0.22,0.07 -0.22,0.22l0 3.1c0,0.14 0.07,0.22 0.22,0.22l1.95 0c0.14,0 0.22,-0.08 0.22,-0.22l0 -0.47c0,-0.14 -0.08,-0.22 -0.22,-0.22l-1.27 0 0 -2.41c0,-0.15 -0.07,-0.22 -0.21,-0.22z"/>
  <path class="fil1" d="M18.05 10.79c0.15,0 0.22,-0.08 0.22,-0.22l0 -3.1c0,-0.15 -0.07,-0.22 -0.22,-0.22l-0.47 0c-0.14,0 -0.21,0.07 -0.21,0.22l0 3.1c0,0.14 0.07,0.22 0.21,0.22l0.47 0z"/>
  <path class="fil1" d="M19.91 9.39l0.3 -0.98 0.33 0.98 -0.63 0zm1.91 1.15l-1.09 -3.12c-0.04,-0.11 -0.13,-0.17 -0.25,-0.17l-0.54 0c-0.12,0 -0.2,0.06 -0.24,0.17l-1.1 3.12c-0.05,0.15 0.01,0.25 0.18,0.25l0.51 0c0.13,0 0.21,-0.06 0.25,-0.18l0.15 -0.44 1.05 0 0.15 0.44c0.04,0.12 0.12,0.18 0.24,0.18l0.51 0c0.17,0 0.23,-0.1 0.18,-0.25z"/>
  <path class="fil1" d="M23.67 8.71l-0.69 0 0 -0.59 0.72 0c0.19,0 0.29,0.12 0.29,0.29 0,0.19 -0.15,0.3 -0.32,0.3zm0.63 0.71c0.01,-0.01 0.03,-0.01 0.06,-0.03 0.03,-0.01 0.06,-0.03 0.1,-0.07 0.26,-0.2 0.4,-0.56 0.4,-0.91 0,-0.21 -0.05,-0.4 -0.11,-0.56 -0.07,-0.15 -0.16,-0.26 -0.24,-0.33 -0.2,-0.18 -0.46,-0.27 -0.76,-0.27l-1.45 0c-0.15,0 -0.22,0.07 -0.22,0.22l0 3.1c0,0.14 0.07,0.22 0.22,0.22l0.47 0c0.14,0 0.21,-0.08 0.21,-0.22l0 -1.05 0.44 0 0.56 1.1c0.07,0.11 0.12,0.17 0.25,0.17l0.53 0c0.16,0 0.26,-0.1 0.16,-0.25l-0.62 -1.12z"/>
  <path class="fil1" d="M4.46 4.62l0.22 0.66 -0.42 0 0.2 -0.66zm-0.97 1.6l0.35 0c0.08,0 0.14,-0.04 0.17,-0.12l0.1 -0.29 0.71 0 0.1 0.29c0.02,0.08 0.08,0.12 0.16,0.12l0.35 0c0.11,0 0.15,-0.06 0.12,-0.16l-0.74 -2.11c-0.03,-0.08 -0.09,-0.12 -0.17,-0.12l-0.36 0c-0.09,0 -0.14,0.04 -0.17,0.12l-0.74 2.11c-0.04,0.1 0.01,0.16 0.12,0.16z"/>
  <path class="fil1" d="M6.96 6.28c0.49,0 0.83,-0.21 1.03,-0.52 0.03,-0.04 0.04,-0.09 0.04,-0.16l0 -0.59c0,-0.09 -0.05,-0.14 -0.14,-0.14l-0.87 0c-0.09,0 -0.14,0.05 -0.14,0.14l0 0.2c0,0.1 0.05,0.15 0.14,0.15l0.4 0 0 0.16c-0.02,0.02 -0.07,0.07 -0.14,0.11 -0.08,0.03 -0.18,0.06 -0.32,0.06 -0.18,0 -0.34,-0.08 -0.46,-0.2 -0.12,-0.12 -0.19,-0.28 -0.19,-0.46 0,-0.18 0.07,-0.34 0.19,-0.46 0.12,-0.11 0.28,-0.19 0.46,-0.19 0.15,0 0.28,0.05 0.4,0.15 0.07,0.06 0.13,0.07 0.2,0.01l0.26 -0.2c0.07,-0.06 0.08,-0.13 0.02,-0.21 -0.24,-0.23 -0.55,-0.36 -0.88,-0.36 -0.35,0 -0.66,0.14 -0.89,0.37 -0.23,0.22 -0.37,0.54 -0.37,0.89 0,0.34 0.14,0.65 0.37,0.88 0.23,0.23 0.54,0.37 0.89,0.37z"/>
  <path class="fil1" d="M9.05 4.42l0.49 0c0.13,0 0.19,0.08 0.19,0.2 0,0.12 -0.1,0.2 -0.22,0.2l-0.46 0 0 -0.4zm0.68 1.69c0.04,0.08 0.08,0.11 0.16,0.11l0.36 0c0.11,0 0.17,-0.06 0.11,-0.16l-0.42 -0.76c0.01,-0.01 0.02,-0.01 0.04,-0.02 0.02,-0.01 0.04,-0.02 0.07,-0.05 0.18,-0.13 0.27,-0.38 0.27,-0.61 0,-0.15 -0.03,-0.28 -0.08,-0.38 -0.04,-0.1 -0.1,-0.18 -0.15,-0.23 -0.14,-0.12 -0.31,-0.18 -0.52,-0.18l-0.98 0c-0.1,0 -0.15,0.05 -0.15,0.15l0 2.1c0,0.09 0.05,0.14 0.15,0.14l0.32 0c0.09,0 0.14,-0.05 0.14,-0.14l0 -0.71 0.3 0 0.38 0.74z"/>
  <path class="fil1" d="M10.83 6.22l0.32 0c0.1,0 0.15,-0.05 0.15,-0.14l0 -2.1c0,-0.1 -0.05,-0.15 -0.15,-0.15l-0.32 0c-0.1,0 -0.14,0.05 -0.14,0.15l0 2.1c0,0.09 0.04,0.14 0.14,0.14z"/>
  <path class="fil1" d="M13.77 5.74l-0.25 -0.21c-0.07,-0.06 -0.13,-0.05 -0.21,0 -0.11,0.1 -0.24,0.14 -0.39,0.14 -0.18,0 -0.34,-0.07 -0.46,-0.19 -0.11,-0.11 -0.19,-0.27 -0.19,-0.45 0,-0.18 0.08,-0.34 0.19,-0.46 0.12,-0.11 0.28,-0.19 0.46,-0.19 0.15,0 0.29,0.05 0.41,0.15 0.07,0.06 0.13,0.07 0.2,0.01l0.25 -0.2c0.08,-0.07 0.09,-0.14 0.02,-0.21 -0.23,-0.23 -0.55,-0.36 -0.88,-0.36 -0.35,0 -0.66,0.14 -0.89,0.37 -0.23,0.23 -0.37,0.54 -0.37,0.89 0,0.34 0.14,0.66 0.37,0.89 0.23,0.23 0.54,0.36 0.89,0.36 0.32,0 0.63,-0.11 0.86,-0.33 0.07,-0.07 0.06,-0.15 -0.01,-0.21z"/>
  <path class="fil1" d="M15.24 6.28c0.34,0 0.61,-0.14 0.81,-0.36 0.19,-0.22 0.3,-0.52 0.3,-0.82l0 -1.12c0,-0.1 -0.05,-0.15 -0.14,-0.15l-0.33 0c-0.09,0 -0.14,0.05 -0.14,0.15l0 1.12c0,0.17 -0.06,0.32 -0.15,0.42 -0.09,0.11 -0.21,0.17 -0.35,0.17 -0.14,0 -0.26,-0.06 -0.35,-0.17 -0.09,-0.1 -0.14,-0.25 -0.14,-0.42l0 -1.12c0,-0.1 -0.05,-0.15 -0.15,-0.15l-0.32 0c-0.1,0 -0.14,0.05 -0.14,0.15l0 1.12c0.01,0.32 0.12,0.62 0.31,0.83 0.2,0.22 0.47,0.35 0.79,0.35z"/>
  <path class="fil1" d="M18.25 5.61l-0.85 0 0 -1.63c0,-0.1 -0.05,-0.15 -0.15,-0.15l-0.32 0c-0.1,0 -0.14,0.05 -0.14,0.15l0 2.1c0,0.09 0.04,0.14 0.14,0.14l1.32 0c0.1,0 0.15,-0.05 0.15,-0.14l0 -0.32c0,-0.1 -0.05,-0.15 -0.15,-0.15z"/>
  <path class="fil1" d="M18.98 6.08c0,0.09 0.05,0.14 0.15,0.14l0.32 0c0.09,0 0.14,-0.05 0.14,-0.14l0 -1.64 0.5 0c0.1,0 0.14,-0.05 0.14,-0.14l0 -0.32c0,-0.1 -0.04,-0.15 -0.14,-0.15l-1.61 0c-0.09,0 -0.14,0.05 -0.14,0.15l0 0.32c0,0.09 0.05,0.14 0.14,0.14l0.5 0 0 1.64z"/>
  <path class="fil1" d="M21.66 6.28c0.34,0 0.61,-0.14 0.81,-0.36 0.19,-0.22 0.3,-0.52 0.3,-0.82l0 -1.12c0,-0.1 -0.05,-0.15 -0.14,-0.15l-0.33 0c-0.09,0 -0.14,0.05 -0.14,0.15l0 1.12c0,0.17 -0.06,0.32 -0.15,0.42 -0.09,0.11 -0.21,0.17 -0.35,0.17 -0.13,0 -0.26,-0.06 -0.35,-0.17 -0.09,-0.1 -0.14,-0.25 -0.14,-0.42l0 -1.12c0,-0.1 -0.05,-0.15 -0.15,-0.15l-0.32 0c-0.1,0 -0.14,0.05 -0.14,0.15l0 1.12c0.01,0.32 0.12,0.62 0.31,0.83 0.2,0.22 0.47,0.35 0.79,0.35z"/>
  <path class="fil1" d="M24.21 4.82l-0.46 0 0 -0.4 0.48 0c0.13,0 0.19,0.08 0.19,0.2 0,0.12 -0.1,0.2 -0.21,0.2zm0.43 0.48c0,-0.01 0.01,-0.01 0.04,-0.02 0.02,-0.01 0.04,-0.02 0.06,-0.05 0.18,-0.13 0.28,-0.38 0.28,-0.61 0,-0.15 -0.04,-0.28 -0.08,-0.38 -0.05,-0.1 -0.11,-0.18 -0.16,-0.23 -0.14,-0.12 -0.31,-0.18 -0.52,-0.18l-0.98 0c-0.1,0 -0.14,0.05 -0.14,0.15l0 2.1c0,0.09 0.04,0.14 0.14,0.14l0.32 0c0.1,0 0.15,-0.05 0.15,-0.14l0 -0.71 0.29 0 0.38 0.74c0.04,0.08 0.08,0.11 0.17,0.11l0.35 0c0.12,0 0.18,-0.06 0.12,-0.16l-0.42 -0.76z"/>
  <path class="fil1" d="M26.24 5.28l0.2 -0.66 0.22 0.66 -0.42 0zm0.66 0.82c0.03,0.08 0.08,0.12 0.16,0.12l0.35 0c0.11,0 0.15,-0.06 0.12,-0.16l-0.74 -2.11c-0.03,-0.08 -0.08,-0.12 -0.17,-0.12l-0.36 0c-0.08,0 -0.14,0.04 -0.17,0.12l-0.74 2.11c-0.03,0.1 0.01,0.16 0.12,0.16l0.35 0c0.08,0 0.14,-0.04 0.17,-0.12l0.1 -0.29 0.71 0 0.1 0.29z"/>
  <path class="fil1" d="M5.17 14.3c-0.14,0.15 -0.33,0.25 -0.53,0.25l-0.4 0 0 -1.62 0.41 0c0.2,0 0.39,0.1 0.52,0.24 0.14,0.15 0.22,0.35 0.22,0.57 0,0.21 -0.08,0.42 -0.22,0.56zm-0.52 -2.22l-1.06 0c-0.13,0 -0.2,0.07 -0.2,0.2l0 2.91c0,0.14 0.07,0.2 0.2,0.2l1.05 0c0.43,0 0.84,-0.18 1.13,-0.49 0.29,-0.3 0.47,-0.71 0.47,-1.16 0,-0.43 -0.16,-0.83 -0.45,-1.15 -0.31,-0.33 -0.71,-0.51 -1.14,-0.51z"/>
  <path class="fil1" d="M8.72 12.08l-1.92 0c-0.13,0 -0.2,0.07 -0.2,0.2l0 2.91c0,0.14 0.07,0.2 0.2,0.2l1.92 0c0.14,0 0.21,-0.06 0.21,-0.2l0 -0.44c0,-0.13 -0.07,-0.2 -0.21,-0.2l-1.27 0 0 -0.42 0.94 0c0.13,0 0.2,-0.07 0.2,-0.2l0 -0.38c0,-0.14 -0.07,-0.21 -0.2,-0.21l-0.94 0 0 -0.41 1.27 0c0.14,0 0.21,-0.07 0.21,-0.2l0 -0.45c0,-0.13 -0.07,-0.2 -0.21,-0.2z"/>
  <path class="fil1" d="M11.42 14.55l-1.18 0 0 -2.27c0,-0.13 -0.07,-0.2 -0.21,-0.2l-0.44 0c-0.13,0 -0.2,0.07 -0.2,0.2l0 2.91c0,0.14 0.07,0.2 0.2,0.2l1.83 0c0.14,0 0.2,-0.06 0.2,-0.2l0 -0.44c0,-0.13 -0.06,-0.2 -0.2,-0.2z"/>
  <path class="fil1" d="M14.57 13.45l-0.64 0 0 -0.55 0.67 0c0.18,0 0.28,0.11 0.28,0.27 0,0.17 -0.15,0.28 -0.31,0.28zm0.79 -1.12c-0.19,-0.16 -0.43,-0.25 -0.71,-0.25l-1.36 0c-0.14,0 -0.2,0.07 -0.2,0.2l0 2.91c0,0.14 0.06,0.2 0.2,0.2l0.44 0c0.14,0 0.2,-0.06 0.2,-0.2l0 -0.92 0.64 0c0.29,0 0.55,-0.09 0.75,-0.24 0.24,-0.2 0.37,-0.53 0.37,-0.86 0,-0.2 -0.04,-0.38 -0.11,-0.52 -0.06,-0.14 -0.14,-0.25 -0.22,-0.32z"/>
  <path class="fil1" d="M18.18 12.08l-1.92 0c-0.13,0 -0.2,0.07 -0.2,0.2l0 2.91c0,0.14 0.07,0.2 0.2,0.2l1.92 0c0.14,0 0.21,-0.06 0.21,-0.2l0 -0.44c0,-0.13 -0.07,-0.2 -0.21,-0.2l-1.27 0 0 -0.42 0.94 0c0.13,0 0.2,-0.07 0.2,-0.2l0 -0.38c0,-0.14 -0.07,-0.21 -0.2,-0.21l-0.94 0 0 -0.41 1.27 0c0.14,0 0.21,-0.07 0.21,-0.2l0 -0.45c0,-0.13 -0.07,-0.2 -0.21,-0.2z"/>
  <path class="fil1" d="M20.33 13.45l-0.64 0 0 -0.55 0.68 0c0.17,0 0.26,0.11 0.26,0.27 0,0.17 -0.14,0.28 -0.3,0.28zm0.6 0.66c0,0 0.02,-0.01 0.05,-0.02 0.03,-0.02 0.06,-0.03 0.1,-0.06 0.24,-0.2 0.37,-0.53 0.37,-0.86 0,-0.2 -0.04,-0.38 -0.1,-0.52 -0.07,-0.14 -0.15,-0.25 -0.22,-0.32 -0.2,-0.16 -0.43,-0.25 -0.72,-0.25l-1.36 0c-0.13,0 -0.2,0.07 -0.2,0.2l0 2.91c0,0.14 0.07,0.2 0.2,0.2l0.44 0c0.14,0 0.2,-0.06 0.2,-0.2l0 -0.98 0.41 0 0.53 1.03c0.06,0.11 0.11,0.15 0.23,0.15l0.49 0c0.16,0 0.25,-0.08 0.16,-0.23l-0.58 -1.05z"/>
  <path class="fil1" d="M23.93 11.63c0.36,-0.24 0.05,-0.65 -0.32,-0.41 -0.08,0.05 -0.15,0.11 -0.22,0.17 -0.15,0.12 -0.25,0.24 -0.29,0.34 -0.05,0.1 0.09,0.21 0.21,0.21 0.05,0 0.47,-0.21 0.62,-0.31z"/>
  <path class="fil1" d="M24.67 12.08l-0.45 0c-0.13,0 -0.2,0.07 -0.2,0.2l0 1.56c0,0.23 -0.08,0.44 -0.2,0.58 -0.13,0.15 -0.3,0.23 -0.48,0.23 -0.2,0 -0.37,-0.08 -0.49,-0.23 -0.13,-0.14 -0.2,-0.35 -0.2,-0.58l0 -1.56c0,-0.13 -0.07,-0.2 -0.21,-0.2l-0.44 0c-0.13,0 -0.2,0.07 -0.2,0.2l0 1.56c0.01,0.44 0.17,0.85 0.44,1.15 0.27,0.3 0.65,0.49 1.1,0.49 0.46,0 0.84,-0.21 1.11,-0.51 0.26,-0.3 0.42,-0.72 0.42,-1.13l0 -1.56c0,-0.13 -0.07,-0.2 -0.2,-0.2z"/>
  <path class="fil2" d="M28.73 12.64c0.13,0.02 0.61,-0.05 0.73,-0.05 0.13,-0.01 0.77,-0.14 1.34,-0.54 0,-0.01 0.01,0 0.01,0 0.14,-0.08 0.4,-0.1 0.54,-0.19 0,0 0.01,-0.01 0.02,-0.01 0.02,-0.02 0.03,-0.03 0.03,-0.05l0 0c0.03,-0.08 -0.01,-0.19 0.06,-0.25 -0.29,0.15 -0.34,-0.04 -0.76,-0.14 -0.3,-0.08 -0.82,0.2 -1.22,0.1 -0.4,-0.11 -0.73,0.3 -1.58,0 -0.17,-0.07 -0.29,-0.08 -0.36,-0.07 -0.02,0.25 0,0.41 0,0.41 0.02,0.1 0.03,0.28 0.04,0.51l0 0c0.24,0.11 0.88,0.23 1.15,0.28z"/>
  <path class="fil3" d="M28.99 10.98c0.2,-0.05 0.32,-0.09 0.47,-0.11 0.04,-0.01 0.11,0 0.18,0.02 -0.28,-0.16 -0.47,-0.29 -0.72,-0.41 -0.08,-0.03 -0.24,-0.05 -0.31,-0.08 -0.1,-0.04 -0.18,-0.12 -0.27,-0.14 -0.15,-0.05 -0.29,-0.07 -0.4,-0.06 -0.16,0.27 -0.25,0.53 -0.32,0.75 0.39,-0.01 1.19,0.07 1.37,0.03z"/>
  <path class="fil4" d="M27.9 11.51c0.85,0.3 1.19,-0.11 1.58,0 0.4,0.1 0.92,-0.18 1.22,-0.1 0.42,0.1 0.47,0.3 0.76,0.14 0,0 0,0 0,0 0.12,-0.09 0.24,-0.18 0.35,-0.28 0,0.01 0,0.01 0,0.01 0.03,-0.03 0.06,-0.05 0.09,-0.07l-0.14 0.01 -0.27 -0.03c0,0 -0.05,-0.01 -0.15,-0.03 -0.13,-0.01 -0.24,-0.01 -0.27,-0.02 -0.02,0 -0.04,-0.06 -0.05,-0.08 0,-0.01 -0.09,-0.05 -0.1,-0.05 -0.31,-0.07 -0.52,-0.07 -0.89,-0.07 -0.1,0 -0.26,-0.03 -0.39,-0.05 -0.07,-0.02 -0.14,-0.03 -0.18,-0.02 -0.15,0.02 -0.27,0.06 -0.47,0.11 -0.18,0.04 -0.98,-0.04 -1.37,-0.03 -0.05,0.19 -0.07,0.35 -0.08,0.49 0.07,-0.01 0.19,0 0.36,0.07z"/>
  <path class="fil5" d="M32.65 10.33c-0.11,-0.03 -0.19,-0.09 -0.28,-0.1 -0.12,-0.02 -0.24,0.03 -0.33,0.08 -0.05,0.04 -0.06,0.07 -0.12,0.11 -0.06,0.04 -0.17,0.08 -0.22,0.12 -0.09,0.05 -0.17,0.1 -0.25,0.15 -0.15,0.09 -0.29,0.15 -0.38,0.21 -0.1,0.05 -0.15,0.11 -0.15,0.11 0,0 0,0 0,0 0.01,0 0.1,0.04 0.1,0.05 0.01,0.02 0.03,0.08 0.05,0.08 0.03,0.01 0.14,0.01 0.27,0.02 0.1,0.02 0.15,0.03 0.15,0.03l0.27 0.03 0.14 -0.01c0.02,-0.01 0.04,-0.03 0.06,-0.05 0.08,-0.06 0.16,-0.12 0.24,-0.19 0.11,-0.08 0.23,-0.17 0.34,-0.25 0.07,-0.05 0.14,-0.09 0.2,-0.14 0.06,-0.04 0.12,-0.07 0.18,-0.11 0.02,-0.01 0.04,-0.02 0.05,-0.03 -0.06,-0.02 -0.12,-0.04 -0.18,-0.06 -0.05,-0.02 -0.1,-0.03 -0.14,-0.05z"/>
  <path class="fil1" d="M31.96 15.15c-0.01,-0.13 0.34,-0.12 0.57,-0.17 0.22,-0.05 0.27,-0.11 0.17,-0.16 -0.09,-0.04 -0.93,-0.03 -1.01,-0.1 -0.08,-0.06 -0.13,-0.2 0.15,-0.2 0.28,0 0.61,-0.02 0.61,-0.08 0.01,-0.07 -0.12,-0.11 -0.48,-0.16 -0.36,-0.05 -0.65,-0.16 -0.64,-0.27 0.01,-0.1 0.4,-0.06 0.66,-0.01 0.26,0.04 0.61,0.08 0.61,0.04 0,-0.05 -0.23,-0.19 -0.54,-0.29 -0.31,-0.1 -0.46,-0.27 -0.44,-0.37 0.01,-0.1 0.29,-0.01 0.66,0.17 0.38,0.18 0.56,0.13 0.56,0.06 0,-0.07 -0.17,-0.23 -0.28,-0.39 -0.12,-0.16 0.02,-0.4 0.28,-0.15 0.26,0.26 0.69,0.55 1.43,0.53 0.74,-0.02 0.97,-0.77 1.04,-1.17 0,0 0.01,-0.06 0.01,-0.18 -0.03,-0.01 -0.06,-0.01 -0.08,-0.01 -0.22,0 -0.51,-0.02 -0.78,-0.05 -0.03,0 -0.06,0 -0.1,0 -0.19,-0.02 -0.35,-0.04 -0.46,-0.04 -0.18,0 -0.54,-0.02 -0.89,-0.08 -0.21,-0.03 -0.41,-0.1 -0.59,-0.13 -0.19,-0.04 -0.33,-0.08 -0.38,-0.09 -0.02,-0.01 -0.02,-0.01 -0.03,-0.02 -0.02,0 -0.04,-0.01 -0.05,-0.02 -0.06,-0.05 0.03,-0.09 0.03,-0.09 0,0 0.04,0.01 0.12,0.02 0.05,0.01 0.1,0.02 0.16,0.03 0.05,0.01 0.1,0.01 0.16,0.02 0.12,0.02 0.37,0.05 0.64,0.07 0.45,0.04 0.94,0.08 0.94,0.08 0.01,0 0.07,0 0.08,0 0.2,0 0.32,0.01 0.47,0.01 0.39,0 0.6,0 0.6,0l0.15 -0.01c-0.02,-0.5 -0.17,-1.31 -0.72,-2.16 -0.12,0 -0.81,0.38 -0.81,0.38 0,0 -0.31,0.01 -0.46,0.09 -0.11,0.05 -0.23,0.12 -0.35,0.19 -0.01,0.01 -0.03,0.02 -0.05,0.03 -0.06,0.04 -0.12,0.07 -0.18,0.11 -0.06,0.05 -0.13,0.09 -0.2,0.14 -0.11,0.08 -0.23,0.17 -0.34,0.25 -0.08,0.07 -0.16,0.13 -0.24,0.19 -0.02,0.02 -0.04,0.04 -0.06,0.05 -0.03,0.02 -0.06,0.04 -0.09,0.07 0,0 0,0 0,-0.01 -0.11,0.1 -0.23,0.19 -0.35,0.28 0,0 0,0 0,0 -0.07,0.06 -0.03,0.17 -0.06,0.25l0 0c0,0.02 -0.01,0.03 -0.03,0.05 -0.01,0 -0.02,0.01 -0.02,0.01 -0.14,0.09 -0.4,0.11 -0.54,0.19 0,0 -0.01,-0.01 -0.01,0 -0.57,0.4 -1.21,0.53 -1.34,0.54 -0.12,0 -0.6,0.07 -0.73,0.05 -0.27,-0.05 -0.91,-0.17 -1.15,-0.28l0 0c0.02,0.25 0.05,0.57 0.13,0.87 0.02,0 0.05,0.01 0.08,0 0.05,0 0.13,0.01 0.18,0.01 0.16,-0.01 0.32,-0.02 0.48,-0.04 0.09,-0.01 0.18,-0.03 0.27,-0.04 0.15,-0.02 0.26,-0.05 0.38,-0.06 0.08,-0.02 0.16,-0.02 0.22,-0.03 0.09,-0.01 0.16,-0.02 0.2,-0.03 0.05,-0.01 0.11,-0.01 0.11,-0.01 0,0 0.02,0.02 0.01,0.06 -0.01,0.02 -0.03,0.04 -0.09,0.06 -0.05,0.01 -0.17,0.06 -0.33,0.09 -0.07,0.01 -0.15,0.04 -0.23,0.06 -0.06,0.01 -0.13,0.01 -0.2,0.02 -0.08,0.02 -0.16,0.03 -0.24,0.04 -0.14,0.03 -0.24,0.05 -0.36,0.07 -0.07,0.01 -0.17,0.02 -0.23,0.03 -0.07,0.01 -0.12,0.02 -0.17,0.03 0.09,0.25 0.22,0.48 0.41,0.63 0.09,-0.02 0.25,-0.05 0.3,-0.07 0.07,-0.02 0.16,-0.04 0.23,-0.06 0.1,-0.03 0.22,-0.08 0.34,-0.13 0.07,-0.03 0.15,-0.07 0.22,-0.11 0.08,-0.03 0.16,-0.06 0.23,-0.09 0.15,-0.07 0.29,-0.13 0.41,-0.18 0.01,-0.01 0.04,-0.03 0.05,-0.04 0.12,-0.05 0.21,-0.08 0.29,-0.12 0.09,-0.05 0.16,-0.08 0.17,-0.07 0.02,0.01 0.04,0.02 0.03,0.04 0,0.02 -0.02,0.04 -0.06,0.07 -0.02,0.02 -0.07,0.06 -0.13,0.1 -0.05,0.02 -0.1,0.04 -0.16,0.08 -0.07,0.04 -0.15,0.09 -0.23,0.14 -0.05,0.02 -0.11,0.04 -0.16,0.07 -0.09,0.04 -0.18,0.1 -0.27,0.14 -0.08,0.04 -0.16,0.07 -0.23,0.1 -0.14,0.07 -0.27,0.12 -0.36,0.15 -0.06,0.02 -0.21,0.08 -0.33,0.15 -0.02,0.02 -0.04,0.03 -0.06,0.04 0.17,0.12 0.39,0.26 0.49,0.28 0,0 0.31,0.01 0.51,-0.01 0.03,0 0.07,0 0.11,-0.01 0.03,-0.01 0.05,-0.02 0.08,-0.04 0.16,-0.08 0.32,-0.17 0.49,-0.27 0.22,-0.13 0.45,-0.27 0.63,-0.39 0.25,-0.16 0.37,-0.28 0.41,-0.35 0.02,-0.03 0.08,-0.07 0.11,-0.04 0.02,0.02 0.03,0.08 -0.01,0.13 -0.03,0.04 -0.15,0.24 -0.3,0.36 -0.15,0.11 -0.34,0.21 -0.52,0.34 -0.18,0.12 -0.37,0.23 -0.5,0.31 0,0 0,0.01 0,0.02 0,0.13 -0.14,0.17 -0.24,0.22 -0.06,0.03 -0.2,0.05 -0.29,0.07 -0.02,0.02 -0.05,0.03 -0.08,0.05 0.02,0.06 0.25,0.25 0.86,0.13 0.64,-0.13 0.76,0 0.72,0.1 -0.03,0.11 -0.97,0.22 -0.97,0.32 0,0.11 1.37,-0.16 1.39,0.05 0,0.26 -1.09,0.18 -0.99,0.26 0.1,0.07 1.03,0.06 0.71,0.1 0.12,0 0.22,0 0.28,0 0.3,0 0.46,0 0.74,-0.06 0.06,-0.01 0.25,-0.05 0.3,-0.07 0.01,0 0.04,0 0.04,0 0.04,-0.01 0.05,-0.04 0.09,-0.05 0.07,-0.03 0.2,-0.02 0.27,-0.05 0.14,-0.05 0.34,-0.15 0.47,-0.22 0.03,-0.01 0.07,-0.08 0.09,-0.09 0.25,-0.13 0.47,-0.27 0.68,-0.43 -0.15,0.01 -0.31,0.03 -0.51,0.08 -0.9,0.18 -1.56,0.2 -1.58,0.08z"/>
  <path class="fil5" d="M34.56 11.95c-0.15,0 -0.27,-0.01 -0.47,-0.01 -0.01,0 -0.07,0 -0.08,0 0,0 -0.49,-0.04 -0.94,-0.08 -0.27,-0.02 -0.52,-0.05 -0.64,-0.07 -0.06,-0.01 -0.11,-0.01 -0.16,-0.02 -0.06,-0.01 -0.11,-0.02 -0.16,-0.03 -0.08,-0.01 -0.12,-0.02 -0.12,-0.02 0,0 -0.09,0.04 -0.03,0.09 0.01,0.01 0.03,0.02 0.05,0.02 0.01,0.01 0.01,0.01 0.03,0.01 0.05,0.02 0.19,0.06 0.38,0.1 0.18,0.03 0.38,0.1 0.59,0.13 0.35,0.06 0.71,0.08 0.89,0.08 0.11,0 0.27,0.02 0.46,0.04 0.04,0 0.07,0 0.1,0 0.27,0.03 0.56,0.05 0.78,0.05 0.02,0 0.05,0 0.08,0.01 0,-0.08 0,-0.19 -0.01,-0.31l-0.15 0.01c0,0 -0.21,0 -0.6,0z"/>
  <path class="fil5" d="M28.19 13.43c0.12,-0.02 0.22,-0.04 0.36,-0.07 0.08,-0.01 0.16,-0.02 0.24,-0.04 0.07,-0.01 0.14,-0.01 0.2,-0.02 0.08,-0.02 0.16,-0.05 0.23,-0.06 0.16,-0.03 0.28,-0.08 0.33,-0.09 0.06,-0.02 0.08,-0.04 0.09,-0.06 0.01,-0.04 -0.01,-0.06 -0.01,-0.06 0,0 -0.06,0 -0.11,0.01 -0.04,0.01 -0.11,0.02 -0.2,0.03 -0.06,0.01 -0.14,0.01 -0.22,0.03 -0.12,0.01 -0.23,0.04 -0.38,0.06 -0.09,0.01 -0.18,0.03 -0.27,0.04 -0.16,0.02 -0.32,0.03 -0.48,0.04 -0.05,0 -0.13,-0.01 -0.18,-0.01 -0.03,0.01 -0.06,0 -0.08,0 0.02,0.09 0.05,0.17 0.08,0.26 0.05,-0.01 0.1,-0.02 0.17,-0.03 0.06,-0.01 0.16,-0.02 0.23,-0.03z"/>
  <path class="fil5" d="M28.87 14.14c0.09,-0.03 0.22,-0.08 0.36,-0.15 0.07,-0.03 0.15,-0.06 0.23,-0.1 0.09,-0.04 0.18,-0.1 0.27,-0.14 0.05,-0.03 0.11,-0.05 0.16,-0.07 0.08,-0.05 0.16,-0.1 0.23,-0.14 0.06,-0.04 0.11,-0.06 0.16,-0.08 0.06,-0.04 0.11,-0.08 0.13,-0.09 0.04,-0.04 0.06,-0.06 0.06,-0.08 0.01,-0.02 -0.01,-0.03 -0.03,-0.04 -0.01,-0.01 -0.08,0.02 -0.17,0.07 -0.08,0.04 -0.17,0.07 -0.29,0.12 -0.01,0.01 -0.04,0.03 -0.05,0.04 -0.12,0.05 -0.26,0.11 -0.41,0.18 -0.07,0.03 -0.15,0.06 -0.23,0.09 -0.07,0.03 -0.15,0.08 -0.22,0.11 -0.12,0.05 -0.24,0.1 -0.34,0.13 -0.07,0.02 -0.16,0.04 -0.23,0.06 -0.05,0.02 -0.21,0.05 -0.3,0.07 0.01,0.01 0.03,0.02 0.04,0.03 0.03,0.02 0.12,0.1 0.24,0.18 0.02,-0.01 0.04,-0.02 0.06,-0.04 0.12,-0.07 0.27,-0.13 0.33,-0.15z"/>
  <path class="fil5" d="M31 13.99c0.15,-0.12 0.27,-0.32 0.3,-0.36 0.04,-0.05 0.03,-0.11 0.01,-0.13 -0.03,-0.03 -0.09,0.01 -0.11,0.04 -0.05,0.07 -0.16,0.19 -0.41,0.35 -0.18,0.12 -0.41,0.26 -0.63,0.39 -0.17,0.1 -0.33,0.19 -0.49,0.28 -0.03,0.01 -0.05,0.02 -0.08,0.03 0.17,-0.02 0.36,-0.04 0.39,0.05 0.13,-0.08 0.32,-0.19 0.5,-0.31 0.18,-0.13 0.37,-0.23 0.52,-0.34z"/>
  <path class="fil5" d="M29.37 14.99c0,0 0,0 0,0.01 0.03,-0.02 0.06,-0.03 0.08,-0.05 -0.04,0.01 -0.07,0.02 -0.08,0.04z"/>
  <path class="fil6" d="M34.48 7.96c-0.57,-0.33 -1.08,-0.59 -1.52,-0.79 -0.03,0.01 -0.06,0.02 -0.09,0.04 -0.42,0.18 -0.93,0.29 -1.51,0.29 -0.57,0 -1.07,-0.11 -1.49,-0.28 -0.02,-0.01 -0.04,-0.02 -0.05,-0.03 -0.61,0.22 -1.35,0.57 -2.14,1.03 -2.46,1.41 -1.27,5.68 -0.96,6.13 0.31,0.45 1.16,1.05 1.26,1.12 0.88,0.43 1.15,0.46 1.73,0.52 0.58,0.06 1.3,-0.02 1.36,-0.03 0.01,0 0.02,0 0.02,0 0.32,-0.04 -0.61,-0.03 -0.71,-0.1 -0.1,-0.08 0.99,0 0.99,-0.26 -0.02,-0.21 -1.39,0.06 -1.39,-0.05 0,-0.1 0.94,-0.21 0.97,-0.32 0.04,-0.1 -0.08,-0.23 -0.72,-0.1 -0.61,0.12 -0.84,-0.07 -0.86,-0.13 0,-0.01 0,-0.01 0,-0.01 0.01,-0.02 0.04,-0.03 0.08,-0.04 0.09,-0.02 0.23,-0.04 0.29,-0.07 0.1,-0.05 0.24,-0.09 0.24,-0.22 0,-0.01 0,-0.02 0,-0.02 -0.03,-0.09 -0.22,-0.07 -0.39,-0.05 -0.04,0.01 -0.08,0.01 -0.11,0.01 -0.2,0.02 -0.51,0.01 -0.51,0.01 -0.1,-0.02 -0.32,-0.16 -0.49,-0.28 -0.12,-0.08 -0.21,-0.16 -0.24,-0.18 -0.01,-0.01 -0.03,-0.02 -0.04,-0.03 -0.19,-0.15 -0.32,-0.38 -0.41,-0.63 -0.03,-0.09 -0.06,-0.17 -0.08,-0.26 -0.08,-0.3 -0.11,-0.62 -0.13,-0.87 -0.01,-0.23 -0.02,-0.41 -0.04,-0.51 0,0 -0.02,-0.16 0,-0.41 0.01,-0.14 0.03,-0.3 0.08,-0.49 0.07,-0.22 0.16,-0.48 0.32,-0.75 0.25,-0.43 0.66,-0.9 1.31,-1.34 0.42,-0.36 0.61,-0.62 1.12,-0.93 0.2,0.31 0.45,0.56 0.75,0.63 0.46,0.1 0.91,-0.31 1.25,-0.76 1.09,0.6 1.78,1.3 2.22,1.98 0.55,0.85 0.7,1.66 0.72,2.16 0.01,0.12 0.01,0.23 0.01,0.31 0,0.12 -0.01,0.18 -0.01,0.18 -0.07,0.4 -0.3,1.15 -1.04,1.17 -0.74,0.02 -1.17,-0.27 -1.43,-0.53 -0.26,-0.25 -0.4,-0.01 -0.28,0.15 0.11,0.16 0.28,0.32 0.28,0.39 0,0.07 -0.18,0.12 -0.56,-0.06 -0.37,-0.18 -0.65,-0.27 -0.66,-0.17 -0.02,0.1 0.13,0.27 0.44,0.37 0.31,0.1 0.54,0.24 0.54,0.29 0,0.04 -0.35,0 -0.61,-0.04 -0.26,-0.05 -0.65,-0.09 -0.66,0.01 -0.01,0.11 0.28,0.22 0.64,0.27 0.36,0.05 0.49,0.09 0.48,0.16 0,0.06 -0.33,0.08 -0.61,0.08 -0.28,0 -0.23,0.14 -0.15,0.2 0.08,0.07 0.92,0.06 1.01,0.1 0.1,0.05 0.05,0.11 -0.17,0.16 -0.23,0.05 -0.58,0.04 -0.57,0.17 0.02,0.12 0.68,0.1 1.58,-0.08 0.2,-0.05 0.36,-0.07 0.51,-0.08 0.49,-0.06 0.79,-0.07 1.76,-0.83 0.4,-0.38 1.13,-4.79 -1.33,-6.2z"/>
  <path class="fil7" d="M31.36 7.5c0.58,0 1.09,-0.11 1.51,-0.29 0.03,-0.02 0.06,-0.03 0.09,-0.04 0.14,-0.08 0.28,-0.19 0.4,-0.27 0.09,-0.06 0.17,-0.09 0.25,-0.16 0.17,-0.16 0.31,-0.33 0.42,-0.52 0.2,-0.38 0.26,-0.8 0.13,-1.22 -0.07,-0.23 -0.19,-0.44 -0.35,-0.62 -0.05,-0.06 -0.19,-0.15 -0.24,-0.21 -0.16,-0.15 -0.27,-0.24 -0.48,-0.36 -0.25,-0.14 -0.54,-0.24 -0.84,-0.31 0.04,0.02 0.08,0.05 0.11,0.08 0.02,0.02 0.05,0.04 0.07,0.07 0.11,0.12 0.21,0.26 0.27,0.43 0.11,0.3 0.2,0.6 0.28,0.91 0.03,0.09 0.06,0.19 0.09,0.29 0.02,0.06 0.03,0.12 0.03,0.17 0.03,0.13 0.08,0.3 0,0 0,0.28 -0.24,0.46 -0.54,0.62 -0.27,0.14 -0.57,0.3 -0.93,0.33 -0.31,0.03 -0.62,0.02 -0.91,-0.04 -0.45,-0.09 -0.82,-0.3 -0.97,-0.62 -0.08,-0.16 -0.1,-0.35 -0.04,-0.57 0.03,-0.15 0.09,-0.3 0.13,-0.44 0.06,-0.19 0.1,-0.33 0.16,-0.53 0.07,-0.24 0.22,-0.45 0.41,-0.6 0,0 0,0 0,0 0.05,-0.05 0.11,-0.1 0.18,-0.14 -0.35,0.07 -0.68,0.19 -0.98,0.36 -0.24,0.14 -0.49,0.33 -0.67,0.52 -0.17,0.19 -0.31,0.42 -0.38,0.66 -0.12,0.38 -0.05,0.7 0.11,1.05 0.09,0.19 0.19,0.45 0.36,0.61 0.21,0.21 0.47,0.39 0.79,0.53 0.01,0.01 0.03,0.02 0.05,0.03 0.42,0.17 0.92,0.28 1.49,0.28z"/>
  <path class="fil8" d="M31.55 3.27c0.02,0 0.04,0 0.06,0 -0.02,0 -0.04,0 -0.06,0z"/>
  <path class="fil8" d="M31.62 3.27c0.02,0.01 0.03,0.01 0.05,0.01 -0.02,0 -0.03,0 -0.05,-0.01z"/>
  <path class="fil8" d="M31.5 3.26c0.01,0 0.02,0 0.04,0.01 -0.02,-0.01 -0.03,-0.01 -0.04,-0.01z"/>
  <path class="fil8" d="M32.21 4.45c-0.08,0.06 -0.19,0.14 -0.3,0.17 -0.16,0.05 -0.33,0.08 -0.51,0.08 -0.17,0 -0.33,-0.03 -0.47,-0.07 -0.08,-0.02 -0.19,-0.09 -0.26,-0.12 -0.09,-0.04 -0.12,-0.04 -0.19,-0.09 -0.1,-0.08 -0.17,-0.18 -0.21,-0.28 -0.02,-0.05 -0.03,-0.11 -0.03,-0.16 0,-0.03 0.04,-0.08 0.04,-0.11 0.02,-0.1 0.04,-0.18 0.13,-0.27 -0.19,0.15 -0.34,0.36 -0.41,0.6 -0.06,0.2 -0.1,0.34 -0.16,0.53 -0.04,0.14 -0.1,0.29 -0.13,0.44 -0.06,0.22 -0.04,0.41 0.04,0.57 0.15,0.32 0.52,0.53 0.97,0.62 0.29,0.06 0.6,0.07 0.91,0.04 0.36,-0.03 0.66,-0.19 0.93,-0.33 0.31,-0.16 0.54,-0.34 0.54,-0.62 -0.01,-0.02 -0.02,-0.06 -0.03,-0.09 0,0 0.01,0.04 0.03,0.09 0,-0.05 -0.01,-0.11 -0.03,-0.17 -0.03,-0.1 -0.06,-0.2 -0.09,-0.29 -0.08,-0.31 -0.17,-0.61 -0.28,-0.91 -0.06,-0.17 -0.16,-0.31 -0.27,-0.43 0.08,0.1 0.13,0.21 0.13,0.33 0,0.2 -0.14,0.34 -0.35,0.47z"/>
  <path class="fil9" d="M33.1 5.45c0.08,0.3 0.03,0.13 0,0 -0.02,-0.05 -0.03,-0.09 -0.03,-0.09 0.01,0.03 0.02,0.07 0.03,0.09z"/>
  <path class="fil10" d="M30.41 3.6c-0.09,0.09 -0.11,0.17 -0.13,0.27 0,0.03 -0.04,0.08 -0.04,0.11 0,0.05 0.01,0.11 0.03,0.16 0.04,0.1 0.11,0.2 0.21,0.28 0.07,0.05 0.1,0.05 0.19,0.09 0.07,0.03 0.18,0.1 0.26,0.12 0.14,0.04 0.3,0.07 0.47,0.07 0.18,0 0.35,-0.03 0.51,-0.08 0.11,-0.03 0.21,-0.11 0.3,-0.17 0.21,-0.13 0.35,-0.27 0.35,-0.47 0,-0.12 -0.05,-0.23 -0.13,-0.33 -0.02,-0.03 -0.05,-0.05 -0.07,-0.07 -0.03,-0.03 -0.07,-0.06 -0.11,-0.08 -0.15,-0.11 -0.35,-0.19 -0.58,-0.22 -0.02,0 -0.03,0 -0.05,-0.01 0,0 -0.01,0 -0.01,0 -0.02,0 -0.04,0 -0.06,0 0,0 -0.01,0 -0.01,0 -0.01,-0.01 -0.03,-0.01 -0.04,-0.01 -0.04,0 -0.07,0 -0.1,0 -0.32,0 -0.6,0.08 -0.81,0.2 -0.07,0.04 -0.13,0.09 -0.18,0.14 0,0 0,0 0,0z"/>
  <path class="fil11" d="M30.18 10.19c0.12,0.1 0.27,0.17 0.43,0.17 0.01,0 0.01,0 0.02,-0.01 0.08,0.01 0.16,0 0.23,-0.04 0,-0.01 0.01,-0.01 0.02,-0.02 0.21,-0.1 0.35,-0.31 0.35,-0.56 0,-0.21 -0.11,-0.4 -0.27,-0.52 -0.14,-0.1 -0.34,-0.15 -0.6,-0.05 -0.52,0.2 -0.43,0.8 -0.3,0.93 0.02,0.03 0.07,0.06 0.12,0.1z"/>
 </g>
</svg>
