<svg width="139" height="118" viewBox="0 0 139 118" fill="none" xmlns="http://www.w3.org/2000/svg">
<path fill-rule="evenodd" clip-rule="evenodd" d="M115.745 89.8699C116.045 88.12 116.495 87.12 116.462 85.1368C116.412 82.4203 113.362 79.9037 110.679 80.0871C108.029 80.2537 108.996 82.3703 106.896 81.487C105.529 80.9037 106.979 80.7537 105.129 80.3371C97.163 78.5538 95.5297 87.12 97.3629 89.9865L115.745 89.8699Z" fill="#EFA617"/>
<path fill-rule="evenodd" clip-rule="evenodd" d="M93.6631 90.0365C92.4298 83.7702 95.6296 82.8869 92.5132 80.737C88.2634 77.7872 85.2136 81.787 84.5969 82.237C85.2802 82.8536 85.7469 83.3202 86.4135 84.0369C86.8302 84.4868 86.8635 84.4702 87.2635 84.8535C87.8968 85.4368 87.5468 85.0701 88.0301 85.7701C89.5133 87.8866 90.1133 89.3699 90.6133 90.0532L93.6631 90.0365Z" fill="#EC3A36"/>
<path fill-rule="evenodd" clip-rule="evenodd" d="M77.8806 84.1536C78.0973 85.1368 79.3139 88.2033 79.8972 89.1699C80.8971 90.8365 84.6969 90.0032 86.5801 90.1199L85.0302 87.67C84.3636 86.7201 84.4636 86.3534 83.447 85.6201C82.0471 84.6202 80.2472 83.7869 77.8806 84.1536Z" fill="#61A837"/>
<path fill-rule="evenodd" clip-rule="evenodd" d="M109.662 66.2879C110.279 65.4713 111.162 63.838 111.629 62.5548C109.395 61.3548 109.212 61.2715 108.429 58.8883C107.629 59.055 105.712 60.0216 104.562 60.3882C99.546 62.0215 95.8129 60.8715 91.5798 59.105C91.2465 61.6215 88.63 63.688 88.5633 64.2547C88.5133 64.538 91.7965 71.6709 99.3627 71.8043C99.4127 70.2043 100.629 68.2544 102.046 67.5878C103.729 66.8045 105.246 68.3044 106.779 68.9544L109.662 66.2879Z" fill="#FEC286"/>
<path fill-rule="evenodd" clip-rule="evenodd" d="M22.7336 86.5701C23.4336 87.4034 24.4335 87.9534 24.0169 89.5699C23.7669 90.5699 22.5503 91.3865 21.3004 90.9865C19.3838 90.3365 18.9338 86.2868 22.7336 86.5701ZM57.615 86.9034C57.815 87.8034 58.365 88.9033 57.8317 89.9866C56.9317 91.8865 53.9319 91.2032 53.9319 88.77C53.9152 87.37 54.3652 87.4367 55.0152 86.5534C56.5151 86.4201 56.4318 86.6034 57.615 86.9034ZM15.9673 116.752L61.8315 116.735C61.7148 115.318 61.8315 113.685 61.7815 112.169C61.7148 110.169 61.2648 110.019 60.7482 108.336C59.3982 103.969 62.0314 94.3197 61.7314 91.2698C61.4815 88.8866 61.1148 85.3535 60.5149 83.2703L17.0673 83.2869C14.7674 89.6533 16.8673 111.635 15.9673 116.752Z" fill="#5E8A9D"/>
<path fill-rule="evenodd" clip-rule="evenodd" d="M46.499 31.1399C50.0155 30.3732 50.5654 36.8062 47.6489 37.3395C43.6491 38.0728 44.0491 31.6732 46.499 31.1399ZM28.7666 31.6898C31.6165 30.9232 33.0831 30.6899 33.0664 34.423C33.0497 37.6228 31.2998 37.6562 28.7833 36.8562C28.1833 34.7897 28.15 33.7897 28.7666 31.6898ZM55.9151 39.1894C58.915 38.9228 57.865 41.8226 60.4982 39.7227C61.9815 38.5395 61.3148 36.6062 61.3648 34.6397C54.8319 33.4397 54.4652 34.673 54.4319 26.7401L23.7003 26.7734C23.5169 28.4567 23.5169 32.3065 22.367 33.3564C21.0504 34.523 17.7672 34.0897 16.334 35.0563C15.8507 37.7562 16.2673 40.1227 18.9672 40.406C19.5838 39.7227 18.9838 38.6895 22.2003 39.3061C23.0503 41.3393 22.9336 43.9725 23.8169 46.3057C24.2669 47.5223 24.6669 48.0723 25.3168 48.9722C26.1501 50.1388 25.8501 50.2221 27.1667 51.2887C35.7329 58.205 47.6989 56.6551 52.832 48.4889C55.0318 44.9891 54.0652 41.2893 55.9151 39.1894Z" fill="#FEC58A"/>
<path fill-rule="evenodd" clip-rule="evenodd" d="M105.562 37.1895C104.946 33.423 109.462 33.1397 109.962 36.0896C110.562 39.5894 106.046 40.0727 105.562 37.1895ZM89.7966 37.1895C89.28 33.3564 93.5964 33.1064 94.0297 36.1062C94.563 39.8227 90.1633 39.9727 89.7966 37.1895ZM82.897 33.0397C82.7303 40.2227 83.5969 45.239 87.2801 50.5554C87.5301 50.9221 87.5634 51.0887 87.83 51.4054L91.8965 54.8552C98.5628 58.6216 104.979 57.7217 110.329 52.4553C110.845 51.9387 111.029 51.6387 111.495 51.1054C114.979 47.2556 117.445 39.1061 116.345 33.473C115.529 32.9397 112.179 32.1231 110.945 31.6565C107.262 30.2565 102.096 27.79 98.9794 25.4901C98.1461 24.8735 97.7962 24.4902 97.0129 24.0569C95.9796 24.9235 94.6297 26.4901 92.2965 28.29C91.7465 28.7233 91.2798 28.9899 90.6132 29.4233C88.28 30.9565 85.7302 32.1064 82.897 33.0397Z" fill="#FFC48B"/>
<path fill-rule="evenodd" clip-rule="evenodd" d="M95.5296 19.6071C98.5961 19.2404 97.4295 19.8904 100.646 22.1403L105.029 25.0068C105.596 25.2901 106.396 25.6234 107.129 25.9901C114.962 29.9232 118.645 28.5733 122.961 31.6064C124.311 32.5564 124.728 32.7397 125.728 34.9729L126.478 36.9561C126.495 36.9228 126.528 37.0728 126.561 37.1395C127.628 36.4728 127.578 36.2728 128.144 35.4229C128.578 34.7563 129.011 34.1896 129.378 33.2897C130.094 31.4898 130.011 29.9732 129.111 28.2566C128.178 26.4567 126.111 24.1902 124.495 23.1069C117.245 18.2572 111.829 16.7906 102.313 16.3073C95.1629 15.9406 80.3971 17.9072 75.1807 23.4402C74.9474 23.6902 74.5974 24.0402 74.3141 24.2568C73.2641 25.1235 73.5475 24.6735 72.8475 25.8401C70.8643 29.2066 70.9309 32.1064 73.5975 35.0396C74.2807 34.4729 74.3641 33.9396 74.6474 33.4897C75.6307 31.9064 77.0473 31.0731 78.5138 30.4065C80.5804 29.4899 83.0469 29.1566 85.4135 28.1066C88.1633 26.8734 92.9964 23.4569 94.7129 20.957C95.1796 20.2737 95.1463 20.1404 95.5296 19.6071Z" fill="#B57A37"/>
<path fill-rule="evenodd" clip-rule="evenodd" d="M91.7467 99.1694C91.5967 95.8696 93.8799 96.8195 96.7464 96.7529C98.6796 96.7029 102.479 95.9862 102.979 97.8528C103.679 100.503 100.13 100.153 98.1297 100.153C94.6465 100.169 93.4299 100.653 91.7467 99.1694ZM119.878 96.6862C120.512 95.7696 120.562 94.4863 120.645 93.3364L77.7308 93.2864C77.2475 94.8196 77.4975 95.8362 78.0641 97.2695C80.514 97.6695 83.6805 96.3529 86.147 96.5195C88.5302 96.7029 88.4969 98.1528 90.0468 99.3527C90.1134 99.4027 90.2968 99.536 90.3634 99.586L91.18 100.169C92.8966 101.319 94.4132 102.336 94.8965 105.036C95.4798 108.452 94.8298 109.352 93.7966 112.185C96.8464 114.352 106.779 112.469 109.629 110.585L112.246 108.719C114.895 105.652 113.695 108.002 114.862 106.052C115.845 104.386 117.795 102.336 118.529 100.119C111.879 100.303 109.162 101.003 110.229 97.0195C112.546 96.3362 117.012 96.8528 119.878 96.6862Z" fill="#965E2C"/>
<path fill-rule="evenodd" clip-rule="evenodd" d="M109.646 71.6543C112.045 70.4711 119.528 66.7213 117.862 72.7876C114.462 73.7209 111.962 73.7209 110.229 76.1707C111.829 76.2707 113.929 76.4874 115.262 77.1873C120.028 79.7039 120.595 84.8369 119.545 89.8366L121.245 89.8033C120.895 87.5034 120.612 84.3869 121.345 82.4204L123.628 82.3537C125.295 84.8869 125.161 95.053 125.045 98.4028L135.111 97.6195C135.044 92.1365 133.328 79.8705 131.011 75.1041C129.944 72.8876 126.778 69.2711 124.778 67.9879C119.728 64.738 120.178 65.638 115.412 63.7881C113.412 66.7546 111.795 68.8878 109.646 71.6543Z" fill="#F0A242"/>
<path fill-rule="evenodd" clip-rule="evenodd" d="M74.1309 60.6716C73.0476 59.7383 72.3977 59.055 71.5644 57.5884C70.1311 55.0219 69.3978 51.6054 69.6978 48.3556C69.8478 46.7556 70.2478 45.2557 70.7811 43.8892C72.281 40.0394 73.181 40.2893 71.4477 38.2561C69.5812 36.0729 68.5979 33.6897 68.3312 33.3064L65.0481 34.5897C65.2814 40.8893 64.2814 43.3225 58.2484 44.3558C57.0985 46.7057 57.0485 50.6221 52.9988 53.9552C52.5821 54.3052 52.1655 54.6385 51.5655 55.0385C50.9322 55.4718 50.9322 55.3718 50.2822 55.9385L50.4656 57.3384C56.6152 59.3716 64.3314 61.4215 69.0812 65.9713C69.9145 66.7546 69.9645 67.3378 70.9144 67.8378C71.4477 67.2878 71.6644 66.8212 72.3143 66.2879C72.7976 65.8879 73.2476 65.6046 73.9309 65.1046C74.9975 64.3213 76.2808 63.5047 77.5307 62.8381C76.3641 62.0215 75.3808 61.7548 74.1309 60.6716Z" fill="#FDFEFD"/>
<path fill-rule="evenodd" clip-rule="evenodd" d="M3.56812 116.618C6.36796 117.285 10.1511 116.435 12.7343 116.902C12.251 113.835 12.151 94.5863 12.451 91.2865C12.6676 89.0533 12.8009 87.32 13.1676 85.1701C13.4509 83.3702 13.9675 81.537 14.2342 79.8371C14.7842 76.4206 14.1842 70.4209 14.3509 66.6045C11.0177 68.8877 8.71783 70.8209 7.26791 75.104C5.55134 80.1704 4.01809 96.4028 4.03475 102.003L3.56812 116.618Z" fill="#EBCD9A"/>
<path fill-rule="evenodd" clip-rule="evenodd" d="M81.2971 80.5871C81.9804 79.4705 81.5804 79.9705 82.547 79.0372C86.7968 74.9708 92.9131 75.0207 96.1796 79.1872C97.2295 77.9039 98.7128 77.6539 100.429 76.7707C99.0794 74.4541 99.8127 76.604 94.7963 74.8374C92.6631 74.1041 89.53 72.0876 88.2634 70.471L86.6801 68.4378C84.8635 65.8546 85.7302 66.5379 83.8303 64.8546L83.3636 64.3713C80.1805 65.6379 79.6638 65.7879 76.864 67.5045L72.6309 71.321C72.3309 71.6543 72.3142 71.7876 72.0643 72.1709C66.9979 79.6038 66.9145 86.6368 64.698 95.7696C67.5812 94.353 70.4643 93.4031 74.2475 94.103C74.2141 92.7864 73.9975 90.7699 75.1807 90.0699C75.4974 89.9032 75.4307 89.9866 75.764 89.8533C76.614 89.52 75.7974 90.1032 76.3307 89.6033C75.714 88.6533 75.2141 87.0868 74.7641 85.9202C73.8975 83.7369 73.8141 83.8536 74.2975 81.5871C77.5139 80.2205 78.1639 80.8538 81.2971 80.5871Z" fill="#EDA141"/>
<path fill-rule="evenodd" clip-rule="evenodd" d="M74.5309 97.7027C68.3146 96.7695 63.9815 98.6194 64.0148 104.919C64.0482 110.802 68.8646 112.119 74.4309 112.769C78.3807 113.219 87.4635 113.102 90.2967 110.752C91.5633 109.685 92.4466 106.302 90.98 104.836C89.3134 103.186 87.7635 104.002 86.4803 103.502C84.9803 102.902 86.2969 101.636 86.0303 100.086C78.114 100.753 75.4809 102.502 74.5309 97.7027Z" fill="#FEC289"/>
<path fill-rule="evenodd" clip-rule="evenodd" d="M51.3988 65.0713C51.4488 61.4548 51.7987 61.8382 50.7488 61.3215C50.0155 61.7382 50.1988 62.1381 49.8655 63.3381C47.4823 71.8376 35.0163 71.9876 30.7332 67.5212C30.2666 67.0379 30.0333 66.5212 29.5666 65.8879C27.2334 62.8048 28.0834 61.0715 27.0001 61.2882C26.2835 61.7048 26.5835 61.3882 26.4001 62.2715L26.8168 79.4538L50.8321 79.5538L51.3988 65.0713Z" fill="#EBCD9A"/>
<path fill-rule="evenodd" clip-rule="evenodd" d="M14.1174 23.257C18.0839 23.357 22.567 23.257 26.5001 23.1736C30.6498 23.0737 34.8829 23.207 39.0494 23.257C47.2156 23.3236 55.7318 22.957 64.1313 23.4236C63.798 23.007 65.2979 23.6736 62.9481 22.4404C62.6814 22.307 61.9481 22.0404 61.6148 21.8737C57.7317 20.1071 55.6151 20.0571 55.3485 16.8407C47.8656 16.0574 39.716 15.2074 31.7831 15.9407C29.7999 16.124 27.9667 16.2074 26.1001 16.424C25.4335 16.4907 23.8336 16.6407 23.3836 16.774C21.9837 17.174 22.6503 17.2906 22.017 18.4906C20.7671 20.8404 15.2007 22.107 14.1174 23.257Z" fill="#B57A37"/>
<path fill-rule="evenodd" clip-rule="evenodd" d="M80.3306 15.824C83.1137 15.1907 86.1136 13.9741 89.1301 13.4075C98.8462 11.5743 109.029 11.8742 118.212 15.224C117.962 14.4241 117.179 13.3908 116.862 12.8908C115.395 10.591 116.812 11.9076 115.279 10.8576C113.779 9.80767 115.312 9.82434 111.179 7.40781C103.846 3.10805 94.5298 3.07472 87.6135 7.72446C87.3469 7.90778 86.6969 8.32443 86.6136 8.39109C85.447 9.29104 84.347 10.091 83.5304 11.1743L82.3638 12.5075C82.1805 12.7742 82.1638 12.8742 81.9471 13.2075C81.2638 14.2408 81.0639 14.0241 80.3306 15.824Z" fill="#B57A37"/>
<path fill-rule="evenodd" clip-rule="evenodd" d="M23.5002 12.7075C25.9334 12.5908 28.3333 12.1742 30.9665 11.9575C34.9163 11.6409 42.4992 11.9075 46.6323 11.9742C49.1155 12.0075 52.0153 12.7408 54.2985 12.7242C53.9486 3.69133 46.6823 3.99131 39.0327 3.77465C36.4162 3.70799 29.9832 4.04132 27.8833 4.84127C25.1502 5.89121 23.6836 9.97431 23.5002 12.7075Z" fill="#B57A37"/>
<path fill-rule="evenodd" clip-rule="evenodd" d="M124.895 116.735L135.461 116.785L135.294 101.236L125.045 102.053L124.895 116.735Z" fill="#FEC286"/>
<path fill-rule="evenodd" clip-rule="evenodd" d="M75.1643 42.7225C74.6976 44.0891 74.2143 44.2391 73.831 46.0557C72.7311 51.3054 73.5643 54.6219 77.0475 58.2717C78.3141 59.6216 86.247 63.0714 88.2469 57.2717C87.6136 56.1718 88.3302 57.3884 87.6802 56.5551L87.3136 56.0718C85.7637 53.9052 85.9137 55.2718 84.7804 53.6219C83.7304 52.072 82.9305 51.3887 82.1305 49.5722C81.7639 48.7222 81.2639 47.9389 80.9473 47.1556C80.314 45.589 80.9139 45.789 79.4974 45.2391C76.1809 43.9558 77.1308 43.8891 75.1643 42.7225Z" fill="#7C5734"/>
<path fill-rule="evenodd" clip-rule="evenodd" d="M118.329 44.7558C116.862 48.2723 115.962 49.7555 113.579 52.9053C110.596 56.8718 111.279 55.7885 111.146 57.4051C111.046 58.3717 112.412 59.9883 113.045 60.5549C115.312 62.5548 121.295 60.5882 123.495 58.905C127.445 55.8718 127.145 47.039 124.145 42.8726C123.278 42.9726 122.328 42.9226 121.562 43.2059C120.862 43.4725 119.128 44.6058 118.329 44.7558Z" fill="#7C5734"/>
<path fill-rule="evenodd" clip-rule="evenodd" d="M46.9656 58.3217C44.5491 59.2716 41.3826 59.8716 38.7494 59.8549C35.2163 59.8383 33.733 58.7717 30.8499 58.1217C31.1665 65.3213 36.7829 68.2211 42.3325 66.1046C45.9657 64.738 46.749 61.9548 46.9656 58.3217Z" fill="#F5B476"/>
<path fill-rule="evenodd" clip-rule="evenodd" d="M102.562 116.718L121.578 116.702C120.961 112.019 121.845 106.502 121.495 101.953C120.895 102.936 120.645 103.869 120.028 104.802C116.612 110.036 117.778 107.669 115.278 110.652C111.595 115.035 103.729 116.085 102.562 116.718Z" fill="#EDA141"/>
<path fill-rule="evenodd" clip-rule="evenodd" d="M22.7838 62.7214C21.9505 62.9214 19.5673 63.8714 18.7173 64.2714C17.8007 64.7213 17.8841 64.338 17.8841 65.9046C17.8841 66.8212 17.9174 67.7712 17.9174 68.6878C17.9507 71.7876 17.6841 76.654 18.0507 79.4872L23.1338 79.4705L22.7838 62.7214Z" fill="#5E8C9E"/>
<path fill-rule="evenodd" clip-rule="evenodd" d="M54.4487 79.5205L59.7984 79.2872L59.8984 64.4713L55.0987 62.8214L54.4487 79.5205Z" fill="#5E8C9E"/>
<path fill-rule="evenodd" clip-rule="evenodd" d="M39.4661 45.2058C34.2497 45.1891 34.4663 43.5392 33.7497 43.5725C32.0331 43.6392 31.3498 45.7224 33.5664 47.1557C33.7664 47.2723 34.083 47.439 34.2997 47.539C36.0662 48.2889 41.9826 49.1555 44.5658 47.3056C45.5157 46.6057 46.0157 45.5391 45.6657 43.9392C43.3825 43.4559 43.0825 45.2058 39.4661 45.2058Z" fill="#4E411E"/>
<path fill-rule="evenodd" clip-rule="evenodd" d="M93.4798 46.6723C94.0297 50.2388 106.812 50.3054 106.529 46.1223C106.446 44.9391 105.762 44.6057 104.812 44.6724C103.313 44.7557 103.779 46.7723 99.7961 46.189C95.7963 46.3556 96.7963 44.9057 95.2963 44.7891C94.1131 44.7057 93.2464 45.0724 93.4798 46.6723Z" fill="#4E411E"/>
<path fill-rule="evenodd" clip-rule="evenodd" d="M63.8482 81.9871C64.4315 80.9538 65.1481 77.704 65.7147 76.1541C66.5314 73.9042 67.5646 72.4376 68.1979 70.921C67.4813 69.6044 64.7814 66.9879 63.3482 66.4546C63.6148 70.471 62.7149 78.7539 63.8482 81.9871Z" fill="#EDD09C"/>
<path fill-rule="evenodd" clip-rule="evenodd" d="M91.7465 99.1693C93.4297 100.653 94.6463 100.169 98.1295 100.153C100.129 100.153 103.679 100.503 102.979 97.8527C102.479 95.9862 98.6794 96.7028 96.7462 96.7528C93.8797 96.8195 91.5965 95.8695 91.7465 99.1693Z" fill="#514121"/>
<path fill-rule="evenodd" clip-rule="evenodd" d="M46.4991 31.1399C44.0492 31.6732 43.6493 38.0728 47.649 37.3396C50.5655 36.8063 50.0156 30.3733 46.4991 31.1399Z" fill="#4E4121"/>
<path fill-rule="evenodd" clip-rule="evenodd" d="M28.7667 31.6898C28.1501 33.7896 28.1834 34.7896 28.7834 36.8561C31.2999 37.6561 33.0498 37.6228 33.0665 34.4229C33.0831 30.6898 31.6165 30.9231 28.7667 31.6898Z" fill="#4E411E"/>
<path fill-rule="evenodd" clip-rule="evenodd" d="M105.562 37.1896C106.046 40.0727 110.562 39.5894 109.962 36.0896C109.462 33.1398 104.946 33.4231 105.562 37.1896Z" fill="#4C3C1D"/>
<path fill-rule="evenodd" clip-rule="evenodd" d="M89.7968 37.1895C90.1634 39.9726 94.5632 39.8226 94.0299 36.1062C93.5965 33.1063 89.2801 33.3563 89.7968 37.1895Z" fill="#4C3C1D"/>
<path fill-rule="evenodd" clip-rule="evenodd" d="M63.5147 31.1399C64.6647 31.1399 65.7146 30.5066 66.6646 29.9899C68.3645 29.0733 67.6478 28.5733 68.2645 26.7068L63.4314 26.9401L63.5147 31.1399Z" fill="#9A6432"/>
<path fill-rule="evenodd" clip-rule="evenodd" d="M57.6152 86.9035C56.432 86.6035 56.5153 86.4201 55.0154 86.5535C54.3654 87.4367 53.9154 87.3701 53.9321 88.77C53.9321 91.2032 56.9319 91.8865 57.8319 89.9866C58.3652 88.9034 57.8152 87.8034 57.6152 86.9035Z" fill="#514121"/>
<path fill-rule="evenodd" clip-rule="evenodd" d="M22.7338 86.5701C18.934 86.2868 19.384 90.3365 21.3005 90.9865C22.5504 91.3865 23.767 90.5699 24.017 89.5699C24.4337 87.9533 23.4337 87.4034 22.7338 86.5701Z" fill="#514121"/>
<path fill-rule="evenodd" clip-rule="evenodd" d="M74.5309 97.7028C75.4808 102.503 78.114 100.753 86.0302 100.086C86.2969 101.636 84.9803 102.903 86.4802 103.502C87.7634 104.002 89.3134 103.186 90.9799 104.836C92.4465 106.302 91.5632 109.685 90.2967 110.752C87.4635 113.102 78.3806 113.219 74.4309 112.769C68.8645 112.119 64.0481 110.802 64.0148 104.919C63.9814 98.6194 68.3145 96.7695 74.5309 97.7028ZM119.878 96.6862C117.012 96.8529 112.545 96.3362 110.229 97.0195C109.162 101.003 111.879 100.303 118.528 100.119C117.795 102.336 115.845 104.386 114.862 106.052C113.695 108.002 114.895 105.652 112.245 108.719L109.629 110.585C106.779 112.469 96.8463 114.352 93.7964 112.185C94.8297 109.352 95.4797 108.452 94.8964 105.036C94.4131 102.336 92.8965 101.319 91.1799 100.169L90.3633 99.586C90.2966 99.536 90.1133 99.4027 90.0467 99.3527C88.4967 98.1528 88.5301 96.7029 86.1469 96.5196C83.6803 96.3529 80.5138 97.6695 78.064 97.2695C77.4973 95.8363 77.2474 94.8196 77.7307 93.2864L120.645 93.3364C120.562 94.4863 120.512 95.7696 119.878 96.6862ZM115.745 89.8699L97.3629 89.9866C95.5297 87.1201 97.1629 78.5539 105.129 80.3371C106.979 80.7538 105.529 80.9037 106.896 81.487C108.996 82.3703 108.029 80.2538 110.679 80.0871C113.362 79.9038 116.412 82.4203 116.462 85.1368C116.495 87.1201 116.045 88.12 115.745 89.8699ZM77.8807 84.1536C80.2472 83.7869 82.0471 84.6202 83.447 85.6201C84.4636 86.3534 84.3636 86.7201 85.0303 87.67L86.5802 90.1199C84.6969 90.0032 80.8972 90.8365 79.8972 89.17C79.3139 88.2033 78.0973 85.1369 77.8807 84.1536ZM93.6631 90.0366L90.6133 90.0532C90.1133 89.3699 89.5134 87.8867 88.0301 85.7701C87.5468 85.0702 87.8968 85.4368 87.2635 84.8535C86.8635 84.4702 86.8302 84.4869 86.4135 84.0369C85.7469 83.3203 85.2802 82.8536 84.5969 82.237C85.2136 81.787 88.2634 77.7872 92.5132 80.7371C95.6297 82.887 92.4298 83.7703 93.6631 90.0366ZM55.0986 62.8214L59.8983 64.4713L59.7983 79.2872L54.4486 79.5205L55.0986 62.8214ZM81.2971 80.5871C78.164 80.8537 77.514 80.2204 74.2975 81.587C73.8142 83.8536 73.8976 83.7369 74.7642 85.9201C75.2141 87.0867 75.7141 88.6533 76.3307 89.6033C75.7974 90.1032 76.6141 89.5199 75.7641 89.8533C75.4308 89.9866 75.4975 89.9032 75.1808 90.0699C73.9975 90.7699 74.2142 92.7864 74.2475 94.103C70.4644 93.403 67.5812 94.353 64.6981 95.7696C66.9146 86.6367 66.9979 79.6038 72.0643 72.1709C72.3143 71.7876 72.331 71.6543 72.631 71.3209L76.864 67.5045C79.6639 65.7879 80.1805 65.6379 83.3637 64.3713L83.8303 64.8546C85.7302 66.5379 84.8636 65.8546 86.6802 68.4378L88.2634 70.471C89.53 72.0876 92.6632 74.1041 94.7964 74.8374C99.8128 76.604 99.0795 74.4541 100.429 76.7706C98.7128 77.6539 97.2296 77.9039 96.1797 79.1872C92.9132 75.0207 86.7968 74.9707 82.5471 79.0372C81.5805 79.9705 81.9804 79.4705 81.2971 80.5871ZM63.8481 81.987C62.7148 78.7539 63.6148 70.471 63.3481 66.4545C64.7814 66.9878 67.4812 69.6044 68.1979 70.921C67.5646 72.4375 66.5313 73.9041 65.7147 76.154C65.148 77.7039 64.4314 80.9538 63.8481 81.987ZM109.646 71.6543L110.412 70.6543C110.746 70.3377 110.895 70.2877 111.295 69.8544L115.412 63.788C120.178 65.6379 119.728 64.738 124.778 67.9878C126.778 69.2711 129.944 72.8875 131.011 75.1041C133.328 79.8705 135.044 92.1364 135.111 97.6195L125.045 98.4028C125.161 95.0529 125.295 84.8869 123.628 82.3537L121.345 82.4203C120.612 84.3869 120.895 87.5034 121.245 89.8033L119.545 89.8366C120.595 84.8369 120.028 79.7038 115.262 77.1873C113.929 76.4873 111.829 76.2707 110.229 76.1707C111.962 73.7208 114.462 73.7208 117.862 72.7875C119.528 66.7212 112.045 70.471 109.646 71.6543ZM22.7837 62.7214L23.1337 79.4705L18.0506 79.4872C17.684 76.654 17.9507 71.7876 17.9173 68.6878C17.9173 67.7711 17.884 66.8212 17.884 65.9046C17.884 64.338 17.8007 64.7213 18.7173 64.2713C19.5672 63.8714 21.9504 62.9214 22.7837 62.7214ZM50.8322 79.5538L26.8168 79.4538L26.4002 62.2715C26.5835 61.3882 26.2835 61.7048 27.0001 61.2882C28.0834 61.0715 27.2335 62.8047 29.5667 65.8879C30.0333 66.5212 30.2666 67.0378 30.7333 67.5211C35.0164 71.9876 47.4823 71.8376 49.8655 63.3381C50.1989 62.1381 50.0155 61.7381 50.7488 61.3215C51.7988 61.8381 51.4488 61.4548 51.3988 65.0713L50.8322 79.5538ZM106.779 68.9544C105.246 68.3044 103.446 66.1212 101.763 66.9045C100.346 67.5545 99.4128 70.2043 99.3628 71.8043C91.7965 71.6709 88.5134 64.538 88.5634 64.2547C88.6301 63.688 91.2466 61.6215 91.5799 59.105C95.813 60.8715 99.5461 62.0215 104.563 60.3882C105.712 60.0216 107.629 59.055 108.429 58.8883C109.212 61.2715 109.396 61.3548 111.629 62.5548C111.162 63.838 110.279 65.4713 109.662 66.2879L106.779 68.9544ZM30.8499 58.1217C33.7331 58.7716 35.2164 59.8382 38.7495 59.8549C41.3827 59.8716 44.5492 59.2716 46.9657 58.3217C46.7491 61.9548 45.9658 64.738 42.3326 66.1046C36.7829 68.2211 31.1666 65.3213 30.8499 58.1217ZM119.062 44.7557C119.862 44.6058 120.862 44.4558 121.562 44.1891C122.328 43.9058 122.878 43.3725 123.745 43.2892C126.745 47.4556 126.295 55.8718 122.345 58.905C120.145 60.5882 115.312 61.0882 113.045 59.0883C112.412 58.5217 111.745 57.6717 111.829 56.7051C111.979 55.0885 111.995 56.8717 114.962 52.9053C117.345 49.7555 117.595 48.2722 119.062 44.7557ZM75.1642 42.7225C77.1307 43.8891 76.1807 43.9558 79.4972 45.2391C80.9138 45.789 80.3139 45.589 80.9472 47.1556C81.2638 47.9389 81.7638 48.7222 82.1304 49.5721C82.9304 51.3887 83.7303 52.072 84.7803 53.6219C85.9135 55.2718 85.7636 53.9052 87.3135 56.0718L87.6801 56.5551C88.3301 57.3884 87.6134 56.1718 88.2467 57.2717C86.2469 63.0714 78.314 59.6216 77.0474 58.2717C73.5642 54.6219 72.7309 51.3054 73.8309 46.0557C74.2142 44.2391 74.6975 44.0891 75.1642 42.7225ZM55.9152 39.1894C54.0653 41.2893 55.0319 44.9891 52.832 48.4889C47.699 56.6551 35.733 58.205 27.1668 51.2887C25.8502 50.2221 26.1502 50.1388 25.3169 48.9722C24.667 48.0722 24.267 47.5223 23.817 46.3057C22.9337 43.9725 23.0504 41.3393 22.2004 39.3061C18.9839 38.6894 19.5839 39.7227 18.9673 40.406C16.2674 40.1227 15.8508 37.7561 16.3341 35.0563C17.7673 34.0897 21.0505 34.523 22.3671 33.3564C23.517 32.3064 23.517 28.4567 23.7003 26.7734L54.432 26.7401C54.4653 34.673 54.832 33.4397 61.3649 34.6396C61.3149 36.6062 61.9815 38.5394 60.4983 39.7227C57.8651 41.8226 58.9151 38.9227 55.9152 39.1894ZM82.8971 33.0397C85.7302 32.1065 88.2801 30.9565 90.6133 29.4233C91.2799 28.99 91.7466 28.7233 92.2965 28.29C94.6297 26.4901 95.9797 24.9235 97.0129 24.0569C97.7962 24.4902 98.1462 24.8735 98.9795 25.4902C102.096 27.79 107.262 30.2566 110.946 31.6565C112.179 32.1231 115.529 32.9397 116.345 33.473C117.445 39.1061 114.979 47.2556 111.495 51.1054C111.029 51.6387 110.845 51.9387 110.329 52.4553C104.979 57.7217 98.5628 58.6216 91.8965 54.8552L87.8301 51.4054C87.5635 51.0887 87.5301 50.9221 87.2801 50.5554C83.597 45.2391 82.7304 40.2227 82.8971 33.0397ZM65.048 34.5896L68.3312 33.3064C68.5978 33.6897 69.5811 36.0729 71.4477 38.2561C73.1809 40.2893 72.281 40.0393 70.7811 43.8891C70.2478 45.2557 69.8478 46.7556 69.6978 48.3555C69.3978 51.6054 70.1311 55.0218 71.5643 57.5884C72.3976 59.055 73.0476 59.7383 74.1309 60.6715C75.3808 61.7548 76.3641 62.0215 77.5307 62.8381C76.2808 63.5047 74.9975 64.3213 73.9309 65.1046C73.2476 65.6046 72.7976 65.8879 72.3143 66.2879C71.6643 66.8212 71.4477 67.2878 70.9144 67.8378C69.9644 67.3378 69.9144 66.7545 69.0811 65.9712C64.3314 61.4215 56.6152 59.3716 50.4655 57.3384L50.2822 55.9385C50.9322 55.3718 50.9322 55.4718 51.5655 55.0385C52.1654 54.6385 52.5821 54.3052 52.9987 53.9552C57.0485 50.6221 57.0985 46.7056 58.2484 44.3558C64.2814 43.3225 65.2814 40.8893 65.048 34.5896ZM63.5148 31.1398L63.4315 26.9401L68.2645 26.7067C67.6479 28.5733 68.3645 29.0733 66.6646 29.9899C65.7147 30.5065 64.6647 31.1398 63.5148 31.1398ZM14.1175 23.2569C15.2008 22.107 20.7672 20.8404 22.0171 18.4905C22.6504 17.2906 21.9838 17.1739 23.3837 16.774C23.8337 16.6406 25.4336 16.4907 26.1002 16.424C27.9668 16.2073 29.8 16.124 31.7832 15.9407C39.7161 15.2074 47.8657 16.0573 55.3486 16.8406C55.6152 20.0571 57.7318 20.1071 61.6149 21.8737C61.9482 22.0403 62.6815 22.307 62.9482 22.4403C65.298 23.6736 63.7981 23.007 64.1314 23.4236C55.7319 22.957 47.2157 23.3236 39.0495 23.2569C34.883 23.2069 30.65 23.0736 26.5002 23.1736C22.5671 23.2569 18.084 23.3569 14.1175 23.2569ZM95.5297 19.6071C95.1464 20.1404 95.1797 20.2738 94.7131 20.9571C92.9965 23.4569 88.1634 26.8734 85.4136 28.1067C83.047 29.1566 80.5805 29.4899 78.514 30.4065C77.0474 31.0732 75.6308 31.9065 74.6475 33.4897C74.3642 33.9397 74.2809 34.473 73.5976 35.0396C70.9311 32.1064 70.8644 29.2066 72.8476 25.8401C73.5476 24.6735 73.2642 25.1235 74.3142 24.2569C74.5975 24.0402 74.9475 23.6903 75.1808 23.4403C80.3972 17.9072 95.163 15.9407 102.313 16.3073C111.829 16.7906 117.245 18.2572 124.495 23.107C126.111 24.1902 128.178 26.4568 129.111 28.2567C130.011 29.9732 130.094 31.4898 129.378 33.2897C129.011 34.1897 128.578 34.7563 128.145 35.4229C127.578 36.2729 127.628 36.4729 126.561 37.1395C126.528 37.0728 126.495 36.9229 126.478 36.9562L125.728 34.973C124.728 32.7397 124.311 32.5564 122.961 31.6065C118.645 28.5733 114.962 29.9232 107.129 25.9901C106.396 25.6235 105.596 25.2902 105.029 25.0068L100.646 22.1403C97.4296 19.8905 98.5962 19.2405 95.5297 19.6071ZM80.3305 15.824C81.0638 14.0241 81.2638 14.2408 81.9471 13.2075C82.1638 12.8742 82.1804 12.7742 82.3637 12.5075L83.5303 11.1743C84.347 10.091 85.4469 9.29105 86.6135 8.3911C86.6968 8.32444 87.3468 7.90779 87.6135 7.72447C94.5297 3.07473 103.846 3.10806 111.179 7.40782C115.312 9.82435 113.779 9.80768 115.279 10.8576C116.812 11.9076 115.395 10.591 116.862 12.8908C117.178 13.3908 117.962 14.4241 118.212 15.2241C109.029 11.8742 98.8462 11.5743 89.13 13.4075C86.1135 13.9741 83.1137 15.1907 80.3305 15.824ZM23.5003 12.7075C23.6837 9.97434 25.1503 5.89125 27.8834 4.8413C29.9833 4.04135 36.4163 3.70802 39.0328 3.77469C46.6824 3.99134 53.9487 3.69136 54.2986 12.7242C52.0154 12.7409 49.1156 12.0076 46.6324 11.9742C42.4993 11.9076 34.9164 11.6409 30.9666 11.9576C28.3334 12.1742 25.9335 12.5909 23.5003 12.7075ZM3.56812 116.618L4.03476 102.003C4.01809 96.4029 5.55134 80.1704 7.26791 75.1041C8.71783 70.821 11.0177 68.8877 14.3509 66.6045C14.1842 70.421 14.7842 76.4207 14.2342 79.8371C13.9675 81.537 13.4509 83.3703 13.1676 85.1702C12.8009 87.32 12.6676 89.0533 12.451 91.2865C12.151 94.5863 12.251 113.835 12.7343 116.902C14.8342 117.485 13.6176 118.085 15.9674 116.752C16.8674 111.635 14.7675 89.6533 17.0674 83.2869L60.515 83.2703C61.1149 85.3535 61.4816 88.8866 61.7315 91.2698C62.0315 94.3197 59.3983 103.969 60.7483 108.336C61.2649 110.019 61.7149 110.169 61.7816 112.169C61.8316 113.685 61.7149 115.318 61.8316 116.735C65.0814 118.335 64.9314 116.985 65.3314 114.002C71.131 117.385 81.6971 117.102 88.7301 115.335C90.6966 114.835 90.8966 115.335 92.8132 115.852C96.6796 116.885 98.8462 116.418 102.563 116.718C103.729 116.085 111.595 115.035 115.279 110.652C117.778 107.669 116.612 110.035 120.028 104.802C120.645 103.869 120.895 102.936 121.495 101.953C121.845 106.502 120.962 112.019 121.578 116.702C123.195 117.935 123.161 117.802 124.895 116.735L125.045 102.053L135.294 101.236L135.461 116.785C136.394 117.468 136.411 117.702 137.827 117.385C139.244 116.402 138.911 115.568 138.894 113.569C138.894 112.085 138.894 110.602 138.894 109.119C138.877 97.7361 138.777 80.1871 132.611 70.7543C129.211 65.5713 123.578 63.2214 122.945 62.5214C125.861 61.3548 128.261 57.955 129.094 53.9052C130.111 48.9722 128.928 45.5724 127.095 41.6559L127.678 41.1059C132.628 36.9062 135.677 31.2398 131.528 25.0068C129.628 22.157 129.678 22.8236 128.645 21.7404C128.128 21.1904 128.328 21.2237 127.728 20.7071C127.078 20.1571 126.111 19.4738 125.278 18.9405C124.261 18.2906 123.761 18.2905 123.228 16.874C121.995 13.6908 119.062 8.70775 116.579 6.77452C115.029 5.55792 113.845 4.49132 111.845 3.39138C100.013 -3.07493 84.0803 0.858185 77.564 13.0242C76.2974 15.3907 75.8641 17.8906 74.8642 18.6405C74.0142 19.2905 73.2809 19.6738 72.4976 20.4738C71.7477 21.2237 71.1477 21.6737 70.5977 22.4403C69.5478 22.0403 68.8145 21.457 67.8312 20.9404C57.9318 15.7407 59.6983 19.0405 57.6818 10.2243C55.7486 1.74147 51.5155 0.891522 43.1992 0.191561C39.0995 -0.158419 31.4499 -0.0917652 27.6168 0.924845C23.5837 2.00812 21.1505 5.3746 20.0839 9.90768C19.7839 11.1076 18.8006 15.774 18.4006 16.574C17.884 17.6239 10.2178 20.5404 7.58457 22.157C5.85133 23.2236 3.78477 24.1236 3.81811 26.5901C3.90143 31.0232 10.3344 33.223 12.6843 34.2563C12.001 40.1227 13.6842 43.8225 19.4506 44.2558C20.1505 47.3056 21.0005 49.8221 22.6004 51.672C26.9002 56.6384 27.6668 54.8052 27.4668 57.1384C25.2169 58.1383 21.9671 59.005 19.4839 59.9716C11.3844 63.1047 5.21803 67.1712 3.06815 76.254C1.88489 81.2871 -1.11495 113.802 0.434963 116.735C1.0016 117.602 2.36818 118.052 3.56812 116.618Z" fill="#4E4121"/>
</svg>
