<svg width="24" height="24" viewBox="0 0 24 24" fill="none" xmlns="http://www.w3.org/2000/svg">
<path d="M19.7969 13.4022C17.7589 12.4222 14.4799 11.7982 11.4969 11.7982C9.66895 11.7982 8.54595 8.63519 8.23295 6.56319L9.41495 4.55619C9.67996 4.10622 10.0578 3.73322 10.5112 3.47407C10.9646 3.21493 11.4777 3.07861 11.9999 3.07861C12.5222 3.07861 13.0353 3.21493 13.4887 3.47407C13.9421 3.73322 14.3199 4.10622 14.5849 4.55619L19.7969 13.4022ZM21.4699 16.2412L21.6099 16.4772C21.8785 16.9329 22.0218 17.4516 22.0252 17.9806C22.0287 18.5095 21.8922 19.03 21.6297 19.4892C21.3671 19.9484 20.9878 20.3301 20.5302 20.5954C20.0726 20.8608 19.5529 21.0004 19.0239 21.0002H4.97495C4.44605 21.0002 3.92654 20.8605 3.46907 20.5951C3.0116 20.3296 2.63243 19.948 2.36999 19.4888C2.10755 19.0296 1.97117 18.5092 1.97468 17.9803C1.97818 17.4514 2.12145 16.9329 2.38995 16.4772L6.90695 8.81319C7.32395 11.5732 9.05095 13.7982 11.4969 13.7982C14.2439 13.7982 18.2069 14.3342 21.4699 16.2412Z" fill="#21272A"/>
</svg>
