<svg width="24" height="24" viewBox="0 0 24 24" fill="none" xmlns="http://www.w3.org/2000/svg">
<path fill-rule="evenodd" clip-rule="evenodd" d="M16.9824 7.67574C17.2996 7.94216 17.3407 8.41525 17.0743 8.73241L10.7743 16.2324C10.6347 16.3986 10.4299 16.4962 10.2128 16.4999C9.99576 16.5036 9.78776 16.4131 9.64254 16.2517L6.94254 13.2517C6.66544 12.9439 6.6904 12.4696 6.99828 12.1925C7.30617 11.9155 7.78038 11.9404 8.05748 12.2483L10.1805 14.6072L15.9257 7.76762C16.1921 7.45046 16.6652 7.40932 16.9824 7.67574Z" fill="#21272A"/>
<path fill-rule="evenodd" clip-rule="evenodd" d="M5.25 3.75C4.42157 3.75 3.75 4.42157 3.75 5.25V18.75C3.75 19.5784 4.42157 20.25 5.25 20.25H18.75C19.5784 20.25 20.25 19.5784 20.25 18.75V5.25C20.25 4.42157 19.5784 3.75 18.75 3.75H5.25ZM2.25 5.25C2.25 3.59315 3.59315 2.25 5.25 2.25H18.75C20.4069 2.25 21.75 3.59315 21.75 5.25V18.75C21.75 20.4069 20.4069 21.75 18.75 21.75H5.25C3.59315 21.75 2.25 20.4069 2.25 18.75V5.25Z" fill="#21272A"/>
</svg>
