<svg width="113" height="116" viewBox="0 0 113 116" fill="none" xmlns="http://www.w3.org/2000/svg">
<path fill-rule="evenodd" clip-rule="evenodd" d="M88.2361 92.9172C90.8193 92.3839 92.7026 89.9674 95.0191 92.6839C96.469 93.2339 96.0191 93.5506 98.1523 93.6339L98.5522 92.5506C101.519 91.8173 104.652 92.184 107.218 88.4008C110.768 83.1678 107.785 77.2348 103.235 75.9849C99.2855 74.9016 101.635 72.9184 99.4189 70.3352C99.2189 70.1019 99.1855 70.1185 99.0022 69.9185C94.8358 65.5021 88.5361 67.5687 86.5529 71.0851C86.2029 71.7184 85.9196 72.8184 85.703 73.6017C84.8197 76.8015 85.0197 75.2349 82.1698 76.4515C75.8868 79.1014 76.3868 85.5177 79.07 89.0008C79.62 89.7008 81.5532 91.0007 82.9864 91.5173C83.8531 91.834 84.753 92.0673 85.6696 92.2006C87.4529 92.4839 86.8029 92.3673 88.2361 92.9172Z" fill="#9CC242"/>
<path fill-rule="evenodd" clip-rule="evenodd" d="M79.7033 74.1517C85.0363 73.8017 86.0196 67.1521 88.3361 65.6355C83.4197 59.8691 78.4367 53.4862 72.8036 47.8865C71.637 48.6031 66.2873 55.9527 66.2707 56.0693C66.2207 58.0026 77.6867 70.7852 79.7033 74.1517Z" fill="#6D9E32"/>
<path fill-rule="evenodd" clip-rule="evenodd" d="M23.1399 57.9692C23.2566 60.8191 27.573 61.3857 32.4894 59.0192C37.9557 56.386 31.7561 49.7697 42.0222 64.6522C49.2884 60.0524 59.7045 73.8183 69.9873 64.0355C62.3544 57.2193 46.8719 34.7372 43.3054 32.8373C39.7723 35.3371 27.573 52.8028 23.1399 57.9692Z" fill="#7DAE39"/>
<path fill-rule="evenodd" clip-rule="evenodd" d="M77.4035 22.3712C74.487 23.0045 73.5537 21.7879 70.0205 23.5878C66.6041 25.3544 64.3708 29.2041 65.9374 33.8206C66.8207 36.4204 69.5539 38.9203 72.3204 39.4036C75.0036 39.8702 91.7693 39.4703 96.2357 39.5702C100.469 39.6536 104.752 39.7536 106.885 35.3705C108.118 32.8206 107.352 29.4708 105.969 28.1042C101.535 23.7211 101.235 26.2043 97.169 24.8877C96.5357 22.3545 96.7857 17.5215 92.3693 14.655C88.1029 11.9051 80.9866 13.205 78.6201 18.2714C78.0201 19.538 77.8034 21.1213 77.4035 22.3712Z" fill="#A8E5ED"/>
<path fill-rule="evenodd" clip-rule="evenodd" d="M23.4732 58.0858C20.4233 60.1024 8.99062 74.5016 5.82413 78.3014C2.80763 81.9178 3.20761 83.5511 0.474429 82.4678L0.457764 93.0006C3.59092 92.0173 7.62403 92.8672 11.1572 92.4506C10.9072 81.1845 26.373 79.7513 29.2562 88.1008C29.7895 89.6674 29.7561 90.7673 29.9895 92.4006C31.1727 92.7506 36.8724 93.1339 38.439 93.2005C48.5718 93.6672 67.0207 97.717 76.2869 101.55C80.3033 103.217 78.8201 103.117 83.1365 102.233C85.5864 101.75 88.9695 101.533 91.3027 100.833C91.486 99.6169 91.5027 91.8673 90.8027 91.2507C90.1028 92.2006 89.5028 92.6506 88.2362 92.9172C90.0028 97.867 80.7866 96.567 75.9036 90.784C74.1537 88.7341 73.3371 85.5676 73.4704 82.7511C73.6537 78.968 75.5203 77.5181 76.8202 75.1849C75.4869 71.2018 69.4206 65.7854 67.804 63.1356C67.654 62.8689 67.554 62.7022 67.2541 63.2855C64.1876 70.6018 57.8712 63.1355 53.8548 60.419C50.1217 57.8692 49.5884 59.2024 45.7886 61.819C44.3053 62.8189 43.4387 62.6689 42.5054 63.2522L36.2058 54.1194C36.1558 53.9694 35.1225 53.6361 33.9892 54.186C29.0728 56.5526 28.2562 59.4691 23.4732 58.0858Z" fill="#6B9C2F"/>
<path fill-rule="evenodd" clip-rule="evenodd" d="M67.6706 56.8859C67.4206 56.4692 67.354 56.2193 67.354 56.0526C67.3706 55.6693 72.087 50.4196 72.887 49.103C77.6534 54.3694 83.0531 59.969 87.2195 65.6354C84.5197 66.9353 82.7698 69.6185 82.2531 72.5183L80.0699 73.085C75.7202 67.6686 71.9037 62.4689 67.6706 56.8859ZM0.224365 80.7845C0.257697 82.1011 0.474351 83.1511 0.457686 84.6677L0.491017 95.6671C2.79089 96.517 10.2738 96.7003 12.907 96.2837C16.8568 95.6671 13.1403 90.2507 16.7568 87.7008C18.0067 86.8009 19.7899 86.3176 21.6398 86.5009C22.8064 86.6176 23.8564 87.0342 24.5897 87.7342C29.0894 92.0173 22.2898 95.8004 30.456 96.4337C38.7222 97.067 45.3885 97.9503 53.2881 99.1835C56.0546 99.6169 71.6871 103.3 73.3203 104.683C70.9871 105.633 67.7039 106.266 64.9208 107.433C54.2047 111.983 59.2211 111.333 48.8717 108.066C46.1718 107.216 43.072 106.333 40.3388 105.717C25.573 102.417 18.84 102.417 4.52413 102.5C0.424354 102.517 1.72428 102.617 0.407688 103.383C-0.158947 107.283 3.14087 106.283 6.1907 106.233C15.5902 106.066 20.6399 106.3 30.056 107.65C33.7892 108.166 54.288 112.649 56.0379 115.149L57.8712 115.099C60.021 112.333 79.02 107.1 81.8198 106.483C86.4862 105.45 91.1693 104.95 95.9524 104.55C100.585 104.15 106.652 104.2 111.635 104.05C113.501 100.117 109.435 100.383 106.218 100.533C105.252 99.8668 106.202 100.917 105.852 99.9335C105.635 99.3335 105.619 95.6171 105.902 95.0671V100.567C102.902 100.417 97.8023 100.367 94.9858 100.817L95.0191 92.6839C94.9691 90.6673 94.6691 90.734 95.8524 89.5841L101.652 84.501C101.952 84.201 102.185 84.0677 102.535 83.6177C102.669 82.3011 102.285 81.9345 101.552 81.1512C100.319 80.5179 98.5689 82.2178 97.7523 82.8511C96.3357 83.9677 97.069 84.3677 94.8858 85.4176C95.1024 83.5344 95.1358 80.7012 95.0691 78.7847C95.0024 76.9681 94.2525 76.2848 93.0525 76.2515C91.3526 76.2015 91.536 76.6181 91.3193 78.1014C90.986 80.4346 91.0193 82.5345 91.0693 85.251C89.9361 84.751 90.1027 84.301 88.4195 82.4678C87.1029 81.0179 86.4529 80.3012 84.7863 81.5178C83.9031 82.4511 84.3197 83.7177 85.3363 84.701C86.7362 86.2676 90.3694 89.6341 90.8027 91.2506C91.5026 91.8673 91.486 99.6168 91.3026 100.833C88.9694 101.533 85.5863 101.75 83.1364 102.233C78.82 103.117 80.3033 103.217 76.2868 101.55C67.0207 97.717 48.5717 93.6672 38.4389 93.2005C36.8723 93.1339 31.1726 92.7506 29.9894 92.4006C29.7561 90.7673 29.7894 89.6674 29.2561 88.1008C26.3729 79.7513 10.9071 81.1845 11.1571 92.4506C7.62395 92.8672 3.59084 92.0173 0.457686 93.0005L0.474351 82.4678C3.20753 83.5511 3.62418 82.3178 6.64068 78.6847C16.6401 66.702 36.4057 44.5032 43.3053 33.6872C46.4551 35.3871 69.1705 65.1021 75.6868 73.7183C76.1368 74.3682 76.3868 74.5849 76.8201 75.1849C75.5202 77.5181 73.6536 78.968 73.4703 82.7511C73.337 85.5676 74.1536 88.7341 75.9035 90.784C80.7866 96.567 90.0027 97.8669 88.2361 92.9172C86.8029 92.3672 87.4529 92.4839 85.6696 92.2006C84.753 92.0673 83.8531 91.8339 82.9864 91.5173C81.5532 91.0007 79.62 89.7007 79.07 89.0008C76.3868 85.5176 75.8868 79.1013 82.1698 76.4515C85.0197 75.2349 84.8197 76.8014 85.703 73.6016C85.9196 72.8183 86.2029 71.7184 86.5529 71.0851C88.5361 67.5686 94.8358 65.5021 99.0022 69.9185C99.1855 70.1185 99.2189 70.1018 99.4189 70.3351C101.635 72.9183 99.2855 74.9015 103.235 75.9848C107.785 77.2348 110.768 83.1678 107.218 88.4008C104.652 92.1839 101.519 91.8173 98.5522 92.5506L98.1523 93.6338C97.9689 95.9837 99.5522 96.3503 101.719 95.9837C103.202 95.7337 105.002 95.1171 106.235 94.2505C111.868 91.8173 116.718 79.7179 106.485 73.285C105.569 72.7017 104.719 72.685 104.269 71.9017C102.502 68.9019 102.102 63.1522 90.636 63.8522C90.136 62.6522 89.986 62.8355 89.1861 61.9189L75.4202 46.1031C73.9203 44.9865 71.8704 45.1532 70.4205 46.0198C69.7872 46.4031 65.5707 52.0361 64.7374 53.1861C62.1709 50.0196 51.2049 37.4036 50.0049 35.0704C49.155 33.9871 47.9884 32.8539 47.0884 31.8039C45.8385 30.354 45.2219 30.004 42.6553 30.2207C40.4888 30.654 0.890995 79.068 0.224365 80.7845Z" fill="#32521A"/>
<path fill-rule="evenodd" clip-rule="evenodd" d="M56.038 115.149C54.2881 112.649 33.7892 108.166 30.0561 107.65C20.64 106.3 15.5903 106.066 6.19078 106.233C3.14095 106.283 -0.158867 107.283 0.407768 103.383C1.72436 102.617 0.424434 102.517 4.52421 102.5C18.8401 102.417 25.573 102.417 40.3389 105.717C43.0721 106.333 46.1719 107.216 48.8717 108.066C59.2212 111.333 54.2048 111.983 64.9209 107.433C67.704 106.266 70.9872 105.633 73.3204 104.683C71.6871 103.3 56.0547 99.6168 53.2882 99.1835C45.3886 97.9503 38.7223 97.067 30.4561 96.4337C22.2899 95.8004 29.0895 92.0173 24.5898 87.7342C23.8565 87.0342 22.8065 86.6176 21.6399 86.5009C19.79 86.3176 18.0068 86.8009 16.7569 87.7008C13.1404 90.2507 16.8569 95.6671 12.9071 96.2837C10.2739 96.7003 2.79097 96.517 0.491097 95.6671L0.457765 84.6677C0.474431 83.1511 0.257776 82.1011 0.224445 80.7845C-0.0922041 82.4678 0.157782 89.6007 0.174448 91.9173C0.391102 116.983 -2.79205 115.266 10.9405 115.233C14.6736 115.233 53.5715 115.466 56.038 115.149Z" fill="#A9C946"/>
<path fill-rule="evenodd" clip-rule="evenodd" d="M57.8713 115.099C62.3544 115.533 84.0532 115.216 90.3862 115.216C113.968 115.233 111.935 117.383 111.635 104.05C106.652 104.2 100.586 104.15 95.9526 104.55C91.1695 104.95 86.4864 105.45 81.82 106.483C79.0202 107.1 60.0212 112.333 57.8713 115.099Z" fill="#86A82E"/>
<path fill-rule="evenodd" clip-rule="evenodd" d="M77.4035 22.3711C77.8034 21.1212 78.0201 19.538 78.6201 18.2714C80.9866 13.205 88.1029 11.9051 92.3693 14.6549C96.7857 17.5214 96.5357 22.3545 97.169 24.8877C101.235 26.2043 101.535 23.7211 105.969 28.1042C107.352 29.4707 108.118 32.8206 106.885 35.3704C104.752 39.7535 100.469 39.6535 96.2357 39.5702C91.7693 39.4702 75.0036 39.8702 72.3204 39.4035C69.5539 38.9202 66.8207 36.4204 65.9374 33.8205C64.3708 29.2041 66.6041 25.3543 70.0205 23.5877C73.5537 21.7878 74.487 23.0044 77.4035 22.3711ZM74.6536 18.0547C74.5203 19.338 74.5869 18.988 73.1204 19.1213C72.1704 19.2213 71.6204 19.288 70.7205 19.538C68.9873 20.0213 68.2873 20.6379 67.004 21.1545C66.1707 22.0545 65.6874 22.1878 64.7708 23.3878C64.2542 24.0711 63.5542 25.271 63.0209 25.8543L62.1376 29.8041C61.4043 36.9703 66.4541 41.8201 72.5704 42.8533C75.4869 43.3533 91.686 43.1033 95.9524 43.1033C102.519 43.1033 109.568 42.0867 110.752 34.2205C111.818 27.2209 106.818 22.0378 100.286 21.7545C99.7189 20.2879 99.7355 18.9547 98.9856 17.2881C95.6191 9.68852 86.7696 7.88861 79.8033 11.9051C76.2702 13.9383 75.2369 17.4381 74.6536 18.0547Z" fill="#74CBDA"/>
<path fill-rule="evenodd" clip-rule="evenodd" d="M42.6554 30.2207C45.2219 30.004 45.8385 30.354 47.0884 31.8039C47.7384 32.5539 47.9217 32.5872 48.5384 33.4205C49.155 34.2871 49.405 34.3038 50.0049 35.0704L50.2383 34.4038C54.3714 34.4371 57.6879 31.7706 58.9711 27.8875C60.2877 23.9377 58.6878 19.1046 55.038 17.1214C51.0882 14.9882 46.4551 15.7048 44.0219 18.5047C39.3222 23.9044 42.472 28.0875 42.6554 30.2207Z" fill="#FFD750"/>
<path fill-rule="evenodd" clip-rule="evenodd" d="M39.889 32.1039C41.0723 31.4706 41.3389 30.4874 42.6555 30.2207C42.4722 28.0875 39.3224 23.9044 44.0221 18.5047C46.4553 15.7049 51.0884 14.9882 55.0382 17.1214C58.688 19.1047 60.2879 23.9377 58.9713 27.8875C57.688 31.7706 54.3715 34.4371 50.2384 34.4038L50.0051 35.0704C50.5384 36.1204 50.3551 35.6037 51.1051 36.4037C51.7717 37.1037 51.6884 37.3703 52.405 37.9369C54.8382 37.4036 57.1381 36.287 58.4713 34.9205C59.1213 34.2372 60.0046 33.5039 60.6379 32.6039C61.3712 31.5706 61.6545 30.904 62.1378 29.8041L63.0211 25.8543C64.071 17.2548 55.4381 9.88851 46.6053 12.705C42.8222 13.905 39.9557 16.7548 38.5891 20.0879C36.9058 24.1877 37.5558 29.2374 39.889 32.1039Z" fill="#FEB639"/>
<path fill-rule="evenodd" clip-rule="evenodd" d="M106.219 100.534L106.235 94.2505C105.002 95.1172 103.202 95.7338 101.719 95.9838C99.5523 96.3504 97.969 95.9838 98.1523 93.6339C96.0191 93.5506 96.4691 93.2339 95.0192 92.684L94.9858 100.817C97.769 100.367 102.752 100.417 105.785 100.567C105.852 100.567 106.185 100.584 106.219 100.534Z" fill="#6D9E32"/>
<path fill-rule="evenodd" clip-rule="evenodd" d="M34.3558 6.3387C34.3891 7.32198 36.9223 9.90517 37.6222 10.8551C40.0388 14.2049 41.8054 12.1384 41.672 10.5385C41.622 9.95516 37.9389 4.18881 36.0557 4.35547C35.1057 4.4388 34.3224 5.28876 34.3558 6.3387Z" fill="#FDB535"/>
<path fill-rule="evenodd" clip-rule="evenodd" d="M32.2892 33.0206C34.7057 32.154 35.5224 31.9707 35.0391 29.8208C34.5224 27.4709 30.706 29.5708 29.3227 29.9875C27.0062 30.6874 26.1729 30.8707 26.3729 32.6206C26.7229 35.4871 30.5726 33.6206 32.2892 33.0206Z" fill="#FDB535"/>
<path fill-rule="evenodd" clip-rule="evenodd" d="M59.1711 11.6885C61.6043 13.5384 61.7877 12.6884 63.8542 9.90526C65.0708 8.27202 66.5541 7.43873 66.2041 5.67216C66.0374 4.80554 66.1207 4.73888 65.2041 4.53889C63.3376 4.10558 62.6543 5.47217 61.5877 6.8221C59.8544 9.05531 58.9045 9.47195 59.1711 11.6885Z" fill="#FDB535"/>
<path fill-rule="evenodd" clip-rule="evenodd" d="M32.2893 17.2881C30.7894 16.8048 28.3228 15.5215 26.9729 16.5048C26.2396 17.0381 25.9563 18.0547 26.6563 19.0214C27.1729 19.7547 28.1728 19.9046 29.1395 20.2213C30.6727 20.7379 34.4392 22.7211 35.0891 20.2546C35.5724 18.4214 34.4725 17.9881 32.2893 17.2881Z" fill="#FDB535"/>
<path fill-rule="evenodd" clip-rule="evenodd" d="M51.2883 0.389054C50.1384 -0.244244 48.8718 -0.277579 48.5884 1.62232C48.5051 2.30561 48.5051 7.372 48.6551 7.90531C49.1717 9.70521 51.9216 9.87186 52.2382 7.45532C52.4716 5.72209 52.9882 1.289 51.2883 0.389054Z" fill="#FDB535"/>
<path fill-rule="evenodd" clip-rule="evenodd" d="M67.004 21.1546C68.2873 20.6379 68.9872 20.0213 70.7204 19.538C71.6204 19.288 72.1704 19.2213 73.1203 19.1214C74.5869 18.988 74.5202 19.338 74.6536 18.0547C73.6536 15.4549 71.0538 16.7215 68.7039 17.5048C67.7373 17.8381 66.304 18.3547 65.8707 18.938C65.0541 20.1046 65.8207 20.9546 67.004 21.1546Z" fill="#FDB535"/>
</svg>
