<svg width="73" height="67" viewBox="0 0 73 67" fill="none" xmlns="http://www.w3.org/2000/svg">
<path fill-rule="evenodd" clip-rule="evenodd" d="M11.327 56.2508C11.9559 56.661 17.5884 59.0397 18.7914 58.739C21.0062 59.6413 22.9201 60.7076 25.1348 61.6099C28.4706 62.9497 37.685 66.4495 40.9661 64.5629C41.1301 64.5356 58.0277 54.9931 58.1097 54.9384C58.7659 54.5283 61.1721 52.9424 64.2071 49.3606C66.3671 48.0481 74.105 34.2403 67.2147 34.623C63.7149 34.7871 60.6526 42.1695 55.1568 46.2709C51.2468 49.1692 54.774 46.4623 44.4659 44.3296C42.3879 43.8921 33.3376 40.0915 30.8768 39.1892C24.67 36.9198 18.6274 34.9512 12.5027 38.6424L2.46807 39.0798C2.22199 41.1852 1.81184 45.3139 1.81184 47.5833C1.7845 49.6887 1.70248 54.5283 2.03059 56.4149L11.327 56.2508Z" fill="#F7C698"/>
<path fill-rule="evenodd" clip-rule="evenodd" d="M61.0627 23.9049C61.0627 21.6355 56.2231 17.6162 51.5203 17.4795C49.1688 17.3974 46.2705 18.9286 44.6847 18.1357C42.9621 17.2334 39.2436 15.8389 37.3843 16.7959C34.1852 16.5225 30.1933 20.5145 28.7988 23.03C26.8301 26.6392 26.1192 31.9436 27.1856 35.8262C28.0332 41.1032 46.7353 41.8962 52.4772 46.7904C54.3365 46.0795 59.7776 39.2166 61.1994 37.3847C62.922 35.1426 62.922 26.1743 61.0627 23.9049Z" fill="#C5E27B"/>
<path fill-rule="evenodd" clip-rule="evenodd" d="M49.4148 13.925C52.0943 15.4561 58.9846 13.7609 61.1173 12.1477C64.0976 9.85097 66.367 6.898 67.7341 3.09741L65.4921 3.31615L49.9616 12.3118C49.3601 12.3118 49.8249 12.6125 49.4148 13.925Z" fill="#6E973B"/>
<path fill-rule="evenodd" clip-rule="evenodd" d="M49.989 12.4759L66.2577 3.07016C62.2384 2.41394 59.094 1.94912 55.5942 4.1365C53.9263 5.17551 53.1607 5.66768 51.985 7.19885C51.0007 8.48394 48.868 12.5306 49.989 12.4759Z" fill="#A5C959"/>
<path fill-rule="evenodd" clip-rule="evenodd" d="M45.7782 31.7247C47.7469 31.6427 49.1687 27.514 47.0086 24.3423C43.0167 23.522 42.6339 31.8887 45.7782 31.7247Z" fill="#93BB4E"/>
<path fill-rule="evenodd" clip-rule="evenodd" d="M37.5211 29.2094C34.4588 29.8656 33.3378 36.6739 36.8376 36.0723C40.0093 35.5255 40.31 28.5805 37.5211 29.2094Z" fill="#93BB4E"/>
<path fill-rule="evenodd" clip-rule="evenodd" d="M54.5006 37.412C55.0475 33.6934 51.1648 30.3576 50.3446 34.9511C49.5243 39.7634 53.8717 41.5406 54.5006 37.412Z" fill="#93BB4E"/>
<path fill-rule="evenodd" clip-rule="evenodd" d="M41.349 41.2945C42.4701 42.1422 44.3293 42.0875 45.423 42.5796C46.1613 41.1031 46.38 37.9314 44.384 37.0291C42.1419 36.5096 41.2123 39.49 41.349 41.2945Z" fill="#93BB4E"/>
<path fill-rule="evenodd" clip-rule="evenodd" d="M34.0484 23.1941C29.9744 22.3464 29.865 27.6782 30.904 28.4164C32.9 29.8382 35.3882 26.1197 34.0484 23.1941Z" fill="#93BB4E"/>
<path fill-rule="evenodd" clip-rule="evenodd" d="M42.0873 22.7565C43.7005 19.0652 40.228 18.1083 38.7788 20.323C36.318 24.0142 40.4194 26.6391 42.0873 22.7565Z" fill="#93BB4E"/>
<path fill-rule="evenodd" clip-rule="evenodd" d="M51.4655 21.3073C49.2508 23.8228 54.8013 27.8421 55.0747 24.9165C55.3481 21.9909 53.3794 19.1199 51.4655 21.3073Z" fill="#93BB4E"/>
<path fill-rule="evenodd" clip-rule="evenodd" d="M57.3716 28.0063C54.8015 29.1821 56.2506 33.2834 58.0552 33.1194C59.8598 32.928 59.9145 28.2251 57.3716 28.0063Z" fill="#93BB4E"/>
<path fill-rule="evenodd" clip-rule="evenodd" d="M39.9818 63.3872C36.7007 65.2739 28.4707 61.6647 25.1349 60.3249C22.9202 59.4226 20.7055 58.6023 18.4634 57.7C17.1783 57.1805 12.1747 55.6767 11.5184 55.2666C8.70218 55.3212 5.85858 55.3486 3.01498 55.4033C2.71421 53.5167 2.93295 49.6887 2.93295 47.5834C2.93295 45.314 2.74157 42.0602 2.98765 39.9549C6.07733 39.9275 9.16701 39.9275 12.2567 39.9002C18.4087 36.209 24.6701 37.9315 30.8768 40.2009C33.3376 41.1032 41.7591 44.521 43.8371 44.9585C45.5597 45.314 52.4226 45.8881 50.3445 49.4973C48.2118 53.1612 34.5407 49.8254 30.9315 48.5677C28.2246 47.6381 27.8692 50.0442 29.291 50.7277C31.6697 51.8761 35.7164 52.3956 38.2319 53.2159C41.8958 53.5987 45.7784 54.4189 49.3876 53.2979C50.8367 52.8331 52.0398 51.9855 52.86 50.7824C54.0904 48.9505 52.2859 49.2239 55.1568 47.1186C60.6526 43.0172 63.7149 35.4707 67.2148 35.2793C74.105 34.9239 64.4532 48.7591 62.3205 50.0715C60.762 51.4386 58.3832 53.7901 55.3209 55.7314C52.5593 57.4813 42.6887 62.8951 39.9818 63.3872ZM44.1925 18.6278C45.751 19.4481 48.54 18.0263 50.8914 18.1083C54.5006 18.2177 58.93 21.0886 60.5979 24.233C62.9494 28.7445 62.5666 34.7325 60.2151 37.7948C58.7933 39.6267 54.3365 45.0132 52.4772 45.7241C51.8757 43.6734 47.4736 42.6617 45.423 42.5797C44.3293 42.0876 42.47 42.1422 41.3489 41.2946C36.9468 39.5994 32.5447 37.9315 28.1426 36.2363C27.0489 32.3537 27.295 27.4321 29.2636 23.8502C32.4627 17.9716 38.1225 15.5108 44.1925 18.6278ZM55.4029 4.90199C59.3128 2.46852 62.4025 2.63258 66.6953 3.58956C65.3555 7.39014 63.9063 9.35879 60.8987 11.6282C58.766 13.2687 52.5593 15.2374 49.8797 13.6789C49.9344 13.0773 50.0438 12.4758 50.1805 11.9016C50.9461 9.00334 52.8327 6.51519 55.4029 4.90199ZM47.7744 9.93298C47.1729 8.92131 46.9268 7.08938 46.1065 6.02303C45.1222 4.79262 43.1262 5.17541 42.552 6.6519C42.0325 7.99167 44.3839 10.6986 44.3839 15.6475C38.9702 12.9133 33.0369 14.9366 29.0722 19.0927C25.1623 23.1667 23.9319 30.3304 25.2443 35.6348C20.8148 34.377 17.9439 34.8145 13.7058 36.373C10.8896 37.412 10.6708 37.2206 7.69053 37.2206C-1.38712 37.2206 0.144025 35.3067 0.144025 50.3723C0.144025 58.2742 -1.49651 58.1102 6.29605 58.1102C12.202 58.1102 12.3661 58.3562 17.7252 60.3796C21.0062 61.61 24.342 63.0044 27.6231 64.3169C36.646 67.9261 39.4076 67.3519 46.8174 63.7153C57.5629 58.1649 61.2268 55.7314 63.6056 53.1065C66.0664 50.3996 71.5349 42.8531 72.2731 39.326C72.7653 37.0019 72.3278 34.9786 70.4685 33.42C68.3084 31.5608 66.2578 32.8185 64.0431 33.3654C64.8087 30.0569 63.7696 25.4361 62.4572 22.8386C60.5706 19.0653 59.4496 18.7099 56.3052 16.5225C60.1331 15.4835 63.3869 14.1164 65.875 10.8079C67.1328 9.11271 67.9257 7.93699 68.746 5.96834C69.8123 3.39816 70.6052 2.33181 67.6522 1.15609C63.3048 -0.566476 59.1761 -0.347737 55.0201 1.70294C50.8094 3.8083 49.8798 6.07771 47.7744 9.93298Z" fill="#2D2B03"/>
</svg>
