<svg width="108" height="107" viewBox="0 0 108 107" fill="none" xmlns="http://www.w3.org/2000/svg">
<path fill-rule="evenodd" clip-rule="evenodd" d="M41.9631 51.9253C42.3131 51.542 42.9297 50.6921 42.7631 49.0255C44.0463 33.0597 29.2971 21.7437 14.0146 20.6604C14.6146 27.8433 14.4813 37.9761 19.2644 43.6925C22.4142 47.4756 40.6298 53.4419 41.9631 51.9253Z" fill="#7FB329"/>
<path fill-rule="evenodd" clip-rule="evenodd" d="M45.5296 44.659C47.2295 46.3589 46.6295 47.3922 48.4961 48.7755C79.511 49.8921 86.2273 28.1433 83.6608 3.96128C70.6949 0.244821 36.3301 15.3273 45.5296 44.659Z" fill="#7FB329"/>
<path fill-rule="evenodd" clip-rule="evenodd" d="M85.5772 71.8242C86.5605 71.2242 89.177 68.0577 90.0936 67.0578C91.2602 65.7912 93.5934 63.008 95.3267 62.958C96.5266 62.9247 97.6766 63.7913 97.4266 65.1912C97.1932 66.4245 92.1602 71.1075 90.7103 72.6908C89.627 73.874 87.5938 76.9572 85.5106 77.0239C83.644 77.0739 81.5775 74.024 80.3942 72.6241C79.6442 71.7408 78.7109 71.3075 78.4443 69.8909C78.0776 67.8577 80.5608 65.8578 83.394 69.341C83.944 70.0076 85.0106 71.3742 85.5772 71.8242ZM71.5447 57.5916C71.3613 69.0076 71.3113 79.807 81.6774 86.8233C83.8107 88.2566 87.0271 90.1065 90.177 88.8565C95.3434 86.8067 100.31 81.9403 102.56 77.4572C105.159 72.3075 104.726 62.8413 104.06 56.7417C95.36 54.1251 93.0768 52.5586 87.4771 50.4753C77.9943 57.9916 74.0445 56.4417 71.5447 57.5916Z" fill="#FDB535"/>
<path fill-rule="evenodd" clip-rule="evenodd" d="M65.8285 98.0894C64.6452 94.3063 50.496 82.9736 40.5132 78.7571C27.6473 73.3241 17.3479 71.5742 3.03198 73.6741C3.58195 75.5073 5.51518 79.7404 6.49846 81.2237C17.2645 80.907 26.4473 83.5735 35.7635 89.0232C43.1631 94.173 49.0128 101.356 50.7127 102.589C52.3126 103.722 66.1451 98.8394 65.8285 98.0894Z" fill="#855E3D"/>
<path fill-rule="evenodd" clip-rule="evenodd" d="M8.79834 83.2235C14.8313 93.9229 36.6968 107.905 47.6628 102.722C41.8298 91.3564 21.5476 81.7069 8.79834 83.2235Z" fill="#86613E"/>
<path fill-rule="evenodd" clip-rule="evenodd" d="M68.5115 73.0075C63.4451 72.6575 46.4294 73.9074 43.9629 76.9573C44.8462 77.4906 45.1795 77.4406 45.9628 77.8239L57.3621 84.8735C61.2286 82.3736 66.645 80.8737 71.1614 80.0738C70.8947 78.9571 70.1448 77.8572 69.6948 76.6406C69.2948 75.524 68.9948 73.9241 68.5115 73.0075Z" fill="#86613E"/>
<path fill-rule="evenodd" clip-rule="evenodd" d="M59.4954 87.5899C61.2786 89.1232 66.8116 95.7061 67.6949 97.656C72.0947 97.8227 76.5111 90.3231 79.1943 89.1732L72.9279 82.7735C71.7613 82.4235 60.662 86.5567 59.4954 87.5899Z" fill="#86613E"/>
<path fill-rule="evenodd" clip-rule="evenodd" d="M85.5772 71.8241C85.0106 71.3742 83.944 70.0076 83.394 69.3409C80.5608 65.8578 78.0776 67.8577 78.4443 69.8909C78.7109 71.3075 79.6442 71.7408 80.3942 72.6241C81.5774 74.024 83.644 77.0738 85.5106 77.0238C87.5938 76.9572 89.627 73.874 90.7103 72.6908C91.4436 71.8908 92.2102 70.9575 92.9935 70.2242C93.6268 69.6243 93.7434 69.7576 94.3434 69.091C94.96 68.4077 97.3099 65.7578 97.4266 65.1912C97.6765 63.7912 96.5266 62.9246 95.3267 62.958C93.8268 63.008 93.6101 63.7746 92.4435 64.6745C91.4769 65.4245 90.8936 66.1744 90.0936 67.0577C89.177 68.0577 86.5605 71.2242 85.5772 71.8241Z" fill="#FDF8E7"/>
<path fill-rule="evenodd" clip-rule="evenodd" d="M60.312 87.59C61.062 86.9233 64.1618 85.8567 65.0784 85.5401C66.3617 85.1068 71.9614 83.3902 73.128 83.7402C74.9279 85.4901 76.7111 87.2233 78.4944 88.9732C76.6611 91.1731 72.0447 95.2562 68.0949 96.5561C67.2117 94.6063 62.0953 89.1232 60.312 87.59ZM9.5482 83.9735C20.8476 84.8735 28.6305 86.4734 37.98 93.5896C39.7465 95.1562 45.8129 100.589 46.7461 102.406C32.2469 103.572 19.081 95.0062 10.0315 84.7568C9.48153 84.0902 10.0815 84.9068 9.5482 83.9735ZM68.5116 73.0075C68.9949 73.9241 69.2949 75.524 69.6949 76.6406C70.1448 77.8572 70.8948 78.9571 71.1614 80.0737C66.645 80.8737 61.2287 82.3736 57.3622 84.8735C53.5624 82.5236 49.7626 80.1737 45.9628 77.8239C45.1796 77.4405 44.8462 77.4905 43.963 76.9572C46.4295 73.9074 63.4452 72.6575 68.5116 73.0075ZM4.38182 75.1573C35.8301 68.391 59.8954 91.4731 64.7285 97.8894C63.5952 99.4893 59.0954 100.373 57.1289 101.006C55.979 101.306 52.1792 102.489 51.0792 101.689C47.8961 97.7394 42.9797 92.473 36.2467 87.79C26.6306 82.1569 18.3644 80.1404 7.19833 80.4737C6.21505 78.9905 4.93179 76.9739 4.38182 75.1573ZM72.378 58.0583C74.8779 56.9083 77.9944 58.6083 87.4772 51.0753C88.1272 51.3253 88.6271 51.742 89.1604 52.1919C95.3934 57.475 98.7599 56.5417 102.993 57.8083C103.66 63.908 103.36 72.3075 100.76 77.4572C98.5099 81.9403 94.5935 86.0734 89.4438 88.1233C86.2939 89.3732 83.8107 87.2733 81.6775 85.8401C71.3114 78.8405 72.1947 69.4743 72.378 58.0583ZM38.8799 51.4587C33.8135 50.542 29.0471 48.9588 24.964 45.8423C24.6974 45.659 24.7474 45.659 24.4974 45.4757C23.7641 44.809 23.0474 44.1424 22.3142 43.4591C21.6975 42.7091 21.7642 43.2924 20.9642 42.3258C20.7809 42.1092 20.3976 41.5592 20.1309 41.1926C19.9643 40.9759 19.7143 40.5593 19.481 40.1593C17.9811 37.5761 17.3478 37.1261 16.3145 33.293C15.1146 28.8432 15.0479 26.1267 14.6479 21.2937C20.8309 22.0436 27.4639 24.1602 32.1136 28.3766C32.4636 28.6933 32.5303 28.8432 32.9469 29.2099C38.6966 34.2429 42.4964 40.8592 42.3297 49.0255C37.3467 42.7591 34.3802 38.8427 28.4971 33.9263C27.5305 33.1763 27.5805 32.693 25.8306 32.7764C25.014 33.4763 24.3474 34.3763 25.214 35.5262C28.8138 40.3426 37.33 45.4423 38.8799 51.4587ZM46.3795 43.7924C44.1796 40.0926 45.7795 30.3098 47.1794 26.3767C50.4626 17.0606 58.4955 11.1442 67.3117 7.47776C72.7447 5.21122 77.8111 4.74458 83.6608 3.96129C83.5441 15.194 83.4608 23.3269 77.9444 33.1597C75.1279 38.2094 70.5115 42.5591 65.2451 44.9923C59.9787 47.4255 54.929 48.3422 49.0627 48.2088C49.9793 45.4423 52.3792 41.0259 53.7791 38.826C58.4288 31.5098 63.7452 25.9934 70.4781 20.4104C71.6947 19.2938 73.9446 18.3438 73.1947 16.3439C72.5614 14.644 70.8115 15.3107 69.5282 16.3773C59.8454 24.3435 55.6956 28.4433 48.8793 39.226C48.0794 40.4759 47.1294 42.4925 46.3795 43.7924ZM41.2964 32.4764C40.2132 31.1764 39.1299 29.8765 38.0466 28.5766C33.9968 25.0101 32.1469 22.3603 25.2973 19.8271C21.7975 18.5438 17.7811 17.3105 13.5813 17.1772C10.4481 17.0939 10.8815 19.1771 10.8981 21.7936C10.9815 32.4764 13.8313 41.4925 20.7976 47.5089C26.4306 52.3586 31.9803 54.1252 41.0631 55.9417C42.9297 60.8748 42.5297 67.3744 42.613 72.7908C41.5298 73.1741 38.9799 74.4407 38.2299 74.3407C37.3467 74.2241 31.4136 71.4909 23.0474 70.6076C18.2477 70.1076 3.29854 70.0243 0.115388 72.3408C-0.701234 75.9073 3.03189 81.507 4.54847 83.7902C8.31493 89.4065 11.5314 92.2064 16.5645 96.3395C20.7642 99.5893 28.0305 102.906 33.3135 104.422C43.2797 107.272 51.8459 106.756 61.462 103.706C66.6784 102.039 76.0612 97.0228 79.5276 93.023C80.2776 92.1564 80.9776 91.8564 81.5275 90.7898C85.6273 91.8564 85.694 95.0062 93.9102 90.4232C94.7601 89.9398 95.7601 89.4065 96.4934 88.8066C99.2432 86.5567 100.826 85.2734 102.776 82.2403C107.876 74.274 107.226 70.0409 107.226 61.3748C107.226 58.1749 107.826 56.0584 105.576 54.4085C104.26 53.4419 100.693 53.4085 98.7599 52.8586C95.3601 51.8753 93.2769 50.3087 90.7604 48.3255C86.9272 45.2923 86.5439 46.7089 82.6941 49.6088C81.2275 50.7254 79.311 51.8586 77.3611 52.6253C75.1779 53.4752 71.5781 53.5585 70.2948 54.2085C67.8783 55.4084 68.1783 57.6083 68.1949 60.5415C68.1949 63.408 68.1949 66.2578 68.1949 69.1243C60.662 68.691 53.5624 69.5743 46.5461 71.4242C46.6128 65.2579 46.1295 58.2249 47.4461 52.2919C57.0622 52.4419 64.7451 50.8754 72.2947 45.3923C78.811 40.6426 83.0608 33.7763 85.3107 26.0101C87.1439 19.6438 88.3938 8.76102 87.4272 2.04473C87.1439 0.111502 86.1439 -0.055155 84.1274 0.0115079C80.8776 0.128168 77.5944 0.544811 74.4446 1.21144C58.2288 4.62792 44.5296 13.9441 41.2964 32.4764Z" fill="#324D1E"/>
</svg>
