<svg width="72" height="76" viewBox="0 0 72 76" fill="none" xmlns="http://www.w3.org/2000/svg">
<path fill-rule="evenodd" clip-rule="evenodd" d="M30.7428 39.1816L35.0902 38.5254C35.0902 36.9395 34.7895 30.6235 35.1176 29.3931L26.286 29.6938C26.204 31.5805 28.9382 37.1036 30.7428 39.1816Z" fill="#FEEC58"/>
<path fill-rule="evenodd" clip-rule="evenodd" d="M26.0124 16.6515L25.5203 18.8389L35.0081 18.8936L34.9807 10.4175C33.8597 10.7456 29.2388 10.4448 27.7623 10.5268C26.9421 14.3821 26.8874 12.0307 26.0124 16.6515Z" fill="#FEEC58"/>
<path fill-rule="evenodd" clip-rule="evenodd" d="M28.6372 8.94107H34.8986L35.0627 2.48828C32.7386 2.78905 28.2818 6.86305 28.6372 8.94107Z" fill="#FEEC58"/>
<path fill-rule="evenodd" clip-rule="evenodd" d="M37.3049 8.47627H42.5547L42.2539 7.95676L42.3633 5.90609L38.6447 3.41794L37.387 2.78906L37.3049 8.47627Z" fill="#FEEC58"/>
<path fill-rule="evenodd" clip-rule="evenodd" d="M29.4577 55.3685C29.6764 52.0327 29.5944 47.2205 26.3407 45.1698C23.0596 43.1191 18.0012 43.9394 14.6655 45.3339C9.57981 47.4666 -1.73991 51.9507 3.48248 59.6612C6.90027 64.6649 12.9703 70.7896 18.7395 73.0043C23.1143 74.6722 25.6298 70.5982 27.1062 67.0163C28.364 63.8993 29.2663 58.7316 29.4577 55.3685Z" fill="#D25534"/>
<path fill-rule="evenodd" clip-rule="evenodd" d="M57.8937 33.6858C53.9564 35.2717 53.4369 40.1386 52.7533 43.8025C52.0424 47.5484 51.0034 51.1302 49.6637 54.7394C46.3006 63.817 43.4023 66.4146 37.0315 72.8127C38.4806 73.2228 44.3046 72.6213 45.7537 71.8557C48.1051 70.6526 51.0034 69.2855 53.1908 67.7543C60.6279 62.5593 67.7096 51.7044 69.2955 42.7361C70.9086 33.7405 59.7256 32.9749 57.8937 33.6858Z" fill="#9FC959"/>
<path fill-rule="evenodd" clip-rule="evenodd" d="M38.5626 49.107C37.551 50.6655 37.2776 56.0793 36.7034 57.9112C42.1171 58.13 44.5233 57.1456 47.777 53.1263C52.808 46.8923 51.1675 45.1424 52.9994 38.5255C53.4642 36.8303 54.3665 34.014 54.5306 32.5649C54.886 28.9557 55.2415 25.5926 56.5539 22.1748C55.0227 22.667 50.2105 26.0574 48.9801 27.3698C44.5506 32.0454 40.2305 42.9003 38.5626 49.107Z" fill="#77A23D"/>
<path fill-rule="evenodd" clip-rule="evenodd" d="M34.8714 57.7198C34.5979 44.8143 26.6413 25.1551 12.0679 22.1201C12.1772 22.5303 13.435 25.0184 13.7358 25.6746C16.5247 31.3892 16.7161 36.2014 17.1809 37.2951C18.1379 36.5842 20.2432 34.6429 21.3916 34.6429C24.0165 35.6819 22.9501 40.4395 22.8408 42.4902C26.8327 43.6932 27.7624 42.3261 29.7857 46.5095C31.0981 49.1617 31.2895 54.8762 30.8794 57.7745L34.8714 57.7198Z" fill="#77A23D"/>
<path fill-rule="evenodd" clip-rule="evenodd" d="M25.0282 28.7369L35.0355 28.4635L34.7894 20.7529H25.9578C25.2469 22.0654 25.0008 27.0963 25.0282 28.7369Z" fill="#FFCD4A"/>
<path fill-rule="evenodd" clip-rule="evenodd" d="M46.6013 27.7799L46.1365 20.7529L36.8401 20.3154L36.7034 28.3541L46.6013 27.7799Z" fill="#FFCD4A"/>
<path fill-rule="evenodd" clip-rule="evenodd" d="M26.5593 17.9913L34.2971 17.9093C34.7073 16.1047 34.2151 13.2338 34.4885 11.2925L28.3912 11.3472C27.5163 11.7026 26.4772 17.0891 26.5593 17.9913Z" fill="#FFCD4A"/>
<path fill-rule="evenodd" clip-rule="evenodd" d="M43.8124 10.6909L36.7854 10.4995L37.0588 18.5108L46.3279 18.7569C45.863 16.4875 44.4413 12.9603 43.8124 10.6909Z" fill="#FFCD4A"/>
<path fill-rule="evenodd" clip-rule="evenodd" d="M27.0789 30.5143L31.5083 38.4709L34.4613 38.1974L34.4066 30.3775C32.7114 30.6236 27.9265 29.9674 27.0789 30.5143Z" fill="#FFCD4A"/>
<path fill-rule="evenodd" clip-rule="evenodd" d="M30.688 63.6258L40.4218 63.6531V59.7705L31.2348 59.7432L30.688 63.6258Z" fill="#69752C"/>
<path fill-rule="evenodd" clip-rule="evenodd" d="M40.586 38.6077C40.6407 37.1038 44.8787 31.0885 45.6443 29.5573L36.594 28.9832L36.9494 38.6897L40.586 38.6077Z" fill="#FFCD4A"/>
<path fill-rule="evenodd" clip-rule="evenodd" d="M9.60714 36.2288C9.52511 38.1154 9.14231 40.2754 10.154 42.0253C11.193 43.8573 14.5287 44.7596 15.1303 42.5448C16.1419 38.6896 10.318 36.2561 9.60714 36.2288Z" fill="#9CC656"/>
<path fill-rule="evenodd" clip-rule="evenodd" d="M61.9677 37.5686C60.1631 38.6623 58.4952 45.7166 61.5028 45.1971C62.87 44.951 63.3894 42.7089 63.5808 41.4238C63.7176 40.4669 64.2097 36.1741 61.9677 37.5686Z" fill="#89B549"/>
<path fill-rule="evenodd" clip-rule="evenodd" d="M29.731 8.20288H34.3518L34.4065 3.58203C33.2034 4.56636 30.5512 6.97248 29.731 8.20288Z" fill="#FFCD4A"/>
<path fill-rule="evenodd" clip-rule="evenodd" d="M22.5126 56.5714C20.2705 57.1456 21.1455 62.3679 23.3876 61.7938C25.4382 61.2469 24.8641 55.9698 22.5126 56.5714Z" fill="#2D2B03"/>
<path fill-rule="evenodd" clip-rule="evenodd" d="M41.9532 7.98415C41.3243 6.45298 39.547 3.91014 37.6331 3.58203L37.6057 8.20288L41.9532 7.98415Z" fill="#FFCD4A"/>
<path fill-rule="evenodd" clip-rule="evenodd" d="M15.3217 49.9272C13.1617 51.0209 14.8295 55.3957 16.9622 54.5207C18.9309 53.7278 17.1263 49.0522 15.3217 49.9272Z" fill="#2D2B03"/>
<path fill-rule="evenodd" clip-rule="evenodd" d="M7.74784 53.0991C5.69717 54.0014 7.93924 58.6769 9.82586 57.3918C11.193 56.4622 9.98991 52.0874 7.74784 53.0991Z" fill="#2D2B03"/>
<path fill-rule="evenodd" clip-rule="evenodd" d="M13.0249 62.2586C13.8725 65.2389 17.0169 64.9108 16.2786 62.1219C15.431 58.8955 12.2319 59.3877 13.0249 62.2586Z" fill="#2D2B03"/>
<path fill-rule="evenodd" clip-rule="evenodd" d="M19.4229 67.5357C19.751 70.2699 22.8407 70.598 22.5126 67.4536C22.1844 64.3639 19.0401 64.1179 19.4229 67.5357Z" fill="#2D2B03"/>
<path fill-rule="evenodd" clip-rule="evenodd" d="M22.7041 47.9039C20.9542 48.4234 21.9385 53.2903 24.0712 52.1966C25.6844 51.3763 24.6454 47.3023 22.7041 47.9039Z" fill="#2D2B03"/>
<path fill-rule="evenodd" clip-rule="evenodd" d="M34.68 47.193C34.7347 45.4157 34.434 41.5605 34.7894 40.0566L32.0552 40.1387L34.68 47.193Z" fill="#FDD34D"/>
<path fill-rule="evenodd" clip-rule="evenodd" d="M36.6212 34.096C36.5392 33.8772 36.5666 33.8226 36.4298 33.5491C36.4298 33.5218 36.2658 33.221 36.2384 33.1937C36.1291 33.0296 36.1564 33.057 35.965 32.8382C35.801 33.0023 35.5002 33.1663 35.5549 33.7132C35.5549 33.9046 35.5002 33.6312 35.6096 33.9046C35.5276 32.4281 35.3908 32.9476 35.2541 32.264C34.5706 33.8772 35.5002 36.1467 34.7893 37.8692C35.1174 37.7325 36.7033 37.3224 36.6759 37.6231L36.84 30.1587C36.4298 31.1977 36.6212 32.8929 36.6212 34.096Z" fill="#302D04"/>
<path fill-rule="evenodd" clip-rule="evenodd" d="M2.19727 45.443C3.81046 48.2046 8.89613 47.7671 10.2906 44.9508C9.06019 44.7868 7.74776 43.8025 6.21659 44.0485C5.25961 44.2399 2.99019 45.3063 2.19727 45.443Z" fill="#77A23D"/>
<path fill-rule="evenodd" clip-rule="evenodd" d="M20.5987 41.6973C20.7901 40.3849 20.8995 39.5373 20.6808 38.1975C19.0129 38.6076 17.8918 40.3849 17.7825 42.1348C18.302 41.8067 20.0245 41.6153 20.5987 41.6973Z" fill="#78A441"/>
<path fill-rule="evenodd" clip-rule="evenodd" d="M45.7537 18.2101L45.2615 15.3938C44.66 15.9407 45.0975 15.3938 45.0975 16.05L45.4529 17.964L37.633 17.9367V11.3472L43.8397 11.3198C43.703 10.937 44.0585 11.1558 43.5116 11.0737L37.2776 11.0464L37.3596 18.1827L45.7537 18.2101Z" fill="#FEEC58"/>
<path fill-rule="evenodd" clip-rule="evenodd" d="M39.547 40.084L37.3596 40.0566L37.469 45.7438L39.547 40.084Z" fill="#FDD34D"/>
<path fill-rule="evenodd" clip-rule="evenodd" d="M31.2348 59.7432L40.4219 59.7705V63.6531L30.688 63.6258L31.2348 59.7432ZM57.8936 34.5062C59.7256 33.7953 70.143 33.7406 68.5571 42.7362C66.9713 51.7045 59.9169 61.8485 52.4798 67.0436C49.4722 69.1216 41.6523 73.4143 38.1525 72.43C44.5232 66.0319 46.984 64.5007 50.3471 55.4231C51.6869 51.8139 52.5619 48.068 53.2728 44.2947C53.9563 40.6309 53.9563 36.092 57.8936 34.5062ZM35.3362 71.1176C34.3519 72.5394 34.7073 74.59 36.6213 75.1095C44.3591 77.1876 55.8429 68.7388 60.7099 63.407C64.8933 58.8135 68.2017 53.3997 69.9789 48.2047C72.1116 41.916 73.096 34.096 64.7292 32.2641C66.5065 28.737 67.0533 29.0104 69.3227 27.0144C71.5374 25.0184 69.0493 22.5029 66.315 23.2958C62.6238 25.2645 62.5965 29.3111 61.038 31.5532C58.9053 31.5532 58.3311 31.6352 56.3078 32.1001C56.3078 27.8893 59.5068 22.749 59.4795 20.6983C59.4795 20.0694 59.2334 19.5226 58.6045 19.0851C56.964 19.0851 54.8313 20.0694 53.4095 20.917C52.5345 21.4366 49.8003 23.87 49.2808 24.0067C49.2808 18.1828 47.8043 11.2652 44.8513 6.34359C43.0467 3.30859 39.793 -0.0271754 36.0198 0.000166968C33.3402 0.0275093 29.8404 1.44931 26.6687 6.9998C23.7704 12.0308 22.4306 19.8507 22.4306 25.5926L20.1612 23.4872C17.7277 21.7373 12.6147 18.6476 9.57971 18.4289C8.04854 18.3195 7.28296 19.8507 8.13057 21.2998C11.4116 26.9597 12.5874 29.4752 14.2006 35.928C12.0952 34.5609 10.5914 34.014 8.04855 34.014C6.73611 35.9827 6.49003 39.6465 7.52903 41.916C4.84949 41.916 3.0449 42.6269 0.912196 44.076C-1.93141 46.0173 2.71679 48.0953 3.42769 48.6695C0.146606 52.9623 -1.46658 55.1496 1.8145 60.6181C3.7558 63.8718 6.98221 67.0982 9.85315 69.5864C12.6694 71.9925 17.427 75.2463 21.2002 75.2463C26.9147 75.2736 28.3366 68.1372 29.4576 66.4694H40.5039C39.6016 67.317 35.6643 70.6527 35.3362 71.1176ZM34.2698 57.1456H31.4809C31.8911 54.2473 31.7817 49.1617 30.4692 46.5095C28.4459 42.3261 27.1608 42.7362 23.1688 41.5605C23.2782 39.5098 24.0165 35.6819 21.3916 34.6429C20.2432 34.6429 18.1379 36.5842 17.1809 37.2951C16.7161 36.2014 16.5247 31.3892 13.7358 25.6746C13.435 25.0184 12.1772 22.5302 12.0679 22.1201C15.5403 23.1044 22.9228 28.8737 25.0828 32.3188C29.8951 39.9747 32.4105 48.3687 34.2698 57.1456ZM37.4689 57.1183C37.633 56.6261 39.9571 44.5135 44.7146 35.3265C46.2184 32.4282 47.8863 29.776 49.5815 27.9714C50.8393 26.6589 53.9837 23.706 55.5148 23.2411C54.2024 26.6589 53.6009 30.2408 53.2181 33.85C53.0814 35.2991 51.9603 36.967 51.4955 38.6622C49.6909 45.2791 51.5229 46.8923 46.4645 53.1263C43.2381 57.1456 42.91 57.3644 37.4689 57.1183ZM29.2388 8.47629C28.9381 7.27323 33.0668 3.2539 34.68 3.11719L34.6526 8.47629H29.2388ZM28.1452 11.1012C29.6216 11.0465 32.9848 11.1285 34.6526 10.9644L34.68 18.1828L26.1492 18.2102C26.2859 16.2142 27.2975 12.9878 28.1452 11.1012ZM37.2502 20.7256L46.1364 20.753L46.5192 26.5496L45.8356 27.7526L37.0314 28.0261L37.2502 20.7256ZM40.2578 38.3068C40.1211 38.6075 43.6209 32.4829 44.7693 29.9947C43.949 29.9127 37.7697 29.5299 37.3322 30.2681C37.0588 31.6079 37.3322 35.5452 37.3595 38.2794C38.0157 38.5802 40.2851 37.9513 40.2578 38.3068ZM31.2075 38.7716L26.7234 30.3502L34.7893 29.9947V38.5255L31.2075 38.7716ZM25.3289 27.1238C25.2469 25.1278 25.3562 21.874 25.9578 20.753H34.7893L34.5433 28.0261L25.4929 28.1628L25.3289 27.1238ZM45.7536 18.2102L37.3595 18.1828L37.2775 11.0465C37.9064 11.0465 43.8397 11.0465 43.8123 11.1285C44.0037 10.773 45.781 16.2689 45.7536 18.2102ZM37.3048 8.47629L37.3869 3.06251C40.2031 4.70305 40.9687 5.82408 42.5546 8.47629H37.3048ZM46.6559 56.9816C46.3825 58.0753 43.9764 62.7235 43.1561 63.325L43.0467 59.6338C44.8513 58.5948 45.3161 57.8839 46.6559 56.9816ZM26.3132 67.0162C24.8641 70.5981 23.1142 73.6057 18.7394 71.9378C12.9702 69.7231 7.72044 64.3093 4.32999 59.3057C-0.91974 51.5951 10.0445 47.9313 15.1302 45.8259C18.466 44.4314 22.7587 43.3924 26.0671 45.4705C31.3989 48.8336 28.3092 62.204 26.3132 67.0162ZM3.61908 45.5251C4.41201 45.3884 5.25963 44.7869 6.21661 44.6228C7.74779 44.3494 8.15791 44.7869 9.38831 44.951C9.00552 45.4705 7.09157 46.4821 6.43536 46.7009C5.66977 46.9469 4.7948 46.8102 3.61908 45.5251ZM20.5987 41.6972C20.0245 41.6152 18.3019 41.8066 17.7824 42.1347C17.8918 40.3848 19.0128 38.6075 20.6807 38.1974C20.8994 39.5372 20.7901 40.3848 20.5987 41.6972ZM37.4689 45.7439L37.3595 40.0567L39.5469 40.084L37.4689 45.7439ZM32.0551 40.1387L34.7893 40.0567C34.4339 41.5605 34.7347 45.4158 34.68 47.193L32.0551 40.1387ZM9.88048 36.967C10.5914 36.9943 15.6771 38.4982 14.6654 42.3808C14.4193 43.3104 13.9271 43.3378 13.2983 43.6385C12.2046 44.1307 10.9742 42.3534 10.4547 41.4511C9.443 39.7012 9.79845 38.8536 9.88048 36.967Z" fill="#2D2B03"/>
</svg>
