<svg width="114" height="109" viewBox="0 0 114 109" fill="none" xmlns="http://www.w3.org/2000/svg">
<path fill-rule="evenodd" clip-rule="evenodd" d="M50.4557 15.0971C50.8224 15.3471 51.2724 15.5804 51.789 15.8137C52.2223 15.9971 54.3722 15.2804 55.9554 14.4805C54.4222 13.8805 56.3221 1.81451 59.3719 0.581243C58.9053 -0.335373 54.2555 0.081271 53.4889 0.181265C49.5225 0.697903 48.2059 13.5639 50.4557 15.0971Z" fill="#513E1E"/>
<path fill-rule="evenodd" clip-rule="evenodd" d="M95.7533 90.5762C95.4033 95.5093 96.9365 97.8092 93.1867 97.9092C88.4703 98.0258 90.0536 95.8926 89.8702 90.5262C87.537 90.6262 84.9205 90.7762 83.1039 90.0596C82.6873 88.543 82.6206 87.3597 82.9206 85.6432C84.9705 84.2432 87.1037 84.6599 89.8869 84.7266C89.7203 79.5268 88.7703 75.927 95.2366 77.627C95.9866 79.5268 95.7866 82.21 95.7366 84.6432C99.0864 84.8932 102.92 83.3766 103.02 87.4264C103.119 91.7595 99.5364 90.5262 95.7533 90.5762ZM111.236 90.7929C112.469 81.6101 105.886 72.0106 97.0698 69.6774C85.3038 66.5442 72.0879 78.9769 75.421 92.2761C77.4043 100.192 86.2371 106.309 93.8533 105.992C101.27 105.675 110.219 98.3425 111.236 90.7929Z" fill="#7BAD26"/>
<path fill-rule="evenodd" clip-rule="evenodd" d="M92.4701 67.2776C92.6535 66.9943 94.3534 65.8277 94.6033 65.461C97.1532 61.8112 100.503 50.5785 101.453 46.1621C103.07 40.2458 101.803 29.2797 98.6031 24.1633C93.72 18.4303 91.7701 14.0972 84.4539 11.1307C78.6209 8.78084 71.7546 9.96411 65.9549 11.9807C63.2217 12.9306 61.2718 14.1139 59.172 15.5138L52.839 19.4802C50.1891 20.1135 44.9561 11.5474 31.3069 10.5641C25.6572 10.1641 19.3742 12.1473 15.5077 15.3305C6.35823 22.8467 1.59183 31.4962 3.59171 43.9789C4.17502 47.6287 6.80821 57.7615 8.7581 60.9113C13.9078 72.5106 39.923 100.826 51.789 102.176C53.8223 102.409 56.5721 102.909 59.3386 100.826C61.9885 98.8425 62.2551 98.5092 65.4216 95.8093L68.7381 93.5761C69.3047 93.0762 69.5214 92.9262 69.988 92.3929C71.8546 90.293 72.4379 90.7263 72.6212 86.7932C73.0212 78.0937 91.6868 68.4942 92.4701 67.2776Z" fill="#B9DA65"/>
<path fill-rule="evenodd" clip-rule="evenodd" d="M51.7224 63.6277C54.2722 62.8778 56.2055 64.811 57.3388 66.7276C61.6719 74.1605 59.7886 84.5266 53.9056 85.8098C52.5224 86.1098 51.3391 85.7765 50.2725 85.2099C49.3559 84.7432 48.5892 83.9433 47.9059 83.0933C44.6895 79.1102 44.5561 65.7276 51.7224 63.6277ZM37.2565 46.062C44.4228 44.7454 44.5228 51.5451 41.9729 56.5614C34.24 71.8273 21.4574 64.011 26.8571 54.2949C28.8903 50.6118 32.8901 46.862 37.2565 46.062ZM64.155 46.312C69.7381 44.2788 78.9042 51.5951 79.4209 58.528C80.2208 69.2607 64.255 66.0776 61.4219 52.8283C61.1052 51.3117 61.0552 49.7952 61.6885 48.4286L62.3718 47.4286C62.4051 47.3953 62.4718 47.3286 62.5051 47.2953C62.5551 47.2453 62.6051 47.1953 62.6551 47.162C63.2051 46.6787 63.3384 46.5953 64.155 46.312ZM32.0902 23.9633C41.5563 22.1634 43.5562 30.0296 34.89 37.8125C27.2404 44.6788 17.391 40.3957 21.4574 31.9128C22.974 28.763 27.3071 24.8799 32.0902 23.9633ZM68.4381 23.7633C71.0546 23.1466 73.9378 23.8299 76.2044 24.9465C90.0703 31.7628 84.7705 45.9787 73.2045 39.6957C69.5547 37.6958 65.455 33.6294 64.7883 29.413C64.2717 26.1798 65.7716 24.3799 68.4381 23.7633ZM72.9712 82.2267C73.2545 79.2102 76.521 74.6604 77.8209 73.1939C78.7709 72.1272 80.3208 71.044 81.7541 70.1274C83.4206 69.0774 84.3873 68.6108 86.2205 67.8942C92.2368 56.6614 95.9033 54.2449 96.6366 40.5123C96.9866 34.0794 95.9699 27.6964 91.7202 22.28C89.1203 18.9802 86.7205 17.0636 82.7707 15.3304C76.121 12.4139 64.805 13.8138 59.4553 18.5969C57.5054 20.1468 53.639 24.2466 52.089 24.9465C48.7892 17.1303 34.34 11.364 24.4739 15.0971C10.5414 20.1301 8.74145 30.2796 9.27475 43.2122C9.49141 48.4619 11.4746 53.8783 13.8245 58.6447C18.1409 67.3942 40.4564 89.343 49.3725 95.8593C52.5557 97.7592 55.2555 96.8425 57.9887 94.9093C60.1053 93.4094 72.9212 82.2434 72.9712 82.2267Z" fill="#FDF1CD"/>
<path fill-rule="evenodd" clip-rule="evenodd" d="M109.719 90.7929C109.203 94.6927 106.419 98.8091 103.286 101.159C97.2866 105.642 88.7538 105.825 82.6541 101.042C79.6876 98.7091 77.571 96.0926 76.6211 92.2761C75.0212 85.8932 76.4544 80.6934 80.5709 75.9604C86.9872 70.2607 95.6867 68.2775 103.236 74.0438C108.669 78.8102 110.703 83.4266 109.719 90.7929ZM100.686 45.3954C99.9198 49.0785 99.3031 51.845 98.0032 55.4615C97.0866 57.9614 94.7201 62.7111 93.2035 64.861C92.9535 65.2276 92.6535 65.8109 92.4702 66.0942C91.7702 67.1942 89.2037 67.2442 86.2206 67.8941C84.3873 68.6108 83.4207 69.0774 81.7541 70.1274C80.3209 71.044 78.771 72.1272 77.821 73.1938C76.5211 74.6604 73.2546 79.2102 72.9713 82.2267C72.6213 83.7433 72.2047 85.0932 72.138 86.7931C72.0547 88.5097 71.7713 89.1763 71.338 89.5763C67.7216 92.7761 62.7218 96.2092 58.8387 99.0924C56.3222 100.976 54.239 101.659 52.3558 101.592C43.1229 101.292 19.0243 75.7437 14.0746 68.4108C9.20815 60.6945 5.82502 53.9783 4.34176 44.7288C2.90851 35.8126 4.40843 30.4296 8.14155 23.3133C13.5912 15.3304 21.1575 9.83071 31.3069 10.564C44.9562 11.5473 50.1892 20.1135 52.8391 19.4802L59.172 15.5137C66.5216 10.5807 74.9378 8.74744 83.4207 12.1639C89.387 14.5804 96.3866 21.0634 98.8532 27.1131C101.07 32.5794 102.053 40.479 100.686 45.3954ZM72.838 93.1594C74.5712 96.5426 73.4879 96.9092 78.021 102.042C82.8707 107.559 91.7202 109.725 99.2365 107.459C110.519 104.075 116.486 91.4595 112.302 80.0601C110.936 76.3603 108.603 73.4772 106.353 71.7439C105.036 70.7273 103.87 69.6274 102.02 68.8441C100.353 68.1608 98.4699 67.6442 96.67 66.9442C98.5032 63.5277 100.353 60.2446 101.82 56.1948C106.919 42.1623 106.586 29.1796 97.7699 17.9136C89.8703 7.84749 75.9211 3.3644 62.6219 8.93076C60.6386 9.74738 53.4224 14.0805 52.5057 15.1804C48.4893 13.3472 42.8063 6.69755 30.457 6.51423C13.0079 6.26424 0.641963 21.0801 0.025331 37.5292C-0.307984 46.4453 2.67519 56.2948 7.37493 65.011C15.0412 79.2269 30.2237 92.4261 43.1896 101.776C48.2727 105.442 52.3391 106.075 56.0556 105.009C61.0719 103.592 65.4384 99.0924 70.8214 94.9093C71.638 94.276 72.2213 93.8594 72.838 93.1594Z" fill="#32521A"/>
<path fill-rule="evenodd" clip-rule="evenodd" d="M95.7535 90.5762C99.5366 90.5262 103.12 91.7595 103.02 87.4264C102.92 83.3766 99.0866 84.8932 95.7368 84.6432C95.7868 82.21 95.9868 79.5268 95.2368 77.6269C88.7705 75.927 89.7205 79.5268 89.8871 84.7265C87.1039 84.6599 84.9707 84.2432 82.9208 85.6432C82.6208 87.3597 82.6875 88.543 83.1042 90.0596C84.9207 90.7762 87.5372 90.6262 89.8704 90.5262C90.0538 95.8926 88.4705 98.0258 93.1869 97.9091C96.9367 97.8092 95.4035 95.5093 95.7535 90.5762Z" fill="#FDF7DD"/>
<path fill-rule="evenodd" clip-rule="evenodd" d="M76.8877 28.4631L78.2376 29.6297C78.271 29.6797 78.3376 29.7297 78.371 29.7797C79.3376 30.6963 80.3209 31.6462 80.8542 33.4295C81.3875 35.2794 81.2875 36.8293 79.6042 37.3459C76.3711 38.3459 72.188 35.7293 70.1548 33.5295L68.4049 30.8129C67.5382 28.9131 68.0715 27.3798 69.7881 26.8132C71.9547 26.1132 75.1378 27.2798 76.8877 28.4631ZM68.4382 23.7633C65.7716 24.38 64.2718 26.1799 64.7884 29.413C65.455 33.6295 69.5548 37.6959 73.2046 39.6958C84.7706 45.9788 90.0703 31.7629 76.2044 24.9466C73.9379 23.83 71.0547 23.1467 68.4382 23.7633Z" fill="#513E1E"/>
<path fill-rule="evenodd" clip-rule="evenodd" d="M52.2558 67.2442C54.7724 66.7776 56.4056 71.194 56.7056 73.7772C57.0556 76.7937 56.2389 81.6268 53.5558 82.1767C47.4228 83.41 47.3228 68.1608 52.2558 67.2442ZM51.7225 63.6278C44.5563 65.7277 44.6896 79.1102 47.9061 83.0934C48.5894 83.9433 49.356 84.7433 50.2726 85.2099C51.3392 85.7765 52.5225 86.1099 53.9058 85.8099C59.7888 84.5266 61.672 74.1605 57.3389 66.7276C56.2056 64.811 54.2724 62.8778 51.7225 63.6278Z" fill="#513E1E"/>
<path fill-rule="evenodd" clip-rule="evenodd" d="M31.5736 27.0632C37.5066 25.7299 39.1565 29.2964 33.9735 34.6294L31.457 36.596C30.857 36.9293 30.1904 37.2459 29.5404 37.4626C25.1573 38.8625 22.7074 36.8626 24.774 32.4129C25.7906 30.2463 25.5739 30.313 27.4905 28.9964C28.3738 28.3798 30.1404 27.3798 31.5736 27.0632ZM32.0903 23.9633C27.3072 24.88 22.9741 28.7631 21.4575 31.9129C17.3911 40.3958 27.2405 44.6789 34.8901 37.8126C43.5563 30.0297 41.5564 22.1634 32.0903 23.9633Z" fill="#513E1E"/>
<path fill-rule="evenodd" clip-rule="evenodd" d="M65.7384 49.5285C67.7549 48.7619 68.6049 49.3118 70.4381 50.2451C75.4212 52.795 77.8377 59.4946 74.7712 61.2278C72.438 62.5444 68.3549 59.8779 66.805 57.5114C65.755 55.9115 64.0051 53.4283 64.3551 51.0617C64.6051 49.4118 64.9051 49.8451 65.7384 49.5285ZM64.1551 46.312C63.3385 46.5953 63.2052 46.6787 62.6552 47.162C62.6052 47.1953 62.5552 47.2453 62.5052 47.2953C62.4719 47.3286 62.4052 47.3953 62.3719 47.4286L61.6886 48.4286C61.0553 49.7951 61.1053 51.3117 61.422 52.8283C64.2551 66.0776 80.2209 69.2607 79.421 58.528C78.9043 51.595 69.7382 44.2788 64.1551 46.312Z" fill="#513E1E"/>
<path fill-rule="evenodd" clip-rule="evenodd" d="M36.1566 49.4618C43.2229 46.8953 39.2898 57.2614 36.6733 59.3613C26.6572 67.3608 26.1739 53.095 36.1566 49.4618ZM37.2566 46.062C32.8902 46.862 28.8904 50.6118 26.8572 54.2949C21.4575 64.011 34.2401 71.8273 41.973 56.5614C44.5229 51.545 44.4229 44.7454 37.2566 46.062Z" fill="#513E1E"/>
<path fill-rule="evenodd" clip-rule="evenodd" d="M31.5735 27.0631C30.1403 27.3798 28.3737 28.3797 27.4904 28.9964C25.5739 30.313 25.7905 30.2463 24.7739 32.4128C22.7073 36.8626 25.1572 38.8625 29.5403 37.4626C30.1903 37.2459 30.8569 36.9293 31.4569 36.5959L33.9734 34.6294C39.1564 29.2964 37.5065 25.7299 31.5735 27.0631Z" fill="#855D41"/>
<path fill-rule="evenodd" clip-rule="evenodd" d="M65.7384 49.0619C64.9051 49.3785 64.6051 49.4119 64.3551 51.0618C64.0051 53.4283 65.755 55.9115 66.805 57.5114C68.3549 59.878 72.438 62.5445 74.7712 61.2279C77.8377 59.4946 75.4212 52.795 70.4381 50.2452C68.6049 49.3119 67.7549 48.3119 65.7384 49.0619Z" fill="#855D41"/>
<path fill-rule="evenodd" clip-rule="evenodd" d="M69.7881 26.8131C68.0716 27.3797 67.5383 28.913 68.4049 30.8129L70.1548 33.5294C72.188 35.7293 76.3711 38.3458 79.6043 37.3458C81.2875 36.8292 81.3875 35.2793 80.8542 33.4294C80.3209 31.6462 79.3376 30.6962 78.371 29.7796C78.3376 29.7296 78.271 29.6796 78.2377 29.6296L76.8877 28.463C75.1378 27.2797 71.9547 26.1131 69.7881 26.8131Z" fill="#855D41"/>
<path fill-rule="evenodd" clip-rule="evenodd" d="M36.1566 49.4619C26.1738 53.095 26.6571 67.3609 36.6732 59.3613C39.2898 57.2615 43.2229 46.8954 36.1566 49.4619Z" fill="#855D41"/>
<path fill-rule="evenodd" clip-rule="evenodd" d="M52.2557 67.2442C47.3226 68.1608 47.4226 83.41 53.5556 82.1767C56.2388 81.6267 57.0554 76.7937 56.7054 73.7772C56.4055 71.194 54.7722 66.7775 52.2557 67.2442Z" fill="#855D41"/>
</svg>
