<svg width="66" height="99" viewBox="0 0 66 99" fill="none" xmlns="http://www.w3.org/2000/svg">
<path fill-rule="evenodd" clip-rule="evenodd" d="M12.665 28.4556C17.2583 20.2499 22.2074 11.0485 26.8007 2.84277C28.0506 5.11847 30.443 9.39177 31.693 11.6675C35.5476 20.0137 41.8843 27.101 46.639 38.62C50.4877 42.7797 47.2162 48.2312 51.4506 46.8556C51.8633 47.6989 52.276 48.5452 52.6886 49.3885C39.483 91.7955 14.3905 85.2166 2.75182 64.7921C-1.36298 57.5672 2.8415 42.5075 12.665 28.4556Z" fill="#FFCD65"/>
<path fill-rule="evenodd" clip-rule="evenodd" d="M30.2125 85.5515C30.9691 85.7847 33.1311 87.585 34.091 88.0634C49.8595 93.6734 62.9635 78.1472 64.1267 63.8531C64.339 61.2215 63.2326 47.9411 61.8271 46.2725C59.4497 47.4686 53.5855 51.1707 49.381 53.4285C41.3936 57.7197 32.9128 59.4512 29.1808 69.3644C24.9643 79.8218 26.3519 77.9588 30.2125 85.5515Z" fill="#799C4D"/>
<path fill-rule="evenodd" clip-rule="evenodd" d="M31.3907 84.3731C30.1138 81.8611 29.0074 81.4634 28.7771 77.9437C28.5977 75.2045 28.9894 72.7045 29.9583 70.1387C33.6904 60.2255 42.2639 58.5898 50.2512 54.2985C53.9922 52.289 58.0592 49.1909 61.3935 47.5133C62.799 49.1819 63.0382 61.2213 62.8229 63.8529C62.3504 69.6573 61.6387 72.549 58.747 77.528C54.3541 85.0937 42.2519 89.8575 33.7203 86.8222C33.4691 84.6272 40.7358 77.0854 41.6658 75.7338C42.5838 74.3941 43.7292 73.6823 44.7878 72.4593C49.1717 67.4085 50.6549 66.7625 54.6561 63.1531C55.7536 62.1633 56.561 62.0407 56.7673 61.2363C57.1142 59.8786 56.7015 59.2387 55.326 59.6394C53.122 60.2763 50.6908 62.9259 48.9026 64.3822L42.7064 70.665C41.4565 72.223 40.9361 72.2111 39.6413 73.9934C38.9714 74.9114 37.5301 76.3109 36.7675 77.223C35.7388 78.4491 32.0097 83.9185 31.3907 84.3731ZM41.609 55.4409C38.49 57.1095 33.5408 59.3194 30.4278 63.1142C27.9428 66.1405 26.7257 69.0203 26.2203 72.1243C25.2185 78.2607 26.1276 82.0974 29.4948 87.187C28.191 89.7349 24.0911 95.6319 25.1079 98.2456C27.5301 99.9082 28.3046 96.5949 29.124 94.8754C29.9882 93.0512 31.0887 90.7875 32.231 89.4538C43.1969 92.8778 55.625 88.5985 61.5849 78.6973C64.7876 73.3743 65.918 67.7883 65.903 61.619C65.8941 57.905 65.8671 55.0043 65.3348 51.35C64.8713 48.1831 65.0239 44.9954 62.5927 43.252C58.9174 44.2507 46.7644 52.6807 41.609 55.4409Z" fill="#324615"/>
<path fill-rule="evenodd" clip-rule="evenodd" d="M23.3555 81.3497L23.5081 79.4807C14.169 75.9521 8.99563 75.4497 4.58179 65.4258C2.67391 61.0927 2.70977 55.3511 3.66671 50.7967C5.36825 42.6897 9.24084 36.6581 12.9489 29.4542L26.7317 4.84015L30.4787 11.6673C34.3334 20.0135 41.1276 27.8573 45.8823 39.3764C49.3661 47.8093 47.216 48.231 51.4504 46.8554C50.5982 38.2669 35.984 14.6248 30.1707 4.80128C25.8316 -2.52822 27.6647 -4.00847 15.2216 18.9967C9.53688 29.508 0.514808 42.4027 0.0333519 54.6663C-0.244756 61.7028 1.16074 68.805 6.35508 73.9216C9.07635 76.601 19.6534 84.1906 23.3555 81.3497Z" fill="#324615"/>
<path fill-rule="evenodd" clip-rule="evenodd" d="M12.273 40.6621C9.86873 44.9473 7.71864 50.3809 7.90703 55.5095C8.05356 59.5106 10.6103 67.9675 15.7329 66.2121C17.6916 62.9735 14.8268 62.3306 13.9446 59.1727C11.343 55.1686 13.4602 47.3367 15.6671 43.0664C16.8184 40.8415 17.7365 40.4019 16.325 38.3774C13.7084 37.6418 13.6247 39.2626 12.273 40.6621Z" fill="#FDE9B3"/>
</svg>
