<svg width="86" height="96" viewBox="0 0 86 96" fill="none" xmlns="http://www.w3.org/2000/svg">
<path fill-rule="evenodd" clip-rule="evenodd" d="M10.4394 27.3521C9.71872 29.3018 12.0782 30.785 13.6332 29.2091C14.303 26.5476 11.4382 25.9525 10.4394 27.3521Z" fill="#2C4313"/>
<path fill-rule="evenodd" clip-rule="evenodd" d="M12.2217 21.6973C11.9047 23.8803 15.1941 23.5633 15.5171 22.2685C15.9687 20.4383 12.4699 19.61 12.2217 21.6973Z" fill="#2C4313"/>
<path fill-rule="evenodd" clip-rule="evenodd" d="M69.4105 11.0722C67.3441 12.6721 63.5941 10.7492 61.5517 12.1039L61.2795 14.9867C63.4655 16.5895 67.4218 14.4603 69.4135 16.2307C70.6156 18.5273 69.0666 21.425 70.4092 23.8024L73.5492 23.7814C74.5868 21.8945 72.9451 17.7408 74.6347 16.2785C76.2525 14.879 79.9815 16.3682 82.2064 15.2618L82.2842 12.2116C80.0324 10.6894 76.1897 12.9472 74.3416 11.0004C72.6461 8.38085 75.777 3.20744 72.0001 3.13268C68.1096 3.05792 71.0402 7.96518 69.4105 11.0722Z" fill="#F49A5D"/>
<path fill-rule="evenodd" clip-rule="evenodd" d="M73.1094 42.8753C73.7194 63.9487 70.4718 60.0133 68.1005 67.2351C61.3122 76.6968 56.7668 79.5766 46.8745 85.3391C43.2083 87.4742 44.1682 87.1393 40.4511 85.2165C30.0385 79.8307 31.8029 82.6746 23.0051 71.8135C14.0399 60.746 11.7552 56.3231 12.2157 41.9363C12.8198 38.7844 12.446 38.7366 12.5686 34.6457C11.7014 34.4872 9.51836 32.9621 8.58834 33.1774C7.87961 33.3419 8.7259 36.7061 8.25641 37.0111C8.54648 52.8184 5.74447 63.0904 17.3951 75.7458C22.6134 81.4157 32.0571 87.7613 39.252 91.1255C44.3805 93.5238 42.7956 93.4251 47.5773 91.1793C56.9881 86.7565 68.9796 77.4354 74.2876 68.4642C77.7595 62.594 79.3773 55.3662 79.4849 48.5929C79.5537 44.2449 77.4664 27.7498 79.3623 25.0405L76.6411 23.6499L75.3971 25.9914L74.2577 27.071C66.6471 27.5255 66.9192 25.2887 66.8535 18.5453L60.4091 18.1117C58.28 16.3832 58.582 16.6255 58.0407 13.9221L55.4959 13.0908L55.0413 14.7026C51.091 15.5101 45.1999 9.04479 41.8088 7.77686C40.7143 9.18833 29.7903 15.4801 27.5296 16.15C26.3035 16.0902 26.0763 15.3575 25.9118 14.2003L23.4866 15.0346C23.3849 16.5059 22.6612 17.3252 21.5009 18.0938C22.5536 20.2498 23.4238 20.6685 23.5703 23.5243C24.892 22.9621 25.4243 22.681 26.6564 23.6111L29.3537 22.9352L30.0834 21.8288L30.7084 21.1081L41.9822 13.7397C45.4242 15.229 49.2429 18.3091 53.5581 20.1332C55.5856 20.9915 57.646 22.0082 59.6795 22.9083C62.2423 24.0417 64.3834 24.0297 64.3445 26.8826L68.6597 28.5841L72.1435 30.2498C73.8032 29.9268 72.5472 31.0662 73.848 31.7958C75.0711 30.8209 73.4563 35.4321 73.4563 36.6074L73.1094 42.8753Z" fill="#9EBC6C"/>
<path fill-rule="evenodd" clip-rule="evenodd" d="M40.8042 29.2182C28.2415 31.7391 33.2115 52.5613 43.2593 50.0344C53.5583 48.1803 53.1785 27.4897 40.8042 29.2182ZM61.2257 73.7035C62.7657 72.8452 61.4769 58.2431 57.6581 55.3274C53.6211 53.5242 50.8639 53.578 46.9495 51.1708C45.6098 50.3484 43.3042 51.9961 40.2808 51.087C37.2695 50.1809 37.2665 51.5505 34.321 52.6869C31.1691 53.901 25.2152 54.9566 23.403 57.8603C21.851 60.3423 21.4831 70.0043 23.2714 72.2292C26.8569 76.6849 36.5249 82.582 41.6774 85.3033C44.5541 86.8224 49.7365 81.8165 52.1348 80.1508C54.8262 78.2818 59.3567 76.3649 61.2257 73.7035Z" fill="#FCE1BA"/>
<path fill-rule="evenodd" clip-rule="evenodd" d="M29.0668 22.7349L26.6566 23.6111C26.7911 24.9987 25.5202 23.9819 24.5812 25.0047C22.3324 25.5369 22.7959 27.6362 22.0334 29.7385L21.4652 31.0722C22.8767 32.2414 23.2236 31.5028 22.5178 33.2073C20.5202 34.1403 21.1572 33.5124 19.7607 32.4508L15.0268 34.4514C14.9072 37.379 12.9724 38.7605 11.9976 36.4848C10.9898 47.0589 10.3319 39.3736 13.5017 42.6481C14.0669 47.5822 13.6273 49.6965 14.6291 54.9626C15.2212 58.0816 19.0161 66.67 21.1871 68.7184C19.5783 52.2413 33.1128 54.1103 37.4729 49.7802C36.0704 47.5972 34.7725 45.7252 33.702 42.7587C30.6786 34.3856 34.5183 29.1852 42.2904 29.1434C50.0625 29.1015 53.8693 35.0704 50.9417 43.1594C49.9429 45.9196 47.3562 47.8663 46.4471 49.6875C50.3466 51.404 56.5218 52.2473 58.5283 55.151C61.5038 59.4542 62.4009 68.4613 61.9254 73.7034C66.0701 70.0671 71.6383 59.2388 72.3889 53.6019C73.0527 48.6319 73.8153 33.2911 72.1437 30.2498L68.6598 28.5842L64.3447 26.8826C61.2765 25.6506 56.1898 23.2313 53.5104 22.1368C49.8472 20.6387 45.3526 18.0011 42.2276 15.8301C40.3556 16.9844 30.9328 21.7451 29.0668 22.7349Z" fill="#EAEACC"/>
<path fill-rule="evenodd" clip-rule="evenodd" d="M8.25652 37.011C7.25773 36.0481 7.22184 35.9913 5.85223 36.2575C3.95332 40.0373 5.39769 55.5396 6.62675 60.1179C10.6758 75.1836 25.1045 86.9479 38.6391 93.4191C43.8005 95.8862 42.8316 95.8503 47.8136 93.4101C57.972 88.4341 70.5318 79.4778 76.07 69.4121C82.2811 58.1293 81.7249 48.2849 81.7249 35.8807C81.7249 33.6618 81.689 31.419 81.7309 29.2031C81.7757 26.7181 82.2871 25.1002 79.3624 25.0404C77.4665 27.7497 78.4892 44.2448 78.4175 48.5929C78.3098 55.3662 76.8984 61.7327 73.4265 67.6029C68.1185 76.5771 56.9882 85.6919 47.5774 90.1147C42.7957 92.3605 44.3807 92.7044 39.2521 90.3061C32.0572 86.9419 23.6033 80.4258 18.385 74.756C6.73739 62.1006 8.54659 52.8183 8.25652 37.011ZM34.1535 62.5162C34.303 60.0013 31.1481 60.411 30.8191 61.7028C30.4154 65.1119 34.0368 64.4809 34.1535 62.5162ZM37.733 68.9097C38.6391 66.7536 36.2079 65.5276 34.7366 66.954C33.7288 68.6824 36.4591 70.5933 37.733 68.9097ZM31.1122 70.076C31.9675 66.9869 28.7647 66.6101 28.0052 68.0634C27.0303 69.9235 29.2911 71.1735 31.1122 70.076ZM20.7863 25.8748C18.9891 35.8597 4.32114 33.0338 6.09445 23.3897C7.89169 13.629 22.5327 16.1739 20.7863 25.8748ZM6.75533 33.3777C7.05138 33.2102 7.28464 33.2192 7.51789 33.3298C8.0771 33.593 11.7792 35.3364 11.8091 35.3544C11.854 36.7838 12.0274 37.657 13.4987 37.6839C14.8414 37.7078 15.1225 37.1845 15.2032 35.2078C16.7224 34.4602 18.2415 33.7126 19.7606 32.962C21.1571 34.0236 20.9957 34.7563 22.9933 33.8233C23.699 32.1217 23.37 32.029 21.9586 30.8628C22.6135 29.864 23.3371 27.7946 23.7199 26.6194C23.8964 26.0811 24.8443 26.111 25.5829 25.9376C26.5219 24.9148 26.7911 24.9986 26.6565 23.611C25.4245 22.681 24.8922 22.9621 23.5704 23.5243C23.4239 20.6685 22.5537 20.2498 21.501 18.0937C22.6613 17.3252 23.385 16.5058 23.4867 15.0345C22.2307 12.4897 20.0716 14.9568 19.1924 15.8689C17.8198 15.4023 16.4443 14.9388 15.0717 14.4723C14.8803 12.6003 15.5382 12.3073 14.2613 11.0722C11.5639 10.0017 11.9108 13.3031 11.7822 14.574C10.3259 15.1063 8.86955 15.6356 7.41322 16.1679C5.80139 15.2887 5.65187 13.7487 3.25357 14.9388C2.6196 16.8437 4.27928 17.7408 5.31994 18.6709C4.60224 19.9298 3.88753 21.1888 3.16983 22.4448C1.87499 22.5405 0 22.2115 0 24.2061C0 26.2037 1.87499 25.8748 3.34926 25.8748C3.35225 27.7647 4.16564 29.1971 5.0179 30.8777C4.0849 31.4937 2.61661 32.7318 3.27749 33.9788C4.29722 35.9076 5.75055 33.9489 6.75533 33.3777ZM25.9119 14.2002C26.0764 15.3575 26.3036 16.0901 27.5297 16.1499C29.7904 15.4801 40.7144 9.18828 41.8089 7.77681C45.2 9.04474 51.0911 15.51 55.0415 14.7026C55.194 14.1643 55.3435 13.626 55.496 13.0908C54.7035 11.8258 47.5535 8.00408 44.7216 5.90481C43.2652 4.82527 42.5625 3.82349 40.8669 4.71762C39.4285 5.47718 26.3335 13.6918 25.9119 14.2002ZM29.3538 22.9352C31.0973 24.3108 40.1104 18.2881 41.9823 17.1338C45.8908 19.8491 57.1587 25.8478 61.6981 26.9124C62.7627 27.1636 63.6897 27.1995 64.3446 26.8825C64.3835 24.0297 62.2424 24.0416 59.6796 22.9083C53.5134 20.178 47.5056 16.129 41.9823 13.7397C37.7719 16.1948 33.5614 18.6499 29.3509 21.1021C28.4478 21.6314 28.5046 22.3371 29.3538 22.9352ZM69.4104 11.0722C71.0401 7.9652 68.1095 3.05794 72.0001 3.1327C75.7769 3.20746 72.646 8.38087 74.3416 11.0005C76.1896 12.9472 80.0323 10.6895 82.2841 12.2116C82.2572 13.2283 82.2332 14.2451 82.2063 15.2618C79.9815 16.3682 76.2524 14.879 74.6346 16.2785C72.945 17.7408 74.5868 21.8945 73.5491 23.7815C72.5024 23.7904 71.4558 23.7964 70.4092 23.8024C69.0665 21.425 70.6155 18.5273 69.4134 16.2307C67.4218 14.4604 63.4654 16.5895 61.2794 14.9867C61.3692 14.0238 61.4619 13.0638 61.5516 12.1039C63.594 10.7493 67.344 12.6721 69.4104 11.0722ZM58.0408 13.9221C58.5821 16.6254 58.2801 16.3832 60.4092 18.1117C62.5564 18.2552 64.7065 18.4017 66.8536 18.5453C66.9194 25.2886 66.6472 27.5255 74.2578 27.0709C74.6376 26.7121 75.0174 26.3532 75.3972 25.9914C75.8128 25.2109 76.2255 24.4304 76.6412 23.6499C76.6711 21.9842 76.701 20.3156 76.7309 18.6469C81.8295 18.6469 85.4061 19.7055 85.3582 13.638C85.3074 6.98435 80.6992 9.63684 76.9402 8.69187C75.7141 5.95565 78.9916 0.118371 71.9971 0.00174509C66.0193 -0.0999288 66.9941 4.2571 66.9941 8.92213C61.74 8.92213 58.5582 7.78578 58.0408 13.9221ZM56.9613 56.0241C60.7801 58.9397 61.1269 72.4444 59.5839 73.3026C57.7179 75.9641 53.926 78.2817 51.2317 80.1507C48.8334 81.8163 44.5541 85.5095 41.6773 83.9904C36.5249 81.2721 27.6523 75.7697 24.0668 71.311C22.2785 69.0891 23.3999 60.7938 24.952 58.3087C26.7671 55.405 31.9884 54.7232 35.1403 53.5061C38.0858 52.3728 37.2695 51.1078 40.2808 52.0139C43.3041 52.923 44.8621 51.0959 46.2018 51.9182C50.1163 54.3285 52.9242 54.2208 56.9613 56.0241ZM40.8041 30.6983C51.9912 28.6977 52.2723 46.9571 43.2592 49.1072C34.3359 51.2334 29.7815 32.672 40.8041 30.6983ZM14.7726 41.374C13.714 40.2796 13.0681 40.6175 11.9437 41.2694C11.9168 41.374 11.8899 41.4787 11.863 41.5834C11.4024 55.9702 12.7033 62.0826 21.6685 73.1501C23.8964 75.8983 29.9549 80.3869 33.056 82.3277C35.2808 83.7212 37.2545 84.8695 39.59 86.0777C43.3071 88.0005 43.2084 88.2098 46.8746 86.0777C56.7669 80.3151 62.3799 76.6967 69.1652 67.2351C76.7668 56.6371 73.591 43.0875 74.6017 31.0422C73.3009 30.3125 73.8033 29.9268 72.1436 30.2497C70.463 33.2222 71.7698 48.6318 71.1059 53.6018C70.3553 59.2387 67.2393 66.5862 63.0946 70.2225C63.5701 64.9803 63.2262 59.454 60.2478 55.1509C58.2412 52.2472 52.0211 51.4039 48.1217 49.6874C49.0307 47.8662 50.7801 46.7568 51.7789 43.9966C54.7035 35.9076 49.7514 27.4298 41.9823 27.4686C34.2103 27.5105 29.2193 35.8478 32.2396 44.2209C33.3102 47.1874 34.4674 47.5971 35.87 49.7801C31.5099 54.1102 18.7289 50.3542 20.3408 66.8344C18.1697 64.783 16.1661 59.0264 15.5711 55.9044C14.5693 50.6383 15.3408 46.3082 14.7726 41.374Z" fill="#324615"/>
</svg>
