<svg width="95" height="92" viewBox="0 0 95 92" fill="none" xmlns="http://www.w3.org/2000/svg">
<path fill-rule="evenodd" clip-rule="evenodd" d="M73.0173 48.4085C64.2255 49.5568 57.9995 58.226 59.1448 66.8952C60.3141 75.7229 68.6633 82.1014 77.5747 80.6182C99.6589 76.9429 93.7678 45.6992 73.0173 48.4085Z" fill="#9EBC6C"/>
<path fill-rule="evenodd" clip-rule="evenodd" d="M8.80135 69.1862C8.88209 70.9116 12.6679 74.0157 14.0017 74.7722C16.5345 76.2046 18.885 76.5814 22.1416 76.2615C29.6624 75.5198 27.5811 65.8279 23.6637 64.3507C22.4436 64.9218 23.5022 65.3136 21.4538 65.1282C20.1051 64.1204 21.2504 62.9123 21.9292 61.5188C23.6996 59.6826 20.0154 56.3723 18.9179 54.5362C16.0232 49.6947 16.4508 53.965 14.7553 52.0691C13.266 50.4034 17.7128 48.4537 16.4299 42.4519C15.8139 39.5751 17.4287 42.3562 15.6434 40.8371C13.3587 38.8903 15.6883 38.6122 16.394 36.9107C18.1135 32.766 16.4897 34.001 17.8354 31.9675C22.6559 33.1338 22.4825 30.1823 29.4172 33.7498C32.0697 35.1164 32.614 35.1164 36.2982 34.641C43.7712 30.7774 35.395 36.1003 40.4279 33.3461C40.4429 32.2755 40.9393 19.6082 40.2754 18.4389C24.6714 13.8965 34.2796 17.5897 27.1116 15.8283C21.5255 13.753 20.3712 17.1231 16.8485 16.9647C10.2338 16.6716 3.40067 21.4652 3.15845 28.3372C3.07173 30.7774 3.77148 33.2624 3.78045 34.8054C3.78643 35.7863 1.6752 37.5955 1.4569 39.3837C0.793034 44.7784 3.68775 46.48 3.85222 49.2641C3.95091 50.8998 3.32591 52.9602 3.78643 55.7921C4.60281 60.81 6.92636 62.3441 7.14765 63.7526C7.39287 65.3166 7.55136 67.7029 8.80135 69.1862Z" fill="#9EBC6C"/>
<path fill-rule="evenodd" clip-rule="evenodd" d="M19.3305 54.1532C21.3371 57.6818 22.4794 58.9079 22.2402 63.3068C26.1247 64.8827 27.1445 66.2882 28.544 70.107C31.8484 70.101 34.5098 70.3074 37.8113 70.3014C39.7401 71.9341 38.8669 71.8833 37.3328 73.4383C38.2209 74.0214 35.7658 86.5483 36.8214 90.056C38.1043 92.0147 45.2604 90.7976 46.9649 89.8377C45.8525 72.8313 50.6072 78.0256 52.2101 69.2308C52.4792 67.7625 50.5085 64.6046 51.7496 61.5963C52.5241 59.7213 56.7196 62.2213 57.7005 60.119C59.5216 56.2165 62.2489 46.6562 79.4019 46.2914C76.5191 44.0486 77.5897 41.4589 74.064 38.7795C71.0347 36.4739 79.3839 36.127 79.7129 30.3585C80.2003 21.785 73.8816 17.0153 73.421 16.8777C50.9212 17.105 48.5259 5.31381 51.295 0.532151C51.8183 -0.376933 41.8722 -0.0629407 40.9542 1.03155C38.4691 3.99803 43.2 13.4836 43.8967 17.6522C44.2347 19.6857 40.996 18.4208 40.5385 18.4387C38.8908 18.5075 39.8746 29.1205 41.3758 32.8943C34.9943 37.2514 29.7222 35.0773 26.056 32.3202C24.5907 32.6282 20.3592 32.2544 17.8353 31.9673C16.9113 32.5176 17.8353 34.9428 17.629 36.2227C17.315 38.2083 16.1039 40.7113 16.5614 43.1754C16.9292 45.161 15.9962 49.1652 16.7199 50.8159C17.8383 53.3637 19.5728 54.1562 19.3305 54.1532Z" fill="#FCE1BA"/>
<path fill-rule="evenodd" clip-rule="evenodd" d="M73.0174 48.4086C93.7679 45.6993 99.659 76.9431 77.5748 80.6183C68.6634 82.1015 60.3142 75.723 59.1449 66.8953C57.9996 58.2261 64.2256 49.5569 73.0174 48.4086ZM49.8956 0.870069C49.1689 3.59732 50.0212 9.10565 51.63 11.489C55.0241 15.6816 57.3387 17.1857 63.1521 17.1827C65.7507 17.1798 68.6933 16.9585 71.1454 17.8975C76.9767 20.1253 79.7548 27.0272 76.9677 32.7598C72.4522 42.045 52.0576 38.8991 43.1462 38.8961L24.0285 38.9828C22.321 39.5301 22.2193 41.8775 25.9005 41.8147C33.9477 41.6832 64.7938 42.9152 70.2333 41.3213C71.5671 40.9296 73.6125 39.554 74.2734 41.4469L77.6795 45.3943C72.8948 44.533 67.1861 46.1389 63.5707 49.0844C58.493 53.2202 57.7215 55.2536 56.4864 59.9187C50.8794 60.2267 32.8921 57.948 29.2079 60.0682C28.8341 63.4414 30.5566 62.4755 37.5871 62.4904C40.5715 62.4994 44.9016 62.2063 47.7156 62.5293C50.5355 62.8493 51.7407 66.683 51.2742 69.2308C50.7419 72.1614 48.3316 73.4383 46.5613 75.388C45.3262 76.955 44.9375 82.0447 45.0362 86.0698C45.0691 87.4813 45.096 88.7612 45.2604 89.7151C45.6851 92.1523 47.4076 91.4735 48.0116 89.8527C48.6635 88.1092 48.1552 85.2504 48.1432 83.6864C48.1282 80.7797 47.892 77.9807 50.1288 76.2224C54.7221 72.607 55.4876 67.912 52.874 62.8463H56.2263C55.054 66.0729 57.0726 72.293 58.8967 75.1668C65.9212 86.2044 82.5389 86.4256 89.967 77.1494C99.013 65.8576 94.4975 52.338 83.1728 47.0001C80.6729 45.8189 80.948 45.789 80.5981 45.0982C78.8098 41.5875 77.7004 40.9834 76.0138 38.7406C80.4486 34.2101 82.3894 30.185 80.4276 23.8962C78.9952 19.3 74.1956 14.3598 69.2704 14.2103C64.6114 14.2103 59.9045 14.8502 56.316 12.1559C52.9548 9.63196 52.5959 5.23606 52.5959 1.14818C51.3669 0.248063 50.8734 0.472344 49.8956 0.870069ZM37.9997 88.9735C38.1403 84.1769 37.3478 79.0692 38.4154 74.5208C39.9525 72.9688 41.023 70.726 39.0942 69.0903L29.187 69.1082C27.7845 65.2894 27.1206 63.8869 23.2361 62.311C23.3976 59.3445 22.2044 54.3804 19.6566 52.637C25.2935 52.1526 53.6097 53.3667 56.0648 52.1227C56.6689 50.9415 56.301 49.4911 54.8686 49.5001L17.8324 49.7034C18.5561 46.725 18.9927 43.8213 17.9371 40.81C16.7409 37.3919 19.6446 37.7089 18.8641 33.4476C21.0381 33.8184 21.8127 34.2311 24.211 33.8842C26.6601 33.5343 26.367 34.258 28.3467 35.4093C33.2659 38.2771 37.4316 36.9912 41.7348 34.1144C44.7909 35.5468 46.8902 36.3124 50.401 35.3674C53.7981 34.4553 54.3662 33.1067 56.4834 31.2825C58.0295 31.3274 67.8799 32.368 65.2154 28.938C64.5336 28.0619 55.9571 28.0918 54.8507 28.5792C54.0014 29.0816 53.3764 30.5648 52.1892 31.6354C47.9399 35.4661 42.8651 31.9853 40.2485 28.0888C39.2467 27.5953 39.48 27.706 38.3705 27.9422C37.2372 29.7724 39.2138 31.2257 39.6504 32.4398C35.2157 34.7335 31.7348 35.6605 27.931 31.6384L29.0345 28.3998C27.8264 27.4727 28.2181 27.1498 26.4926 27.5505C24.8599 29.7335 26.1487 31.4709 21.3192 30.9954C18.5681 30.7233 16.8546 28.005 15.0244 29.5032C13.6787 31.5397 17.3749 32.0271 15.6554 36.1748C14.9497 37.8764 10.3295 38.8901 12.6142 40.8369C14.3994 42.356 14.833 39.5749 15.4461 42.4517C16.729 48.4534 12.2134 51.4528 13.7057 53.1185C15.3982 55.0144 15.8617 51.2764 18.7565 56.1179C19.8539 57.954 21.4867 61.3212 19.7164 63.1543C19.0376 64.5508 18.9598 65.2685 20.3085 66.2733C22.3539 66.4587 21.5824 65.7829 22.8055 65.2117C26.7199 66.686 28.6816 74.5388 21.1578 75.2774C17.9042 75.5974 16.5346 74.8139 14.0017 73.3785C12.668 72.6219 9.94671 69.8468 9.86597 68.1214C8.61598 66.6381 9.03165 64.497 8.78643 62.933C8.56215 61.5245 5.66744 59.7452 4.85106 54.7273C4.39053 51.8954 5.35046 50.8996 5.25177 49.2638C5.0873 46.4798 2.59629 44.7782 3.25717 39.3835C3.47547 37.5953 4.85106 35.7861 4.84508 34.8052C4.83611 33.2622 4.01374 31.7191 4.09747 29.2789C4.34269 22.407 10.7033 17.7001 17.3181 17.9961C20.8408 18.1516 21.8067 14.8293 27.3928 16.9046C30.6792 18.1247 32.1565 20.0685 33.8281 22.9662L34.8179 22.8615C35.6373 22.5445 35.9064 22.1379 35.8885 21.6743C35.8616 20.9148 34.8 19.3747 34.2797 18.6989C37.0787 18.4417 41.1337 19.8622 44.1689 20.4363C44.7401 20.544 45.5326 21.8089 45.9363 22.3681C49.5337 21.462 47.8591 19.8771 46.1725 18.1277C42.285 14.0937 42.5093 7.8138 42.27 2.60451C42.2431 1.98848 42.1923 1.39937 42.1056 0.870069C36.8664 -3.04139 39.5846 13.8395 41.4776 16.7103C38.1821 16.0972 37.0936 15.3197 33.4274 15.6606C30.0243 15.9746 26.3431 10.8879 18.9807 14.5033C16.7977 15.5739 14.1871 14.6588 11.0711 15.7653C3.76554 18.361 -0.265531 25.2688 1.28649 32.7568C2.01017 36.2615 -2.09267 39.9158 1.48685 47.8195C2.58732 50.2447 0.236858 57.1735 4.76135 62.323C6.66624 64.491 5.48203 66.2793 6.93537 69.5956C11.5645 80.1637 27.8503 81.6111 28.9717 72.296L36.4716 71.9341C34.181 75.5256 34.809 78.4682 34.809 82.8581C34.809 84.8647 34.7282 87.0118 34.7821 88.9974C34.8628 92.1074 37.901 92.2211 37.9997 88.9735ZM72.6047 68.8839C71.3159 68.1483 68.4152 63.567 67.2728 63.3427C65.5623 63.0048 64.6084 64.8259 66.0258 66.0849C67.6765 67.5502 69.5426 70.4718 71.2202 71.7936C72.1323 72.5113 73.1281 72.7057 74.1687 71.36C76.585 68.235 82.9127 61.7518 85.5652 59.0544C86.0137 58.5999 86.229 58.0855 85.7147 57.314C84.997 56.2405 84.0759 56.4917 83.3224 57.1167C79.5365 60.2506 76.4145 65.4539 72.6047 68.8839Z" fill="#324615"/>
</svg>
