<svg width="35" height="33" viewBox="0 0 35 33" fill="none" xmlns="http://www.w3.org/2000/svg">
<path d="M32.8125 28.6346H31.9922C31.9197 28.6346 31.8501 28.6077 31.7988 28.5597C31.7475 28.5118 31.7187 28.4468 31.7187 28.379V17.4818C31.7194 17.4411 31.7096 17.4009 31.6902 17.3644C31.6709 17.328 31.6425 17.2964 31.6075 17.2723C31.5725 17.2481 31.5318 17.2322 31.4888 17.2257C31.4459 17.2192 31.4019 17.2224 31.3605 17.235C30.7332 17.4194 30.0818 17.5222 29.4246 17.5406C29.3439 17.5406 29.2674 17.5438 29.1922 17.5438C27.928 17.5465 26.6842 17.2464 25.5794 16.6719C25.4957 16.6284 25.4016 16.6056 25.3059 16.6056C25.2102 16.6056 25.1161 16.6284 25.0325 16.6719C23.9279 17.2464 22.6843 17.5466 21.4204 17.5438C20.1635 17.5454 18.9278 17.2417 17.8343 16.6623C17.7499 16.6177 17.6547 16.5942 17.5577 16.5942C17.4608 16.5942 17.3656 16.6177 17.2812 16.6623C16.1713 17.2439 14.9196 17.5477 13.6473 17.5444C12.382 17.5452 11.1384 17.2367 10.0399 16.6496C9.95493 16.6043 9.85881 16.5806 9.76102 16.5806C9.66323 16.5806 9.56711 16.6043 9.48211 16.6496C8.38363 17.2367 7.14009 17.5452 5.87479 17.5444C5.80028 17.5444 5.72508 17.5444 5.64442 17.5412H5.64032C4.96 17.5221 4.28605 17.4126 3.63875 17.2159C3.59776 17.2035 3.55422 17.2003 3.51168 17.2067C3.46914 17.213 3.4288 17.2286 3.39394 17.2523C3.35909 17.276 3.33072 17.307 3.31113 17.3429C3.29155 17.3788 3.2813 17.4185 3.28123 17.4588V28.379C3.28123 28.4468 3.25243 28.5118 3.20115 28.5597C3.14987 28.6077 3.08032 28.6346 3.0078 28.6346H2.22166C1.63104 28.6346 1.12108 29.059 1.0951 29.6113C1.08845 29.7493 1.11178 29.8871 1.16368 30.0165C1.21557 30.1458 1.29496 30.264 1.39705 30.3639C1.49913 30.4638 1.62181 30.5433 1.75766 30.5976C1.89351 30.6519 2.03973 30.6799 2.18748 30.68H32.7783C33.3689 30.68 33.8789 30.2556 33.9049 29.7033C33.9115 29.5653 33.8882 29.4275 33.8363 29.2981C33.7844 29.1688 33.705 29.0506 33.6029 28.9507C33.5008 28.8508 33.3782 28.7713 33.2423 28.717C33.1065 28.6627 32.9602 28.6347 32.8125 28.6346ZM15.3125 24.2883C15.3125 24.3561 15.2837 24.4211 15.2324 24.4691C15.1811 24.517 15.1116 24.5439 15.039 24.5439H9.02342C8.9509 24.5439 8.88135 24.517 8.83007 24.4691C8.77879 24.4211 8.74998 24.3561 8.74998 24.2883V20.1976C8.74998 19.9942 8.83641 19.7991 8.99025 19.6552C9.14409 19.5114 9.35274 19.4306 9.5703 19.4306H14.4922C14.7097 19.4306 14.9184 19.5114 15.0722 19.6552C15.2261 19.7991 15.3125 19.9942 15.3125 20.1976V24.2883ZM25.9765 28.6346H21.0547C20.9822 28.6346 20.9126 28.6077 20.8613 28.5597C20.81 28.5118 20.7812 28.4468 20.7812 28.379V20.1976C20.7812 19.9942 20.8677 19.7991 21.0215 19.6552C21.1753 19.5114 21.384 19.4306 21.6015 19.4306H25.4297C25.6472 19.4306 25.8559 19.5114 26.0097 19.6552C26.1636 19.7991 26.25 19.9942 26.25 20.1976V28.379C26.25 28.4468 26.2212 28.5118 26.1699 28.5597C26.1186 28.6077 26.0491 28.6346 25.9765 28.6346Z" fill="#F5FDE8"/>
<path d="M33.6719 10.8838L30.7379 4.58866C29.9695 3.04379 28.2147 2.04541 26.2672 2.04541H8.72959C6.78203 2.04541 5.02724 3.04379 4.25888 4.58866L1.3249 10.8838C0.709665 12.1245 1.52246 13.3983 1.52314 13.399L1.54228 13.4277C1.57578 13.4776 1.63525 13.5556 1.67148 13.6054C1.6749 13.6093 1.67763 13.6137 1.68105 13.6182L2.02285 14.0049C2.03563 14.0195 2.04932 14.0334 2.06386 14.0465L2.40566 14.3552L2.43437 14.3782C2.6351 14.539 2.84981 14.684 3.07627 14.8115V14.8147C3.82023 15.2361 4.66783 15.471 5.5372 15.4967C5.59326 15.4967 5.64931 15.4967 5.70605 15.4967C7.02147 15.499 8.28896 15.0352 9.25322 14.1986L9.27578 14.1788C9.37648 14.09 9.50963 14.0406 9.64799 14.0406C9.78636 14.0406 9.91951 14.09 10.0202 14.1788L10.0428 14.1986C11.0173 15.0337 12.2912 15.497 13.6132 15.497C14.9351 15.497 16.2091 15.0337 17.1836 14.1986C17.2847 14.1111 17.4174 14.0625 17.5551 14.0625C17.6929 14.0625 17.8256 14.1111 17.9267 14.1986C18.8983 15.0311 20.1676 15.4941 21.4855 15.4969C22.8034 15.4996 24.0748 15.0418 25.0504 14.2133C25.15 14.127 25.2807 14.0791 25.4165 14.0791C25.5522 14.0791 25.6829 14.127 25.7825 14.2133C26.7591 15.0468 28.0361 15.5052 29.3584 15.4967H29.5286C30.3762 15.4671 31.2008 15.2314 31.9212 14.8128C31.9861 14.7764 32.0483 14.738 32.1112 14.6997C32.5971 14.3934 33.0199 14.0078 33.3595 13.5613L33.4784 13.3932C33.4903 13.3762 33.5012 13.3583 33.5112 13.3395C33.6247 13.1235 34.2331 12.0126 33.6719 10.8838Z" fill="#F5FDE8"/>
</svg>
