<svg width="116" height="98" viewBox="0 0 116 98" fill="none" xmlns="http://www.w3.org/2000/svg">
<path fill-rule="evenodd" clip-rule="evenodd" d="M66.2966 77.6401C64.2333 82.5863 55.7255 80.3913 55.8033 77.3501C55.8332 76.2466 56.9606 75.5887 58.0222 76.2675C59.1286 76.9733 59.1137 77.5414 60.884 77.6132C63.5933 77.7269 64.93 74.3178 66.2966 77.6401ZM55.5072 71.5247C54.7477 67.9273 58.1149 67.7509 58.4917 69.8471C59.0539 72.9661 55.89 73.328 55.5072 71.5247ZM50.4684 74.4374C52.4391 79.1563 52.768 82.2723 58.8864 83.7854C64.5173 85.179 70.3516 80.9415 71.9635 75.4033C72.6572 73.0229 72.9473 74.4613 74.4694 73.4506C76.2667 72.2574 76.8707 68.639 74.0238 68.5912C70.546 68.5313 71.2009 67.8136 69.3977 64.6558C68.5963 63.2533 66.817 60.7354 65.869 59.5811C62.1161 62.1169 57.463 62.1708 53.1209 62.5834C52.1909 64.4614 52.5318 67.5176 50.917 69.0696L47.5617 68.4955C43.9882 71.6264 49.4098 73.5971 50.4684 74.4374Z" fill="#FCE1BA"/>
<path fill-rule="evenodd" clip-rule="evenodd" d="M15.2085 40.0212C14.0721 52.2071 25.3131 69.2763 37.8698 59.6442C42.9386 55.7537 45.3129 50.2543 46.0336 43.9775C47.0354 35.2814 42.2179 42.6139 35.5732 30.6343C34.5206 31.4178 33.462 33.0984 31.7784 34.3902C30.4686 35.395 28.6743 36.5254 27.0804 37.1952C22.861 38.9715 18.3484 38.8459 15.2085 40.0212Z" fill="#FCE1BA"/>
<path fill-rule="evenodd" clip-rule="evenodd" d="M75.8449 28.1939C76.3473 29.2615 76.2725 30.9271 75.9855 32.1353C73.5842 33.5946 73.6081 30.7148 73.8413 29.2645C74.0656 27.8739 74.7026 28.0713 75.8449 28.1939ZM75.8449 28.1939C75.5489 26.908 73.647 27.8769 73.4436 29.0342C72.5854 33.9863 76.2666 33.7172 76.5566 31.5252C76.748 30.1167 76.8437 28.4451 75.8449 28.1939Z" fill="#082502"/>
<path fill-rule="evenodd" clip-rule="evenodd" d="M66.4043 72.4847C67.9175 71.3543 67.2386 68.1187 64.9241 69.0667C63.079 69.8262 64.6938 73.7616 66.4043 72.4847Z" fill="#082502"/>
<path fill-rule="evenodd" clip-rule="evenodd" d="M55.5072 71.5248C55.89 73.3281 59.0538 72.9662 58.4916 69.8472C58.1148 67.751 54.7476 67.9274 55.5072 71.5248Z" fill="#2C4313"/>
<path fill-rule="evenodd" clip-rule="evenodd" d="M25.5283 42.6793C22.9476 41.7553 22.6366 44.0699 22.9506 45.4126C23.9584 49.7606 27.6007 45.0687 25.5283 42.6793Z" fill="#354D1A"/>
<path fill-rule="evenodd" clip-rule="evenodd" d="M75.845 28.1941C74.7026 28.0715 74.0657 27.8741 73.8414 29.2647C73.6081 30.715 73.5842 33.5948 75.9855 32.1355C76.2726 30.9273 76.3474 29.2617 75.845 28.1941Z" fill="#354A19"/>
<path fill-rule="evenodd" clip-rule="evenodd" d="M56.8291 86.3905C57.9834 91.6536 64.7118 90.9748 65.9947 86.3008C64.5982 86.4234 63.4499 87.171 61.4254 87.2039C60.0318 87.2278 58.115 86.872 56.8291 86.3905Z" fill="#FCE3BB"/>
<path fill-rule="evenodd" clip-rule="evenodd" d="M64.4784 28.0355C66.473 25.694 66.3444 17.8621 67.7918 16.5104C68.6351 15.6193 70.8838 16.8663 72.3342 17.0517C74.6547 17.3507 77.373 17.5212 79.6696 17.0965C82.977 16.4895 88.1714 13.2359 89.1134 13.2927C89.9776 13.7622 91.733 17.5331 94.2509 19.145C97.4177 21.1755 95.6026 25.2544 97.5074 28.4093C99.7383 26.8632 103.114 12.9339 98.1055 10.0571C96.8705 9.3484 93.8502 8.89386 93.6199 7.76049C93.3149 6.26529 93.9817 5.00633 91.3891 3.41244C88.5482 1.66604 84.4005 2.30898 81.1529 2.30898C74.3019 2.31197 67.8665 3.37655 63.4766 9.33345C58.6142 15.9363 61.79 27.0367 64.4784 28.0355Z" fill="#F49A5D"/>
<path fill-rule="evenodd" clip-rule="evenodd" d="M50.7586 59.7844C57.4212 58.6122 59.5563 60.3765 65.9468 56.0135C67.0324 55.2719 68.4977 55.0028 68.9103 56.5697C69.5054 58.8245 68.1777 57.9573 69.9779 60.1941C71.0724 61.5518 72.6753 65.0356 73.9761 65.6576C77.1041 57.5476 68.7309 48.9113 60.8602 48.9621C50.7586 49.0249 44.9153 63.3998 49.2544 65.7084L50.7586 59.7844Z" fill="#F49A5D"/>
<path fill-rule="evenodd" clip-rule="evenodd" d="M76.153 86.5399C78.7876 87.5476 80.827 90.0207 81.8707 92.6493C102.735 92.6493 97.1576 92.6493 112.047 92.6493C112.014 87.2456 112.232 74.0071 109.975 69.656C107.137 64.1866 100.501 62.1531 94.7713 59.9043C89.7564 64.991 84.6847 67.494 76.8318 66.1423C78.1028 68.1189 79.2929 68.3044 78.9191 71.4802C78.7038 73.2953 77.6811 75.1763 76.2517 76.0824C73.1327 78.0621 74.897 77.2188 73.052 80.0925C71.9515 81.8001 70.8391 82.3144 69.8074 83.7558C71.0125 84.3 75.5669 85.3736 76.153 86.5399Z" fill="#FFCD65"/>
<path fill-rule="evenodd" clip-rule="evenodd" d="M41.6616 96.1362L80.3336 96.818C81.2098 91.824 73.5364 86.0077 69.2033 85.3647C68.8265 85.7535 67.3791 89.028 66.4192 90.1045C62.8845 94.0608 55.4803 92.3653 54.963 85.4156C48.2136 87.2726 43.3572 89.1745 41.6616 96.1362Z" fill="#9EBD6B"/>
<path fill-rule="evenodd" clip-rule="evenodd" d="M32.9745 78.0229L30.3339 78.322C27.9565 78.2771 25.6509 77.4458 23.5277 76.3423C20.9171 74.9817 19.6701 73.1845 18.5308 70.4482C14.1887 71.3484 9.14687 74.1593 6.44953 77.1408C2.84907 81.118 3.85086 88.0079 2.97168 92.649H11.922C11.7844 90.4959 10.8125 84.85 14.1588 85.7771C15.349 87.0091 14.9453 90.8937 14.8586 92.649L39.8823 92.6849C41.6676 91.0073 42.5437 88.6269 45.1843 86.9702C47.3942 85.5827 49.8463 83.9709 52.6304 83.8542C47.6693 78.2682 50.3338 80.4332 48.3033 77.1438C47.4899 75.825 46.3834 76.5846 45.1753 74.7455C44.4726 73.6719 44.2872 71.7461 43.6352 70.9925C42.5976 71.0314 40.1305 74.4943 38.8715 75.3555C37.6425 76.1958 34.2902 78.2891 32.9745 78.0229Z" fill="#9EBD6B"/>
<path fill-rule="evenodd" clip-rule="evenodd" d="M74.8282 41.7884C74.6249 40.1526 76.1919 39.6263 77.4299 40.7716C83.3449 46.2411 87.0321 36.4535 87.6302 41.2441C87.9352 43.6813 83.3987 45.323 81.4221 45.3769C79.3228 45.4367 75.0944 43.9086 74.8282 41.7884ZM86.6075 27.7215C89.4244 26.005 89.8042 31.9589 88.2073 32.8052C85.3096 34.3482 84.9209 28.7472 86.6075 27.7215ZM75.845 28.194C76.8438 28.4452 76.7481 30.1168 76.5567 31.5253C76.2666 33.7173 72.5854 33.9864 73.4437 29.0343C73.647 27.877 75.5489 26.9081 75.845 28.194ZM95.2019 38.3165C97.9501 37.3327 99.2031 37.3356 99.8161 34.0701C100.97 27.8949 97.965 30.7687 96.4848 30.7597C94.1433 28.9864 93.8771 23.4452 93.9519 20.6402C91.733 19.6235 90.2139 17.3358 88.6589 15.4429C85.5937 16.4746 80.9257 21.5194 69.0209 18.6396C69.0358 21.2084 68.7128 23.4512 68.0968 25.9392C67.4958 28.3764 67.3104 30.9302 64.7625 30.1557C61.6764 29.2167 61.8529 33.0803 62.5466 35.1138C63.3062 37.3566 65.2829 37.8291 67.3433 38.3823C72.3193 56.4145 91.9962 53.4809 95.2019 38.3165Z" fill="#FCE1BA"/>
<path fill-rule="evenodd" clip-rule="evenodd" d="M24.0363 63.7349C23.9854 69.8592 19.434 72.9214 27.9387 75.2539C33.2258 76.7013 37.6336 73.6511 40.2233 69.7755C37.6187 69.0399 36.7963 66.4292 36.4734 63.9233C34.2455 64.2791 33.1271 65.3347 30.2862 65.2749C27.3436 65.2151 26.0608 64.0249 24.0363 63.7349Z" fill="#FCE1BA"/>
<path fill-rule="evenodd" clip-rule="evenodd" d="M73.6531 51.9348C74.5024 53.7351 75.546 54.6352 76.3415 56.8959C77.2057 59.3391 77.0292 61.5998 77.5406 63.2625C87.1249 64.7547 90.2708 59.3331 92.0291 58.6064C91.1201 55.7715 89.275 56.2979 89.9269 51.1035C82.9263 54.3601 81.0932 55.0299 73.6531 51.9348Z" fill="#FCE1BA"/>
<path fill-rule="evenodd" clip-rule="evenodd" d="M81.4221 45.3769C83.3987 45.3231 87.9352 43.6813 87.6302 41.2441C87.0321 36.4535 83.3449 46.2411 77.4299 40.7717C76.1919 39.6263 74.6249 40.1526 74.8282 41.7884C75.0944 43.9086 79.3228 45.4367 81.4221 45.3769Z" fill="#324615"/>
<path fill-rule="evenodd" clip-rule="evenodd" d="M35.5702 53.3401C36.0098 52.0064 34.5624 51.0255 33.4051 51.806C32.3794 52.4998 32.2448 53.69 30.624 53.8664C27.3436 54.2223 27.9058 49.934 25.023 52.2755C24.9064 54.5153 27.7473 56.0315 29.7778 56.1929C31.7036 56.3455 34.9811 55.1463 35.5702 53.3401Z" fill="#324615"/>
<path fill-rule="evenodd" clip-rule="evenodd" d="M60.884 77.6133C59.1136 77.5415 59.1286 76.9733 58.0221 76.2676C56.9605 75.5887 55.8332 76.2466 55.8033 77.3501C55.7255 80.3913 64.2332 82.5863 66.2966 77.6402C64.93 74.3178 63.5933 77.7269 60.884 77.6133Z" fill="#324615"/>
<path fill-rule="evenodd" clip-rule="evenodd" d="M86.6075 27.7217C84.921 28.7474 85.3097 34.3484 88.2074 32.8054C89.8043 31.9591 89.4245 26.0052 86.6075 27.7217Z" fill="#324615"/>
<path fill-rule="evenodd" clip-rule="evenodd" d="M22.2209 60.6102C17.4572 58.0354 14.6163 52.1563 13.6564 47.0217C11.2611 34.2078 14.3651 39.3932 23.4051 36.6809C33.4529 33.6666 34.1108 27.297 36.5569 27.9669C37.6933 28.2809 38.103 32.6588 40.3129 34.2706C44.1107 37.0338 43.8834 36.8633 47.4689 38.514C48.4767 42.6378 47.8846 47.8172 46.0216 51.6808C42.6962 58.5797 42.9893 56.31 38.1688 62.3536C38.1538 66.7764 41.9935 70.7656 46.0634 68.2028C46.0963 62.6197 44.942 56.2202 52.741 49.7819C52.5407 41.4446 52.0084 31.1337 46.4911 24.3515C40.9678 17.5602 31.1084 13.9628 22.6097 17.1326C6.17737 23.263 6.6678 49.9165 8.88668 63.9385C11.5123 64.6024 18.148 69.0341 21.0008 66.3218L22.2209 60.6102Z" fill="#6A563E"/>
<path fill-rule="evenodd" clip-rule="evenodd" d="M38.2227 44.0134C38.2107 43.2568 38.1898 42.4883 37.4123 42.1444C35.627 41.3519 35.2203 42.8322 35.2024 44.2676C35.1814 45.8495 35.633 46.4894 36.1922 46.5552C37.0833 46.6629 38.2466 45.3262 38.2227 44.0134Z" fill="#031900"/>
<path fill-rule="evenodd" clip-rule="evenodd" d="M99.9058 79.0728C99.3197 81.6116 99.6905 89.596 99.7653 92.6492C100.483 93.7228 100.411 93.4805 101.721 93.4835C102.364 93.3041 102.43 93.1187 102.783 92.6492L102.51 79.3C101.275 78.8126 101.278 78.7677 99.9058 79.0728ZM56.829 86.3903C58.1149 86.8717 60.0317 87.2276 61.4252 87.2037C63.4498 87.1708 64.5981 86.4232 65.9946 86.3006C64.7117 90.9746 57.9833 91.6534 56.829 86.3903ZM50.4684 74.4376C49.4098 73.5973 43.9882 71.6266 47.5617 68.4957L50.917 69.0698C52.5318 67.5178 52.1909 64.4616 53.1209 62.5836C57.463 62.171 62.116 62.1171 65.869 59.5813C66.817 60.7356 68.5963 63.2535 69.3977 64.656C71.2009 67.8139 70.546 68.5316 74.0238 68.5914C76.8707 68.6392 76.2666 72.2576 74.4694 73.4508C72.9473 74.4615 72.6572 73.0232 71.9634 75.4035C70.3516 80.9418 64.5173 85.1792 58.8864 83.7856C52.768 82.2725 52.4391 79.1565 50.4684 74.4376ZM24.0362 63.7349C26.0607 64.025 27.3436 65.2152 30.2861 65.275C33.127 65.3348 34.2454 64.2792 36.4733 63.9233C36.7962 66.4293 37.6186 69.0399 40.2233 69.7756C37.6336 73.6511 33.2257 76.7014 27.9387 75.254C19.4339 72.9215 23.9853 69.8593 24.0362 63.7349ZM50.7585 59.7846L49.2543 65.7086C44.9152 63.4 50.7585 49.0251 60.8601 48.9623C68.7308 48.9115 77.104 57.5478 73.976 65.6578C72.6752 65.0358 71.0723 61.5519 69.9778 60.1943C68.1776 57.9575 69.5053 58.8247 68.9102 56.5699C68.4976 55.003 67.0323 55.2721 65.9467 56.0137C59.5562 60.3767 57.4211 58.6124 50.7585 59.7846ZM73.653 51.9348C81.0932 55.0299 82.9263 54.36 89.9268 51.1035C89.2749 56.2978 91.12 55.7715 92.0291 58.6064C90.2707 59.3331 87.1248 64.7547 77.5406 63.2625C77.0292 61.5998 77.2056 59.339 76.3414 56.8959C75.546 54.6351 74.5023 53.735 73.653 51.9348ZM15.2085 40.021C18.3484 38.8458 22.8609 38.9714 27.0804 37.1951C28.6743 36.5252 30.4686 35.3948 31.7784 34.3901C33.462 33.0982 34.5206 31.4176 35.5732 30.6341C42.2179 42.6137 47.0354 35.2812 46.0336 43.9773C45.3129 50.2542 42.9386 55.7535 37.8698 59.6441C25.3131 69.2762 14.0721 52.2069 15.2085 40.021ZM95.2019 38.3165C91.9962 53.4808 72.3193 56.4144 67.3433 38.3823C65.2829 37.829 63.3062 37.3566 62.5466 35.1137C61.8529 33.0803 61.6765 29.2167 64.7626 30.1557C67.3104 30.9302 67.4958 28.3764 68.0968 25.9392C68.7129 23.4512 69.0358 21.2084 69.0209 18.6396C80.9257 21.5194 85.5937 16.4745 88.6589 15.4428C90.2139 17.3358 91.733 19.6234 93.9519 20.6402C93.8772 23.4452 94.1433 28.9864 96.4848 30.7597C97.965 30.7687 100.97 27.8949 99.8161 34.0701C99.2031 37.3356 97.9501 37.3326 95.2019 38.3165ZM21.279 61.552L21.0009 65.3378C18.1481 68.0471 12.4543 64.6022 9.83174 63.9383C7.60987 49.9163 6.88319 23.9685 23.3155 17.8382C31.8142 14.6683 39.99 17.5601 45.5133 24.3513C51.0306 31.1335 51.3117 41.4444 51.5091 49.7817C43.7131 56.2201 45.606 61.226 45.5701 66.8091C41.5032 69.3719 39.3052 66.7762 39.3172 62.3534C40.0229 61.4682 39.7717 62.0872 40.4894 61.4114L43.6533 57.9276C44.7328 56.2171 45.8482 54.5634 46.841 52.503C48.7041 48.6364 49.667 41.4504 48.6592 37.3237C45.0707 35.6759 44.7657 36.3787 40.9709 33.6126C38.758 32.0037 37.6934 26.9679 36.557 26.6539C34.1109 25.984 32.9596 32.5181 22.9148 35.5324C13.8748 38.2447 10.4418 34.2077 12.8371 47.0216C13.797 52.1561 16.5153 58.9772 21.279 61.552ZM64.4785 26.9559C61.7901 25.9571 59.9629 15.9363 64.8253 9.33344C69.2153 3.37655 74.302 3.12236 81.153 3.11937C84.4006 3.11638 88.5483 2.58409 91.3891 4.3275C93.9818 5.92138 92.1846 6.64207 92.4866 8.13728C92.7199 9.27064 94.876 9.45605 96.111 10.1648C101.12 13.0415 100.061 25.4607 97.8305 27.0097C95.9256 23.8519 98.2581 19.8686 95.0913 17.8412C92.5733 16.2263 90.3545 12.1983 89.4932 11.7288C88.5483 11.6719 82.6003 15.4099 79.2929 16.02C76.9963 16.4416 74.6548 16.4327 72.3343 16.1366C70.8839 15.9512 67.5855 14.5667 66.7422 15.4608C65.2919 16.8125 66.4731 24.6144 64.4785 26.9559ZM69.2033 48.457C66.6914 47.7721 65.7554 46.4713 62.1818 46.0287C59.32 45.6729 56.9037 46.3936 54.4725 47.6256C54.32 37.8021 52.9714 27.0516 45.6658 19.749C38.746 12.8322 26.5242 11.5434 18.2856 16.7168C10.4836 21.618 7.00879 32.5001 6.00999 41.1275C5.29827 47.2578 5.65414 52.3684 6.12662 58.4509C6.65293 65.2272 6.98787 67.452 14.4519 68.7469C11.608 70.5949 5.82459 70.3617 2.31086 78.0082C1.45859 79.8682 -2.79675 97.3591 2.97174 92.6492C3.85092 88.0081 2.84914 81.1182 6.44959 77.141C9.14694 74.1595 14.1888 71.3485 18.5308 70.4484C19.6702 73.1846 20.9172 74.9819 23.5278 76.3425C29.3382 79.3658 33.6055 78.9621 38.8716 75.3557C40.1306 74.4944 42.5976 71.0315 43.6353 70.9927C44.2872 71.7463 44.4726 73.6721 45.1754 74.7456C46.3835 76.5847 47.4899 75.8252 48.3033 77.1439C50.3338 80.4334 47.6694 78.2683 52.6305 83.8544C49.8464 83.971 47.3943 85.5829 45.1843 86.9704C42.5438 88.6271 41.6676 91.0075 39.8824 92.6851L39.4846 97.078L39.7627 97.3083L42.3435 96.8178C44.039 89.8562 47.2836 88.2025 54.033 86.3454C56.6436 97.718 69.0299 92.0721 69.2033 86.6654C73.5364 87.3113 80.4652 91.8239 79.589 96.8178C80.6386 97.7389 81.0962 97.377 82.2654 97.0959C82.7558 95.0655 82.705 94.5332 81.8707 92.6492C79.3767 86.3604 74.915 86.0673 69.8074 83.7557C70.8391 82.3144 71.9515 81.8 73.052 80.0925C74.897 77.2187 73.1327 78.062 76.2517 76.0823C77.6811 75.1763 78.7038 73.2953 78.9191 71.4801C79.2929 68.3043 78.1028 68.1189 76.8318 66.1422C84.6846 67.4939 89.7564 64.9909 94.7713 59.9042C100.501 62.153 107.137 64.1865 109.975 69.656C112.232 74.007 112.014 87.2455 112.047 92.6492C113.53 95.3047 115.136 92.4877 115.136 90.218C115.136 84.6469 115.094 74.0519 113.246 69.4526C109.783 60.8432 102.322 60.8043 95.6505 57.0275C91.9364 54.9252 91.8347 49.7907 94.5051 46.8003C95.9764 45.1526 96.434 44.0282 97.2563 42.0485C98.4943 39.0611 102.678 40.4995 103.088 32.838C103.282 29.1987 101.631 29.1389 101.416 27.2938C101.332 26.5642 102.463 22.9697 102.537 21.2143C103.177 6.30715 97.8843 9.99133 95.8688 5.67617C93.7934 1.24139 91.4878 0.10803 86.449 0.0841067C77.7917 0.0452314 68.8714 -1.10608 62.7979 6.4776C60.3427 9.54576 58.9013 13.4841 58.695 17.4016C58.3242 24.4828 61.7632 26.3578 59.9809 29.1598C58.0969 32.1233 59.2751 38.3225 62.738 39.9163C65.4533 41.1663 66.8708 45.8314 69.2033 48.457ZM11.922 92.6492C13.1092 93.6301 13.495 93.9829 14.8586 92.6492C14.9453 90.8938 15.349 87.0093 14.1589 85.7772C10.8126 84.8502 11.7845 90.4961 11.922 92.6492Z" fill="#324615"/>
</svg>
