<svg width="68" height="69" viewBox="0 0 68 69" fill="none" xmlns="http://www.w3.org/2000/svg">
<path fill-rule="evenodd" clip-rule="evenodd" d="M65.8784 47.7402C61.9684 48.0683 51.3049 47.6035 48.0785 45.6075L41.7624 51.8962C43.403 54.1656 52.8361 55.232 55.789 54.6852C59.5623 53.9743 62.652 50.9393 65.8784 47.7402ZM33.6418 42.2991C34.1613 41.9436 34.5987 40.9866 35.1456 40.4398C35.6104 39.975 36.4854 39.4008 36.7588 38.8539C36.458 38.2798 34.38 36.8306 33.7785 36.6939L31.9192 40.7132L33.6418 42.2991ZM62.734 28.2998C57.1835 29.4482 53.3556 29.995 47.8871 33.2488C44.442 35.3268 36.5947 40.1117 35.0089 43.7209C34.4073 45.0607 34.4073 46.2364 34.0519 47.5761C33.6144 49.244 33.1496 49.3261 32.4387 50.3924L34.8722 55.0133C36.4854 54.9859 62.2692 31.1707 62.734 28.2998Z" fill="#DACDB6"/>
<path fill-rule="evenodd" clip-rule="evenodd" d="M55.4063 6.67204C54.5314 6.61735 50.3754 8.80474 49.9652 9.59767C48.8442 9.78906 46.1373 12.578 45.4264 13.5623C44.196 15.2028 43.5124 18.0464 43.1843 20.1791C43.4577 21.1908 44.0319 22.0658 45.4264 22.9954C48.188 23.0774 49.9652 23.5149 52.7815 22.2845C54.3947 21.6009 56.8008 18.7027 57.8398 17.3355C59.3983 15.2575 61.0662 8.64068 60.6834 6.15253C59.4257 6.12519 56.4454 6.01582 55.4063 6.67204Z" fill="#6F9042"/>
<path fill-rule="evenodd" clip-rule="evenodd" d="M32.0559 19.3587C32.9309 17.6908 33.6965 13.07 33.5051 11.238C31.8919 7.05466 28.146 3.03534 23.4431 1.85962C22.5955 3.99232 22.1307 8.85926 22.4861 11.1287C22.7049 12.6325 24.8102 17.1713 26.0133 17.4447C26.5055 18.4291 29.4584 19.3587 30.6341 19.7688C31.7005 20.4251 30.9896 18.2924 32.0559 19.3587Z" fill="#749745"/>
<path fill-rule="evenodd" clip-rule="evenodd" d="M31.2904 51.1306C23.6893 54.1383 16.9631 57.7475 8.32288 59.2239C6.10815 59.5794 1.26856 61.0285 3.45595 64.3096C5.28788 67.1259 8.51428 66.579 11.1665 65.7041C18.7403 63.2433 25.8493 58.7044 33.2591 56.0522L31.2904 51.1306Z" fill="#A9652F"/>
<path fill-rule="evenodd" clip-rule="evenodd" d="M30.142 39.8929C30.7162 38.6352 31.6732 36.3931 32.2747 35.1354C26.2867 33.0027 20.3261 30.5965 14.1194 28.6552C11.2484 27.7529 1.45989 24.6086 1.70597 30.3778C1.788 33.0027 5.58858 33.3855 7.52989 33.6315C12.4515 34.2604 29.103 39.975 30.142 39.8929Z" fill="#A96631"/>
<path fill-rule="evenodd" clip-rule="evenodd" d="M40.6414 45.3887C40.3407 45.9355 39.6024 46.1816 39.2196 45.2246C38.8368 44.2403 41.3797 43.9942 40.6414 45.3887ZM31.0443 51.7594L32.7122 55.8881C25.5211 58.4583 18.959 62.423 11.3305 64.9111C8.67825 65.7861 5.72528 67.1258 3.89334 64.3096C1.70596 61.0285 6.10807 59.9895 8.3228 59.634C16.963 58.1575 23.4431 54.7671 31.0443 51.7594ZM31.7005 35.6822L29.9232 39.4554C29.3217 39.5101 16.9903 35.2994 14.8303 34.7799C12.6702 34.233 10.2094 33.6315 8.02203 33.3581C6.05339 33.112 2.58091 33.1667 2.47154 30.5418C2.2528 24.7726 10.975 28.1904 13.8459 29.0927C20.08 31.034 25.7125 33.5495 31.7005 35.6822ZM28.0366 31.5808C26.5875 30.6512 17.6739 27.6982 15.5412 27.042C11.932 25.9483 5.12375 23.1867 2.00672 26.085C0.311497 27.6709 -0.536115 30.3777 0.366182 32.5651C1.35051 34.8892 3.78397 35.19 5.94402 35.5728C8.24077 35.9829 18.7949 37.7602 19.9706 38.9632C18.7402 40.6585 16.2521 42.4904 14.8303 44.213C13.4632 45.8535 9.47118 48.1776 10.9477 49.9002C12.5062 51.7594 15.5138 47.6034 16.6622 46.373C18.3301 44.5137 20.2441 42.8185 21.8299 40.9866C23.6072 38.9632 26.9976 41.0686 29.1303 41.8889C31.7552 42.9005 33.7785 45.4707 31.8099 48.2049C30.2787 50.2556 20.08 53.8648 17.2911 54.7124C14.5022 55.5327 11.8773 56.3803 9.0337 56.9818C6.10807 57.6107 3.48321 57.3373 1.70596 60.1809C0.0380739 62.8057 1.21379 65.7861 3.53789 67.4539C5.88933 69.1492 9.60789 67.9188 12.0687 67.0711C22.6775 63.4346 31.2904 59.8801 40.4774 53.3453C54.9415 63.0792 70.9914 48.8885 67.3002 45.9902C66.7534 45.6621 52.8908 46.209 49.9652 44.2403C50.348 43.5841 57.7304 37.0493 59.0428 35.7642C60.3552 34.4518 69.1321 26.6592 63.3082 26.6592C53.6837 26.6318 46.356 32.1003 38.7275 37.2133L31.5638 32.5651C34.8175 28.4091 40.8055 31.7175 42.6101 30.5691C44.1959 28.163 39.5204 27.9169 38.0166 27.8896C38.2626 27.206 40.7235 25.7569 41.489 25.2374C44.1139 23.4328 42.7468 24.0617 45.8912 24.6085C52.7541 25.7569 58.3319 20.7806 60.656 14.7379C61.4489 12.7419 63.2535 6.58992 62.8161 4.7033C61.0661 2.98074 54.3673 4.97673 52.2893 6.01573C48.1059 8.12109 44.278 11.6483 42.4734 16.0504C41.5711 18.3198 41.9265 19.933 41.489 21.7102C41.325 22.3118 34.7081 27.0146 33.8058 27.3701C34.1613 26.1123 33.9699 23.8703 33.6691 22.5852C33.2043 20.6165 33.8058 20.7532 34.4074 18.8393C35.3097 15.941 35.419 12.5232 34.5441 9.62492C33.177 5.22281 27.4351 -0.0542632 22.7595 0.000421492C17.4005 8.06641 21.2831 19.7963 31.0169 22.1204C31.0443 24.0617 31.5091 24.9093 31.2357 27.2607C31.0443 28.9559 29.9779 31.4714 28.0366 31.5808ZM49.8011 54.1929C48.0239 54.0289 43.239 53.0719 42.282 51.7594L48.0785 46.0176C51.3049 48.0135 61.5583 48.2596 65.4683 47.9315C60.8748 52.4977 57.3202 54.9038 49.8011 54.1929ZM33.6418 42.299L31.9192 40.7131L33.7785 36.6938C34.38 36.8305 36.4581 38.2797 36.7588 38.8539C36.4854 39.4007 35.6104 39.9749 35.1456 40.4397C34.5988 40.9866 34.1613 41.9435 33.6418 42.299ZM34.8722 54.439L32.9036 50.3923C33.6145 49.326 34.2707 49.244 34.7081 47.5761C35.0909 46.2363 35.0363 45.3067 35.6378 43.9395C37.2236 40.3304 44.8521 35.7642 48.1332 33.7955C53.6017 30.5418 57.9765 29.6122 61.695 29.3387C60.574 31.9363 36.5401 53.7828 34.8722 54.439ZM28.2007 14.9293L29.7865 18.9213C23.033 16.5699 21.5018 8.94136 23.99 2.87137C30.0873 4.37519 34.9269 12.5779 32.0559 17.937C31.5364 17.3901 30.6615 14.5465 30.2513 13.5622C29.7318 12.3318 28.8569 9.1601 27.3257 9.3515C25.2204 9.59758 28.0913 13.5896 28.2007 14.9293ZM60.0818 6.75398C60.4646 9.24213 57.703 15.8316 56.1445 17.937C52.9455 22.175 50.1839 22.2024 45.4263 22.0383C46.274 20.2884 54.0392 15.6402 53.3009 13.8903C52.2072 11.2928 46.1372 18.6752 44.2506 19.5228C44.5787 17.3628 45.6177 15.2028 46.8481 13.5622C49.6371 9.76163 55.2422 6.64461 60.0818 6.75398ZM37.7978 43.4747C35.255 46.3457 40.5321 49.9549 42.2546 46.5371C43.8131 43.4474 39.9852 41.0139 37.7978 43.4747Z" fill="#3E2601"/>
</svg>
