<svg width="35" height="35" viewBox="0 0 35 35" fill="none" xmlns="http://www.w3.org/2000/svg">
<path d="M24.4433 15.3084C25.1619 15.3104 25.8738 15.1698 26.5377 14.8947C27.2016 14.6197 27.8044 14.2157 28.3111 13.7061L33.5747 8.44582C33.991 8.02951 34.0293 7.35207 33.6328 6.91525C33.5333 6.80551 33.4125 6.71713 33.2778 6.65548C33.1431 6.59383 32.9972 6.56019 32.8491 6.55661C32.701 6.55303 32.5537 6.57958 32.4161 6.63465C32.2786 6.68972 32.1537 6.77216 32.0489 6.87697L27.3574 11.5651C27.1999 11.7224 26.9864 11.8108 26.7637 11.8108C26.5411 11.8108 26.3276 11.7224 26.17 11.5651C25.8426 11.2383 25.8604 10.686 26.1871 10.3592L30.8581 5.6882C30.9628 5.58349 31.0452 5.45861 31.1002 5.32113C31.1552 5.18365 31.1817 5.03643 31.1781 4.8884C31.1745 4.74037 31.1409 4.5946 31.0794 4.45994C31.0178 4.32528 30.9295 4.20452 30.8198 4.105C30.6219 3.92546 30.3638 3.82667 30.0966 3.82814C29.7937 3.82835 29.5033 3.94883 29.2893 4.1631L24.6224 8.82931C24.4649 8.98665 24.2513 9.07502 24.0287 9.07502C23.806 9.07502 23.5925 8.98665 23.435 8.82931C23.1082 8.50256 23.1253 7.95021 23.4521 7.62345L28.1231 2.95382C28.2278 2.84911 28.3101 2.72423 28.3651 2.58675C28.4201 2.44927 28.4466 2.30206 28.4431 2.15402C28.4395 2.00599 28.4059 1.86023 28.3443 1.72556C28.2827 1.5909 28.1944 1.47015 28.0848 1.37062C27.8868 1.19108 27.6288 1.0923 27.3615 1.09377C27.0587 1.09412 26.7684 1.21459 26.5542 1.42873L21.294 6.68898C20.7843 7.19578 20.3803 7.79864 20.1052 8.46267C19.8302 9.1267 19.6896 9.8387 19.6916 10.5574V11.12C19.6917 11.2639 19.6635 11.4063 19.6085 11.5392C19.5534 11.6721 19.4728 11.7929 19.371 11.8945L16.9367 14.3295C16.9113 14.3549 16.8812 14.3751 16.848 14.3889C16.8148 14.4026 16.7792 14.4097 16.7433 14.4097C16.7073 14.4097 16.6718 14.4026 16.6386 14.3889C16.6054 14.3751 16.5752 14.3549 16.5498 14.3295L4.70452 2.48351C4.50007 2.27884 4.22287 2.16349 3.93359 2.16273C3.6443 2.16196 3.36649 2.27583 3.16096 2.47941C2.12532 3.50549 1.57229 4.95402 1.57229 6.66779C1.56545 9.49787 3.05295 12.7518 5.45442 15.1498L11.2957 20.9911C12.126 21.8197 13.2509 22.285 14.4239 22.2852C14.7978 22.2853 15.1702 22.2375 15.532 22.143C15.6228 22.1192 15.7163 22.107 15.8102 22.1068C16.0848 22.1068 16.3492 22.2106 16.5505 22.3973L17.3291 23.1164C17.5299 23.3216 17.6428 23.597 17.6436 23.8841V24.2628C17.6416 25.1237 17.9799 25.9506 18.5849 26.5631L24.7406 32.8228L24.7468 32.8296C25.43 33.5127 26.3567 33.8965 27.3228 33.8964C28.289 33.8964 29.2156 33.5125 29.8987 32.8293C30.5818 32.146 30.9656 31.2194 30.9655 30.2532C30.9655 29.2871 30.5816 28.3605 29.8984 27.6774L20.6712 18.4502C20.6458 18.4248 20.6256 18.3947 20.6119 18.3615C20.5981 18.3283 20.591 18.2927 20.591 18.2568C20.591 18.2208 20.5981 18.1852 20.6119 18.152C20.6256 18.1189 20.6458 18.0887 20.6712 18.0633L23.1055 15.629C23.2071 15.5274 23.3277 15.4467 23.4605 15.3917C23.5933 15.3367 23.7356 15.3084 23.8793 15.3084H24.4433Z" fill="#F5FDE8"/>
<path d="M14.4239 24.4729C12.6728 24.4693 10.9937 23.7754 9.75088 22.5417L8.80342 21.5943C8.7009 21.492 8.562 21.4346 8.41719 21.4346C8.27238 21.4346 8.13348 21.492 8.03096 21.5943L2.22041 27.3747C1.18476 28.4104 0.814941 29.9348 1.32764 31.4278C1.35633 31.5119 1.39035 31.5941 1.42949 31.6739C2.11924 33.0862 3.45771 33.9065 4.92197 33.9065C5.42553 33.9077 5.92433 33.809 6.38947 33.6161C6.85462 33.4232 7.27686 33.1399 7.63174 32.7827L15.381 24.9965C15.4136 24.9632 15.4385 24.9232 15.4541 24.8793C15.4697 24.8354 15.4755 24.7886 15.4712 24.7422V24.7245C15.4682 24.6818 15.4565 24.6403 15.437 24.6023C15.4174 24.5643 15.3904 24.5306 15.3575 24.5033C15.3246 24.476 15.2865 24.4557 15.2456 24.4436C15.2046 24.4314 15.1616 24.4277 15.1191 24.4326C14.8883 24.4582 14.6562 24.4716 14.4239 24.4729Z" fill="#F5FDE8"/>
</svg>
