<svg width="66" height="76" viewBox="0 0 66 76" fill="none" xmlns="http://www.w3.org/2000/svg">
<path fill-rule="evenodd" clip-rule="evenodd" d="M38.4352 73.4346C40.3765 74.5283 62.9886 72.8331 63.18 72.6143C65.7775 69.8254 63.3714 60.8845 64.1097 55.8535C61.5122 54.0489 39.0641 55.4434 38.4352 56.4824C37.4509 57.7128 37.2868 71.0832 38.4352 73.4346Z" fill="#E4D6AE"/>
<path fill-rule="evenodd" clip-rule="evenodd" d="M4.33947 42.5103C2.07006 44.5062 0.374831 51.4239 4.33947 51.3145C8.22208 51.2051 7.15573 45.0531 4.33947 42.5103Z" fill="#9FD5D1"/>
<path fill-rule="evenodd" clip-rule="evenodd" d="M16.0967 47.9787C16.6162 47.9787 17.5458 47.6506 17.7099 47.2405C18.202 46.0374 16.999 43.2758 16.0146 42.5376C15.5225 43.7407 13.2531 48.0334 16.0967 47.9787Z" fill="#9FD5D1"/>
<path fill-rule="evenodd" clip-rule="evenodd" d="M6.66357 34.9091C17.2177 35.5926 15.0303 24.7651 10.5735 23.3706L6.66357 34.9091ZM35.5644 41.4986C35.373 40.8424 32.42 35.3192 31.8459 34.4443C29.7952 31.3546 18.2841 30.1789 15.3037 29.55L14.1007 33.2412C15.3038 34.1162 32.256 40.3229 35.5644 41.4986ZM40.8962 14.6484L27.6625 26.8704L28.4554 28.7297L39.8298 44.9437L55.9891 28.7024C51.9972 26.1869 44.4507 18.285 40.8962 14.6484ZM59.4343 32.6123L56.6453 29.6867L40.322 46.0101L43.2476 48.5256L59.4343 32.6123ZM27.3344 25.9955L39.6658 13.6914L35.9199 9.64478C35.0176 11.3127 30.1506 15.6327 28.6741 17.3006C23.8072 22.2496 23.2877 21.566 25.5298 23.8354C26.0219 24.4917 26.7602 25.394 27.3344 25.9955Z" fill="#E2CEA1"/>
<path fill-rule="evenodd" clip-rule="evenodd" d="M51.0127 68.9504C51.8877 67.802 50.6026 67.2278 49.7823 67.7747C49.0167 68.2668 49.5636 69.4972 51.0127 68.9504ZM4.33939 43.3306C4.96826 44.2329 5.84322 46.0102 6.22601 47.0492C6.8002 48.6077 6.25335 50.549 4.33939 50.6037C0.374753 50.713 3.0543 44.397 4.33939 43.3306ZM29.549 33.5421C30.506 33.8155 30.9982 34.6358 31.5177 35.4287C32.0918 36.3036 34.4159 39.448 34.6347 40.1042C31.3263 38.9558 16.0966 33.6788 14.9209 32.8038C15.1123 32.0109 15.331 31.2453 15.5224 30.4797C20.0339 31.464 25.1196 32.3937 29.549 33.5421ZM19.3777 61.7867C14.8935 62.3062 12.8975 59.5446 12.1866 55.5253C15.3037 55.5253 19.1042 57.576 19.3777 61.7867ZM9.31569 72.6416C7.62047 72.5596 5.95258 72.4502 4.25736 72.3682C5.05028 70.2628 7.12831 69.88 9.20632 69.7706C9.94456 69.3058 10.0539 68.4035 11.6945 67.884C17.0809 66.0794 18.0652 70.6729 21.3737 67.884C24.7641 66.8997 26.0765 66.5989 28.7014 68.9777C30.2599 70.3722 33.7597 69.5246 34.58 72.5596C26.1586 72.5869 17.7371 72.6142 9.31569 72.6416ZM39.3649 72.5049C38.6267 70.9737 38.7087 57.4939 39.1735 56.8924C40.568 55.7987 49.6456 55.9081 52.5986 55.8534C54.7586 55.8261 56.9187 55.7714 59.1061 55.7714C61.7583 55.744 62.0043 55.58 62.6879 56.5643C64.0277 58.5876 63.5082 64.5209 63.5082 67.1731C63.5355 71.001 64.0824 72.6142 59.6256 72.6142C55.7977 72.5869 41.9351 73.9267 39.3649 72.5049ZM65.5862 56.4823C63.6449 52.2169 58.7233 53.2012 54.7039 53.3106C49.9737 53.4473 43.685 53.2559 39.2282 54.0488C38.2986 54.1855 37.5877 54.3769 36.7947 55.9354C36.1112 57.2479 36.4666 58.7517 36.4666 60.3375C36.4393 63.728 36.4666 67.1184 36.4666 70.5089C35.7557 70.0714 35.0722 68.9504 33.8691 68.1848C32.7207 67.4739 30.6154 67.2278 30.2052 66.927C26.7328 64.4389 27.4983 64.4936 22.6041 64.9037C22.522 63.3179 22.4673 61.732 22.4127 60.1735C24.354 59.5173 27.4437 60.3922 30.6974 56.3182C32.1739 54.4863 33.9238 48.8264 32.1192 46.7757C29.7678 45.9555 25.9125 47.5413 24.2173 49.1545C20.8541 52.4083 21.319 55.9901 20.7448 57.7947C19.5144 55.5526 15.413 53.0371 10.6828 53.7207C9.69849 61.2125 14.7568 63.2085 19.9245 63.9194C20.0065 63.9194 20.0612 64.0561 20.1433 64.4115C20.3346 65.1771 20.2253 65.806 19.5964 66.1341C19.5144 66.2161 14.9756 64.7943 13.4991 64.9037C9.61646 65.2045 9.39772 66.8724 7.72983 67.2278C4.91357 67.8567 4.61281 68.0481 2.64416 70.2081C1.46844 71.4932 -0.527547 73.8173 1.87858 74.911C15.6591 74.911 29.4943 75.0751 43.3022 75.0751C46.9114 75.0751 60.938 75.6492 63.3168 74.3915C66.4338 72.751 65.9416 69.6339 65.9416 66.6536C65.9416 63.2632 66.1877 59.818 65.5862 56.4823ZM22.9595 57.8494C23.5884 53.9121 25.8031 47.6234 30.8341 48.7444C31.5177 54.3769 27.7444 57.1658 22.9595 57.8494ZM51.7236 22.4411C48.716 19.6248 45.7357 16.8359 42.728 14.047C50.4932 3.71158 57.5476 13.5275 51.7236 22.4411ZM41.0055 11.9143C39.9391 10.8753 38.8727 9.83626 37.8064 8.79725C39.6657 3.95766 50.0011 -0.635849 56.4265 5.7896C59.2701 8.6332 60.0084 12.0236 59.7896 15.9336C59.7076 17.6835 57.903 26.351 57.1374 27.3627C56.0164 26.3237 54.8953 25.2573 53.7743 24.2183C55.2508 19.4608 58.6139 12.6799 53.7743 8.38712C49.9737 4.99667 43.1382 8.55117 41.0055 11.9143ZM43.2475 47.8421C42.646 47.2406 42.0718 46.6117 41.4703 46.0102C46.5286 40.9245 51.5869 35.8115 56.6453 30.7258C57.3288 31.3547 58.0124 31.9835 58.7233 32.6124C53.5556 37.6981 48.3879 42.7564 43.2475 47.8421ZM10.5734 23.9722C13.5811 25.1753 15.7138 34.4717 7.42907 34.1436C8.46808 30.7531 9.50709 27.3627 10.5734 23.9722ZM55.0867 28.9759C50.0831 33.9249 45.0795 38.8738 40.0758 43.8228C38.8454 42.0455 29.1389 27.7455 28.6194 27.4447C32.6387 23.4801 36.658 19.5154 40.6773 15.5508C42.2358 17.1093 54.2118 28.6478 55.0867 28.9759ZM27.3343 25.1753C26.7601 24.5738 26.3773 23.8355 25.8851 23.1793C24.4087 21.1833 24.5454 22.7692 29.0568 17.6562C30.506 16.0156 34.8261 11.969 35.7284 10.3011C36.8494 11.4221 37.9978 12.5432 39.1188 13.6915C35.1815 17.5195 31.2716 21.3474 27.3343 25.1753ZM46.2825 0.157079C39.2829 1.11406 33.4863 9.23473 28.7014 14.3477C26.596 16.5898 21.4557 20.3357 23.0142 23.2887C25.2563 27.6635 30.67 31.7648 25.8031 30.5344C23.5884 29.9602 21.4557 29.3587 19.1863 29.0032C16.288 28.5111 15.7958 28.265 14.7021 25.5854C12.4874 20.2263 9.34303 19.324 7.59312 25.6948C6.8002 28.6751 2.8629 36.0576 7.01894 36.7958C10.1086 37.3426 10.8195 35.6474 13.0616 35.1006C14.7295 34.6904 17.1903 36.1669 18.8308 36.7411C22.6861 38.0809 26.5414 39.5574 30.3693 40.9792C36.658 43.3033 35.8924 42.0729 39.6657 47.596C43.3022 52.9004 45.681 48.5803 48.6886 45.7367C67.6642 27.8002 59.2428 34.6084 59.4889 28.6204C59.5435 27.144 62.2504 20.4177 62.4418 15.5508C62.7973 6.22708 55.8797 -1.1827 46.2825 0.157079ZM16.0966 47.5413C13.6358 47.596 15.4677 44.0962 16.0146 43.0845C17.2176 44.0142 18.284 47.514 16.0966 47.5413ZM12.4601 46.9671C12.8155 49.0725 15.5771 50.467 17.5731 49.5373C22.3306 47.2953 17.9832 39.6121 15.5771 39.6394C14.1553 41.7448 11.9679 44.2056 12.4601 46.9671ZM3.81988 39.8035C0.593486 41.7448 -3.37115 54.2949 4.9956 52.9278C13.0889 51.6153 5.8979 38.5457 3.81988 39.8035ZM45.7904 60.2829C44.8607 60.4743 41.9624 61.4859 42.9741 62.9351C43.849 64.1928 45.4076 62.0601 47.4856 62.2788C50.0011 62.5249 51.7783 66.5989 56.1804 64.9584C57.1648 64.5756 59.2701 63.0991 58.2858 61.8414C57.0554 60.3375 56.4265 63.0444 54.5126 63.1538C51.2041 63.3179 50.4932 59.2165 45.7904 60.2829ZM46.3372 65.724C44.8334 65.0951 43.6577 67.0364 45.0521 67.6106C47.0208 68.4309 47.7043 66.2708 46.3372 65.724Z" fill="#3F2702"/>
<path fill-rule="evenodd" clip-rule="evenodd" d="M22.6861 58.1776C27.4711 57.494 31.6544 54.2403 30.9982 48.6078C25.9672 47.4594 22.4127 53.0646 22.6861 58.1776Z" fill="#749745"/>
<path fill-rule="evenodd" clip-rule="evenodd" d="M19.5965 62.0328C21.7839 58.8065 15.2217 55.1973 11.804 55.1152C12.3235 59.7361 14.9483 63.1539 19.5965 62.0328Z" fill="#749745"/>
<path fill-rule="evenodd" clip-rule="evenodd" d="M21.3735 67.1184C18.0651 69.9073 17.3542 65.2591 11.9678 67.0637C10.3272 67.6106 9.37026 68.7316 8.63202 69.1691C6.52666 69.3058 3.40963 70.6456 2.58936 72.7509L9.94445 73.2704L36.0837 73.2431C35.2634 70.1807 30.8066 69.8253 29.2481 68.4308C26.6233 66.052 24.764 66.1341 21.3735 67.1184Z" fill="#A9652F"/>
</svg>
