<svg width="64" height="68" viewBox="0 0 64 68" fill="none" xmlns="http://www.w3.org/2000/svg">
<path fill-rule="evenodd" clip-rule="evenodd" d="M48.8167 38.4979C48.4339 37.0761 45.9184 31.635 41.9538 30.2406C37.8524 28.8187 31.2902 31.4436 30.0872 30.678C25.439 29.1469 18.0566 29.9671 17.209 31.3889C12.8615 38.4159 11.8499 43.3375 12.9162 46.5092C13.8458 49.1888 17.4003 56.8993 20.1893 60.0163C33.0948 74.3437 41.1608 60.9733 46.1645 53.9463C47.4222 52.1964 50.7033 40.3299 48.8167 38.4979Z" fill="#BDD13F"/>
<path fill-rule="evenodd" clip-rule="evenodd" d="M14.748 18.0734C13.2442 18.4288 9.93578 20.6982 9.17019 21.7646C7.93979 23.4872 6.62735 25.155 5.83443 27.4244L5.09619 29.2017L5.61568 29.3384C9.60766 29.1197 12.9708 28.4361 16.2792 26.2761L18.3846 24.8543C18.9861 24.4988 18.822 24.3894 19.1228 24.034C20.9547 22.0927 21.2828 20.8623 21.9938 18.1554C22.0211 17.4992 21.5289 17.6086 20.7634 17.5265C20.2165 17.4992 19.7243 17.4445 19.1501 17.3898C18.0565 17.2804 16.9901 17.3351 15.9511 17.6632L14.748 18.0734Z" fill="#6B9414"/>
<path fill-rule="evenodd" clip-rule="evenodd" d="M28.8021 55.587C30.2786 56.1339 31.6458 56.3526 33.0129 55.3136C33.4504 55.8331 33.6144 56.7901 33.9972 57.4463C35.1183 59.3603 33.1496 63.9265 31.427 64.0905C29.4857 64.2546 27.7631 60.2079 27.8725 58.6494C27.9272 57.7744 28.4467 57.1729 28.8021 55.587ZM40.4773 49.9819C40.9695 50.4193 41.5437 51.8958 41.5164 52.4974C41.407 57.0909 37.3603 61.9578 35.1729 54.3293C34.8175 53.1262 35.7198 52.552 36.5127 49.7905C37.5244 50.474 39.493 50.8021 40.4773 49.9819ZM20.9002 50.5561C22.7048 51.3216 23.4978 51.1029 25.193 50.392C25.6578 52.8255 27.0796 52.8528 26.6148 55.0402C25.5484 60.0438 22.8962 59.6611 21.2557 55.6417C19.8612 52.2513 20.9549 52.3333 20.9002 50.5561ZM27.2437 49.4897C26.6968 46.8648 28.5014 46.5367 28.4741 43.5291C29.3763 43.201 29.9779 44.4861 32.4934 43.201C33.1223 44.0486 33.3957 45.7712 34.0245 46.8648C34.6261 48.4507 34.5987 48.6968 33.9698 50.4467C33.3136 52.2513 32.1106 53.6457 30.9075 53.8098C29.1029 54.0559 27.6811 50.9388 27.2437 49.4897ZM40.3953 38.0333C40.8054 39.127 42.282 41.6698 42.2546 42.3807C42.1452 44.2126 41.0789 48.8608 38.2353 48.1226C36.7041 47.7125 35.501 44.6228 35.0089 43.283C33.9152 40.4121 35.0089 42.5448 36.2393 37.2677C37.3603 38.1973 38.8915 38.4981 40.3953 38.0333ZM25.0563 47.1656C22.322 51.6497 19.3417 46.0719 19.3144 43.4471C19.3144 43.0916 20.7909 39.0723 21.0916 38.2793C23.7165 38.9902 23.6071 38.088 24.7829 37.6231C24.8102 37.6505 25.8218 40.0293 26.0406 40.4667C26.9976 42.408 26.1773 45.3884 25.0563 47.1656ZM32.7668 30.4321L34.4073 34.9436C34.4347 36.2013 33.6691 38.334 33.1222 39.4277C32.6574 40.2753 31.0442 42.244 29.8412 41.2323C28.2827 40.6855 27.4624 38.4161 26.9429 36.9396C26.2046 34.7522 27.271 35.299 27.4624 31.1703L25.4391 30.6235C25.193 32.182 24.7829 35.5451 22.9783 36.1467C20.1893 37.1036 20.162 31.8812 20.244 31.4985V31.0336C19.9159 31.225 18.0566 31.9359 17.8926 32.4281C18.084 32.8109 18.248 34.2053 18.4121 34.7795C19.0409 36.9396 19.1777 40.0293 17.0997 41.5331C15.5685 42.6268 13.5998 41.369 13.8459 39.8925C13.7912 41.205 13.5998 41.9706 13.6272 43.5291C15.049 44.2947 15.4044 44.4587 17.0176 44.1306C17.6465 46.1813 17.8379 47.3023 19.041 49.1069C18.8496 50.4467 18.3301 53.2083 16.7715 53.1809C17.2364 53.7551 16.6622 54.1926 17.4824 54.8488C17.9473 54.8761 18.2207 54.8215 18.6035 54.6027C18.8769 55.4503 19.9706 57.7197 20.0253 58.1572C21.0096 59.6337 22.24 60.7821 24.0719 60.8641C25.1656 60.9188 25.1383 60.5634 25.9859 60.2899C26.4781 62.1765 26.7515 63.1609 27.8725 64.446C29.5131 66.0592 33.1223 65.9498 34.5987 64.3913C35.6651 63.0515 36.0752 61.6297 36.3213 59.9071C39.7117 61.2742 42.0906 59.6611 42.9382 56.2159C43.1296 55.5597 43.1569 54.9582 43.321 54.3293C43.8951 54.5754 43.7584 54.6847 44.4146 54.8215C45.0162 54.3566 45.2349 53.5911 45.5903 52.9075C44.6607 52.6067 44.9888 52.7708 44.3873 52.1693C43.4577 51.2123 42.6647 49.517 42.6647 48.5874C42.6647 48.4234 44.1139 44.5407 44.3326 43.201C47.395 43.7752 47.4223 42.6541 48.2972 42.9549C48.4613 41.5331 48.516 39.8652 47.8051 38.4981C48.1605 39.8652 45.4263 44.2947 42.6374 37.7598C41.8171 35.8185 42.8288 35.5178 43.1295 31.3071L40.8054 30.4048C40.6687 31.9359 40.7781 37.0216 37.9618 35.7639C36.3213 35.053 35.5831 31.6078 35.1183 29.9126L32.7668 30.4321Z" fill="#799321"/>
<path fill-rule="evenodd" clip-rule="evenodd" d="M45.0981 20.5888C44.2231 22.3387 41.5162 21.7372 39.8484 21.5731L40.0397 21.9559L43.3755 22.12C43.5942 22.4481 43.5943 22.7489 44.0317 23.2137C44.7153 23.8699 44.5239 23.1863 44.7426 24.4167C44.6879 24.4441 44.6059 24.3894 44.5786 24.4441C44.4145 24.7722 44.5239 24.3894 44.2778 24.4714C43.7583 24.6628 44.1411 24.2254 43.895 24.7449L44.934 24.9909C47.887 24.8542 50.8126 23.7879 52.4258 21.3544C54.039 18.8936 54.3124 15.3391 52.3438 12.9603C46.7113 6.09739 39.821 11.0463 38.8914 14.4915C40.6413 14.9563 44.7153 15.2571 45.9731 15.8039C48.7893 17.007 46.5472 19.8232 45.0981 20.5888Z" fill="#F5C13E"/>
<path fill-rule="evenodd" clip-rule="evenodd" d="M42.938 19.9598C43.0747 19.3856 44.9886 18.2373 45.18 17.6084C19.9157 14.2179 18.3299 7.10892 4.19387 3.14429C3.61968 5.03091 2.1432 6.58942 2.17054 7.46437C2.22523 8.50338 38.6179 22.612 42.938 19.9598Z" fill="#B18848"/>
<path fill-rule="evenodd" clip-rule="evenodd" d="M29.3215 29.2837L31.1261 28.8735L31.1535 19.9873L29.3489 19.7139L29.3215 29.2837Z" fill="#865E22"/>
<path fill-rule="evenodd" clip-rule="evenodd" d="M43.8951 24.7447C44.1412 24.2252 43.7584 24.6627 44.2779 24.4713C44.5239 24.3893 44.4146 24.7721 44.5786 24.444C44.606 24.3893 44.688 24.444 44.7427 24.4166C44.5239 23.1862 44.7154 23.8698 44.0318 23.2136C43.5943 22.7487 43.5943 22.448 43.3756 22.1199L40.0398 21.9558C40.9421 23.6237 42.1452 24.2252 43.8951 24.7447Z" fill="#EBB63A"/>
<path fill-rule="evenodd" clip-rule="evenodd" d="M54.4218 25.2643C52.6719 26.0299 54.0664 27.2876 54.914 28.1353C55.7069 28.9282 56.7459 30.432 58.031 29.9398C59.7536 29.2563 58.1404 27.6704 57.4568 26.9869C56.5272 26.0572 55.7343 24.7175 54.4218 25.2643ZM5.09629 29.2016C7.09228 24.4714 10.1819 16.214 21.8845 17.7452C21.2009 22.202 16.3066 28.8735 5.09629 29.2016ZM47.2581 48.1772C45.7816 53.3996 40.3679 63.0514 34.5987 64.3912C33.0948 65.4575 29.3489 65.5122 27.8724 64.4459C19.7791 61.2468 11.7678 47.603 14.1739 38.9081C15.7598 33.1389 20.7361 29.3657 27.4623 31.1703C30.4426 31.8538 29.9231 31.9632 32.9308 31.0335C36.9774 29.8031 40.9147 30.268 43.7857 32.3733C48.9807 36.2012 48.844 42.5447 47.2581 48.1772ZM17.7831 29.8305C9.52574 35.381 9.6351 44.8688 13.8185 53.0715C17.2636 59.7977 23.443 67.809 31.7824 67.7543C44.7153 67.6723 60.6012 37.4863 42.9107 28.9555C41.0241 27.5611 35.8837 27.0689 33.7237 28.0806C33.7237 25.5651 33.7237 23.0496 33.7237 20.5341C34.2432 20.7802 39.1375 21.5731 39.8484 21.5731C43.0474 21.8739 44.5512 21.9285 46.5746 19.3037C47.4769 18.1553 47.8597 16.5968 45.9731 15.8039C44.7153 15.257 40.6413 14.9563 38.8914 14.4914C39.821 11.0463 46.7113 6.09734 52.3438 12.9603C54.3125 15.339 54.039 18.8935 52.4258 21.3544C50.8126 23.7878 47.887 24.8542 44.9341 24.9909C42.3092 27.233 45.4809 28.4087 49.965 26.6041C54.5039 24.7995 58.7966 18.1553 54.6679 11.8666C49.2815 3.60919 38.0985 6.75355 36.3486 14.054C26.6967 11.6478 16.3066 8.17536 7.88519 2.8436C5.83452 1.53117 3.59244 -0.738242 1.89722 2.40613C0.256678 5.44112 -0.508901 7.13635 0.366054 8.53081C2.38939 11.8119 13.6271 13.9446 15.1036 15.4211C11.8225 15.6398 7.52974 19.4404 5.64312 22.284C4.52209 23.9792 3.53776 25.9752 2.88154 27.8071C2.00659 30.2953 0.74884 32.1819 5.12361 31.9358C9.93586 31.6624 13.6271 30.8695 17.7831 28.2993C21.3103 26.0846 24.0445 22.6941 24.4273 18.4287C25.2749 18.2373 25.9585 18.6475 26.8608 18.7842C26.8608 21.9285 26.8608 25.1003 26.8608 28.2446C22.5954 27.8618 21.8024 27.5064 17.7831 29.8305ZM31.1535 19.9872C31.1535 22.9402 31.1262 25.9205 31.1262 28.8735C30.5246 29.0102 29.9231 29.1469 29.3216 29.2836C29.3489 26.0846 29.3489 22.9129 29.3489 19.7138C29.9505 19.7958 30.552 19.8779 31.1535 19.9872ZM42.856 19.249C32.6026 19.8779 9.6351 10.4721 4.08461 8.03864C0.967586 6.69887 3.37371 6.26139 4.19398 3.63653C13.7365 9.32373 23.607 15.2023 44.1958 17.9639C44.0591 18.4287 43.2388 19.0576 42.856 19.249ZM33.3683 5.60518C31.7551 6.67153 32.9854 7.60117 33.8604 8.47612C34.5713 9.18702 35.583 10.6635 36.7314 10.062C37.2235 9.78855 37.5243 9.05031 37.3602 8.47612C37.3602 8.47612 34.7354 4.73022 33.3683 5.60518ZM45.2895 0C43.567 0.0546847 43.895 1.6132 43.895 2.98031C43.895 4.21072 43.4575 6.15202 45.1254 6.15202C46.7933 6.15202 46.4379 4.32009 46.3559 3.33576C46.2465 1.96865 46.8754 0.437477 45.2895 0ZM55.4882 3.17171C54.4492 3.82793 53.711 4.92162 52.8907 5.82392C51.1681 7.71054 52.918 8.85891 54.0664 8.25738C54.5859 7.98396 56.0897 6.15202 56.6639 5.57784C58.3044 3.96464 56.7186 2.35144 55.4882 3.17171ZM58.4685 15.093C57.074 15.6945 57.6482 17.253 58.6872 17.4991C59.3435 17.6631 62.5152 17.6631 63.0894 17.4444C64.3198 16.9522 64.0737 15.1477 62.8433 14.9289C61.859 14.7649 59.2067 14.7649 58.4685 15.093Z" fill="#373512"/>
</svg>
