<svg width="64" height="64" viewBox="0 0 64 64" fill="none" xmlns="http://www.w3.org/2000/svg">
<path fill-rule="evenodd" clip-rule="evenodd" d="M24.5005 11.398C24.6373 10.9058 25.1841 11.8355 25.2935 11.4527C26.7426 7.05054 26.6879 7.18725 28.5199 3.24996L27.1528 2.48438C26.4965 2.53906 24.1724 10.3316 24.5005 11.398Z" fill="#A26E3E"/>
<path fill-rule="evenodd" clip-rule="evenodd" d="M46.511 13.6127C46.5657 13.4213 48.4796 16.9485 50.0655 16.8118C52.4443 16.6204 55.78 12.7651 55.9988 12.519C56.7097 11.7261 50.6944 8.44503 51.2412 7.70679C49.71 7.95287 46.511 11.9722 46.511 13.6127Z" fill="#A4713F"/>
<path fill-rule="evenodd" clip-rule="evenodd" d="M53.6746 21.0771C50.8857 18.5889 46.9758 15.6633 44.0775 15.0618C41.3979 14.5149 37.652 18.2882 35.0545 17.6593C33.578 17.3312 33.8515 14.5696 32.539 13.9681C29.0939 12.4642 25.0745 12.1635 22.0942 12.9017C13.126 15.1711 10.1457 21.4325 11.4307 28.0494C15.122 31.3851 23.4887 33.4085 33.1132 34.6662C39.9761 33.8733 43.8588 29.936 52.4989 28.7329C54.4402 28.4595 54.3582 24.3308 53.6746 21.0771Z" fill="#91B649"/>
<path fill-rule="evenodd" clip-rule="evenodd" d="M29.887 17.7414C31.3908 17.6594 31.4455 18.1516 32.3204 19.1085L32.129 20.0929C32.3751 19.7921 32.6759 19.3273 32.9767 18.9445C33.4962 18.2609 33.6329 18.0148 32.922 17.386C32.6759 17.5774 32.7852 18.1789 32.4298 17.1399L32.3478 17.8508C31.3634 16.9758 32.5392 17.8508 31.5002 17.6594C31.2541 17.6321 31.3908 17.4953 30.8986 17.4133C29.7229 17.2493 30.1877 17.4133 29.887 17.7414Z" fill="#8EB346"/>
<path fill-rule="evenodd" clip-rule="evenodd" d="M40.4683 27.0377C37.2146 25.0417 37.2966 32.3148 41.5347 30.7836C42.7924 30.3188 44.0229 29.6899 43.8588 27.9127C43.7768 26.9283 42.7651 26.901 42.1636 27.4205C41.5074 27.9947 41.9722 28.5142 40.8511 28.897C40.3316 28.0494 40.8238 28.0494 40.4683 27.0377Z" fill="#7B9C35"/>
<path fill-rule="evenodd" clip-rule="evenodd" d="M20.1804 20.1749C18.3211 20.1202 18.6492 18.4523 18.3758 17.6047C17.3641 17.4133 16.1064 17.3313 15.833 19.3546C15.4775 21.624 18.2391 22.6084 19.989 22.8544C21.3835 22.6904 22.4771 22.1709 23.2974 21.0225C24.3091 19.628 24.2544 18.6437 23.5709 17.1946C19.907 17.6047 22.942 19.4913 20.1804 20.1749Z" fill="#7B9C35"/>
<path fill-rule="evenodd" clip-rule="evenodd" d="M26.9611 23.2644C25.594 25.5065 24.8831 22.4168 24.0355 21.9793C21.6021 22.2528 23.352 24.7956 24.1449 25.8073C23.434 26.5455 22.8871 26.983 21.6841 26.5729C19.9342 25.9987 21.356 24.0847 19.0045 24.4128C17.9655 24.5495 18.2116 25.7526 18.403 26.5455C18.9772 28.3228 19.9068 28.0767 20.8638 28.9243C24.5277 29.5532 24.2816 28.8696 26.551 26.901C28.1369 25.5338 29.8868 24.3855 28.9572 21.7606C27.5627 21.3231 27.1799 22.1434 26.9611 23.2644Z" fill="#799935"/>
<path fill-rule="evenodd" clip-rule="evenodd" d="M39.4021 21.2411C39.8122 18.4796 36.5585 19.6826 36.5311 22.2801C36.5038 24.3035 38.0623 25.9987 40.1403 25.7526C42.6011 25.4245 44.4331 22.5536 42.6011 21.952C41.0153 21.4325 41.2887 22.9637 40.3591 23.3738C39.1287 23.948 39.32 21.8973 39.4021 21.2411Z" fill="#799935"/>
<path fill-rule="evenodd" clip-rule="evenodd" d="M46.8664 24.7411C46.4563 23.8388 46.8391 22.6084 45.6087 22.4444C44.3783 22.2803 43.9135 23.1279 43.9681 24.2216C44.1322 29.2526 52.0615 27.284 50.7764 23.1826C50.4756 22.2803 49.1359 21.9249 48.7257 23.292C48.3976 24.3583 48.1242 25.0692 46.8664 24.7411Z" fill="#799935"/>
<path fill-rule="evenodd" clip-rule="evenodd" d="M22.2038 9.64794C21.7116 5.43723 18.4032 4.99975 15.1768 4.83569C15.833 7.10511 19.1141 10.2221 22.2038 9.64794Z" fill="#5E7221"/>
<path fill-rule="evenodd" clip-rule="evenodd" d="M29.3673 18.343C29.1486 20.3117 29.6955 20.4757 30.8712 21.7882C31.336 21.6514 31.254 21.4054 31.336 21.7335L31.6094 21.214L32.1289 20.0929L32.3203 19.1086C31.4454 18.1516 31.3907 17.6595 29.8869 17.7415L29.3673 18.343Z" fill="#7EA137"/>
<path fill-rule="evenodd" clip-rule="evenodd" d="M5.47023 53.0404C5.82568 53.4505 30.4612 61.6532 31.6916 61.3251C39.2654 59.3291 50.3937 55.0364 58.0222 52.4936L57.8855 37.5646L61.44 34.639L57.7761 28.1862C53.7295 29.0612 37.2694 33.3813 33.1133 34.6664C31.9376 35.0218 25.7856 34.9671 6.07177 27.1746L1.83374 34.5296L5.16947 36.3616L5.47023 53.0404Z" fill="#A4713F"/>
<path fill-rule="evenodd" clip-rule="evenodd" d="M29.6408 36.1975L26.1137 42.3495L2.79066 34.5296L6.07173 28.5416L29.6408 36.1975ZM50.0656 16.2922L49.1086 15.1985C50.0929 13.6127 51.3233 12.1089 53.4834 10.5777L55.0965 12.437L50.0656 16.2922ZM56.4363 14.1322C58.4049 12.601 58.1042 11.8628 56.3816 10.1402C55.3973 9.15589 54.1395 7.73409 52.9912 7.02319C52.0615 6.449 50.6944 6.31229 49.6281 6.74977C47.3587 7.6794 44.9525 12.0815 44.7338 14.4056C41.5074 14.1049 39.238 14.0775 35.2187 16.6203C34.2343 15.0618 34.2343 14.679 32.3477 13.4486C30.8986 12.4917 29.2033 12.1089 27.3988 12.1089C28.9299 9.07386 28.8479 7.59738 31.09 3.90616C32.047 2.32031 31.3087 1.52738 29.8049 0.898508C28.4378 0.351661 27.2894 -0.742032 26.1957 0.761796C25.5942 1.63675 23.7075 4.86314 23.6802 5.98418C22.2584 5.0272 22.3951 4.26161 20.2898 3.414C18.4032 2.64842 16.9813 2.81247 14.8486 2.81247C8.80598 2.92184 16.4345 11.9448 20.6999 11.9448C20.4538 12.5737 19.9617 12.3003 18.4852 12.8744C14.001 14.7064 10.6379 18.4796 9.92701 23.2919C9.87232 24.4676 10.1184 26.4362 9.95433 27.2018C9.32546 26.8737 7.2748 26.2722 6.50922 26.1081C5.30615 25.8621 4.26716 26.3816 3.66563 27.5573C2.92739 29.0064 0.357205 33.1898 0.0290969 34.5843C-0.107615 35.2678 0.247829 36.0881 0.876702 36.4982C1.83368 37.1544 3.22813 37.1818 4.02105 37.7286C4.02105 40.0254 3.63826 52.8489 4.32182 53.9426C5.11475 55.1457 25.4575 61.5711 28.7385 62.6648C32.4298 63.8952 31.5821 63.7585 35.164 62.5555C42.273 60.0946 49.4913 57.6338 56.655 55.2551C60.2642 54.052 59.4713 53.8606 59.4713 47.9C59.4713 46.0407 59.7721 38.795 59.3072 37.5646C64.7484 36.6896 63.7367 34.7757 61.4946 31.0024C59.3619 27.4206 59.7994 24.8504 54.577 26.9011C54.577 22.0888 54.1943 21.8154 51.4327 17.3312C53.1006 16.1555 54.577 15.5813 56.4363 14.1322ZM28.0003 3.00387L28.5198 3.24995C26.5238 7.54269 26.8519 5.13657 25.0473 11.1792C24.9926 11.0152 24.6098 11.1245 24.6098 10.8785C24.6372 9.53868 26.9066 3.08589 28.0003 3.00387ZM15.5049 5.16391C18.7313 5.32796 21.4108 5.62873 22.0123 9.37463C19.1687 9.92148 16.79 7.32395 15.5049 5.16391ZM32.9766 18.9444C28.3284 24.9051 34.6992 33.0804 30.8165 33.5999C29.3401 33.764 14.2471 28.5416 12.6612 28.0494C10.7473 24.0301 13.3995 19.4913 16.2704 16.8117C19.4695 14.1322 28.4378 13.4213 31.9649 15.5813C33.4687 16.511 34.0703 17.55 32.9766 18.9444ZM57.366 28.5963L60.5923 34.6389L37.1873 41.912L33.9883 36.1701L57.366 28.5963ZM47.8235 14.515C47.7961 14.2962 47.0579 14.2142 47.0306 13.9408C46.9759 12.1362 49.7921 8.52702 51.1045 8.30828C51.0225 8.44499 52.3623 9.21057 52.2803 9.34729C51.5694 10.359 48.3156 12.4096 47.8235 14.515ZM35.1093 20.0381C37.1873 17.6594 39.8669 16.2102 43.148 16.5383C48.1243 17.0305 53.1826 21.5967 52.7724 27.1745C52.0615 27.9948 49.1086 28.733 45.3627 29.9361C42.0543 30.9751 37.4334 32.8343 34.2343 33.5179C34.5351 32.4789 34.9179 31.3032 34.5898 30.2368C33.9062 26.6003 31.6915 23.9207 35.1093 20.0381ZM33.8242 60.3954C32.5938 60.7235 33.25 60.6141 32.8946 60.204L33.0039 39.5332C34.0703 40.5722 34.9726 44.7009 36.6678 44.7283C37.4334 44.7556 42.3277 42.9784 43.5034 42.6229C47.6594 41.3378 53.0459 39.1231 57.0652 38.2755L57.0105 52.4935C49.8195 54.8996 40.9059 58.5088 33.8242 60.3954ZM30.7618 39.916L30.6252 60.5595C23.4888 58.7549 14.001 54.9543 6.56391 52.5755L6.70063 38.5216C9.29815 39.5059 25.5668 45.4118 27.18 44.6189C28.3831 44.0447 29.3401 42.1034 30.7345 38.9864L30.7618 39.916Z" fill="#433018"/>
</svg>
