<svg width="24" height="24" viewBox="0 0 24 24" fill="none" xmlns="http://www.w3.org/2000/svg">
<path fill-rule="evenodd" clip-rule="evenodd" d="M9.87858 1.62868C10.4412 1.06607 11.2042 0.75 11.9999 0.75C12.7955 0.75 13.5586 1.06607 14.1212 1.62868C14.6838 2.19129 14.9999 2.95435 14.9999 3.75V13.6533C15.6671 14.1247 16.2175 14.744 16.6075 15.4639C17.0295 16.2427 17.2503 17.1145 17.2499 18.0003V18.0004C17.2492 19.3718 16.7119 20.6885 15.7529 21.6688C14.7939 22.6492 13.4894 23.2154 12.1183 23.2463C10.7473 23.2772 9.41855 22.7705 8.41632 21.8344C7.41409 20.8983 6.81794 19.6072 6.75537 18.2372L6.75534 18.2365C6.71388 17.3116 6.91452 16.3918 7.33741 15.5681C7.72958 14.8043 8.30031 14.1476 8.9999 13.6532V3.75C8.9999 2.95435 9.31597 2.19129 9.87858 1.62868ZM14.8336 13.5405C14.8309 13.5387 14.8282 13.537 14.8255 13.5353L14.6249 13.8521L14.6306 13.8521L14.8336 13.5405ZM14.6304 13.8525H14.6246L14.4243 14.1689L14.6304 13.8525ZM14.0178 14.7992C13.8601 14.6981 13.7301 14.5592 13.6396 14.3951C13.5482 14.2291 13.5001 14.0428 13.4999 13.8533L13.4999 3.75C13.4999 3.35218 13.3419 2.97064 13.0606 2.68934C12.7793 2.40804 12.3977 2.25 11.9999 2.25C11.6021 2.25 11.2205 2.40804 10.9392 2.68934C10.6579 2.97064 10.4999 3.35218 10.4999 3.75V13.8531L10.4999 13.8537C10.4996 14.0428 10.4516 14.2287 10.3605 14.3944C10.2702 14.5584 10.1404 14.6973 9.98288 14.7985C9.42691 15.1612 8.97504 15.6626 8.67181 16.2532C8.36818 16.8446 8.22411 17.505 8.25382 18.1691C8.2986 19.1475 8.72441 20.0696 9.4402 20.7382C10.1561 21.4068 11.1052 21.7688 12.0845 21.7467C13.0638 21.7246 13.9956 21.3202 14.6806 20.6199C15.3656 19.9197 15.7494 18.9792 15.7499 17.9997M14.0178 14.7992C14.5494 15.1462 14.9862 15.6202 15.2886 16.1784C15.5916 16.7376 15.7502 17.3636 15.7499 17.9996" fill="#21272A"/>
<path fill-rule="evenodd" clip-rule="evenodd" d="M12 4.5C12.4142 4.5 12.75 4.83579 12.75 5.25V18C12.75 18.4142 12.4142 18.75 12 18.75C11.5858 18.75 11.25 18.4142 11.25 18V5.25C11.25 4.83579 11.5858 4.5 12 4.5Z" fill="#21272A"/>
<path d="M12 20.25C13.2426 20.25 14.25 19.2426 14.25 18C14.25 16.7574 13.2426 15.75 12 15.75C10.7574 15.75 9.75 16.7574 9.75 18C9.75 19.2426 10.7574 20.25 12 20.25Z" fill="#21272A"/>
</svg>
